<svg xmlns="http://www.w3.org/2000/svg" xmlns:xlink="http://www.w3.org/1999/xlink" width="70" height="70" viewBox="0 0 70 70">
  <defs>
    <filter id="Elipse_89" x="0" y="0" width="70" height="70" filterUnits="userSpaceOnUse">
      <feOffset input="SourceAlpha"/>
      <feGaussianBlur stdDeviation="5" result="blur"/>
      <feFlood flood-opacity="0.161"/>
      <feComposite operator="in" in2="blur"/>
      <feComposite in="SourceGraphic"/>
    </filter>
    <filter id="Trazado_2327" x="18.794" y="17" width="29.206" height="35.863" filterUnits="userSpaceOnUse">
      <feOffset input="SourceAlpha"/>
      <feGaussianBlur stdDeviation="3" result="blur-2"/>
      <feFlood flood-opacity="0.161"/>
      <feComposite operator="in" in2="blur-2"/>
      <feComposite in="SourceGraphic"/>
    </filter>
  </defs>
  <g id="Grupo_4812" data-name="Grupo 4812" transform="translate(15 15)">
    <g transform="matrix(1, 0, 0, 1, -15, -15)" filter="url(#Elipse_89)">
      <circle id="Elipse_89-2" data-name="Elipse 89" cx="20" cy="20" r="20" transform="translate(15 15)" fill="#fafafa" opacity="0.6"/>
    </g>
    <g transform="matrix(1, 0, 0, 1, -15, -15)" filter="url(#Trazado_2327)">
      <path id="Trazado_2327-2" data-name="Trazado 2327" d="M2939.279,857.363a2.266,2.266,0,0,1-1.608-.666l-6.658-6.657a2.275,2.275,0,0,1,0-3.216l6.658-6.657a2.274,2.274,0,1,1,3.216,3.216l-5.049,5.049,5.049,5.049a2.274,2.274,0,0,1-1.608,3.882Z" transform="translate(-2902.55 -813.5)" fill="#ea5e31"/>
    </g>
  </g>
</svg>
