<svg xmlns="http://www.w3.org/2000/svg" xmlns:xlink="http://www.w3.org/1999/xlink" width="1920" height="535" viewBox="0 0 1920 535">
  <defs>
    <clipPath id="clip-path">
      <rect id="Rect치ngulo_2257" data-name="Rect치ngulo 2257" width="492.744" height="475.279" fill="#393e43"/>
    </clipPath>
  </defs>
  <g id="Grupo_3134" data-name="Grupo 3134" transform="translate(1 -4701.739)">
    <rect id="Rect치ngulo_2224" data-name="Rect치ngulo 2224" width="1920" height="535" transform="translate(-1 4701.739)" fill="#525166"/>
    <g id="Grupo_3087" data-name="Grupo 3087" transform="translate(162.256 4731.974)" opacity="0.25">
      <g id="Grupo_3086" data-name="Grupo 3086" transform="translate(0 0)" clip-path="url(#clip-path)">
        <path id="Trazado_2324" data-name="Trazado 2324" d="M133.86,45.4a92.858,92.858,0,1,0,92.857,92.858A92.962,92.962,0,0,0,133.86,45.4m0,166.765a73.907,73.907,0,1,1,73.907-73.907,73.992,73.992,0,0,1-73.907,73.907" transform="translate(112.512 99.381)" fill="#393e43"/>
        <path id="Trazado_2325" data-name="Trazado 2325" d="M137.318,62.926,85.063,115.181,67.8,97.917a9.477,9.477,0,0,0-13.4,13.406l23.961,23.957a9.475,9.475,0,0,0,13.4,0l58.955-58.955a9.474,9.474,0,1,0-13.4-13.4" transform="translate(142.149 140.533)" fill="#393e43"/>
        <path id="Trazado_2326" data-name="Trazado 2326" d="M492.543,87.536A11.376,11.376,0,0,0,477.7,74.657c-31.59,10.779-69.431,12.17-106.532,3.923-49.81-11.075-92.736-38.31-114.954-72.906a11.383,11.383,0,0,0-19.792.171c-22.244,34.516-65.114,61.68-114.84,72.736-37.1,8.255-74.938,6.86-106.536-3.923A11.37,11.37,0,0,0,0,85.44l.008,4.112c0,102.1,25.06,198.26,70.568,270.754,46.535,74.142,108.965,114.973,175.789,114.973s129.254-40.831,175.793-114.973c45.5-72.493,70.564-168.652,70.564-270.754a11.408,11.408,0,0,0-.178-2.016m-246.179,365c-121.014,0-219.887-156.865-223.514-351.922,32.034,7.918,68.245,8.035,103.667.163C175.872,89.8,219.458,64.144,246.372,30.814c26.914,33.33,70.5,58.989,119.854,69.965,35.419,7.872,71.622,7.755,103.652-.159-3.616,195.054-102.492,351.919-223.514,351.919" transform="translate(0 0)" fill="#393e43"/>
      </g>
    </g>
  </g>
</svg>
