<svg id="Grupo_3085" data-name="Grupo 3085" xmlns="http://www.w3.org/2000/svg" xmlns:xlink="http://www.w3.org/1999/xlink" width="66.646" height="66.575" viewBox="0 0 66.646 66.575">
  <defs>
    <clipPath id="clip-path">
      <rect id="Rectángulo_2256" data-name="Rectángulo 2256" width="66.646" height="66.575" fill="#fafafa"/>
    </clipPath>
  </defs>
  <g id="Grupo_3084" data-name="Grupo 3084" clip-path="url(#clip-path)">
    <path id="Trazado_2318" data-name="Trazado 2318" d="M.764,60.458c0-.025.008-.051.013-.076a1.47,1.47,0,0,1,.077-.248l0,0c.006-.015.015-.028.022-.043a1.471,1.471,0,0,1,.1-.192c.015-.023.032-.045.048-.068a1.532,1.532,0,0,1,.12-.146c.018-.019.036-.039.055-.057a1.41,1.41,0,0,1,.185-.153c.006,0,.012-.01.018-.014a1.485,1.485,0,0,1,.228-.124c.025-.011.051-.02.077-.03a1.525,1.525,0,0,1,.184-.057c.027-.007.054-.014.082-.019a1.518,1.518,0,0,1,.272-.027H8.6a1.51,1.51,0,1,1,0,3.021H5.9l.626.625h0L36.692,93.02a1.51,1.51,0,1,1-2.136,2.136L4.386,64.986h0l-.626-.626v2.778a1.51,1.51,0,0,1-3.021,0V60.712c0-.016,0-.03,0-.045a1.537,1.537,0,0,1,.021-.209" transform="translate(29.14 -29.394)" fill="#fafafa"/>
    <path id="Trazado_2319" data-name="Trazado 2319" d="M30.026,94.958c0-.025.008-.051.013-.076a1.471,1.471,0,0,1,.077-.248l0,0c.006-.015.015-.028.022-.043a1.471,1.471,0,0,1,.1-.192c.015-.023.032-.045.048-.068a1.532,1.532,0,0,1,.12-.146c.018-.019.036-.039.055-.057a1.409,1.409,0,0,1,.185-.153c.006,0,.012-.01.018-.014a1.484,1.484,0,0,1,.228-.124c.025-.011.051-.02.077-.03a1.521,1.521,0,0,1,.184-.057c.027-.007.054-.014.082-.019a1.517,1.517,0,0,1,.272-.027h6.352a1.51,1.51,0,0,1,0,3.021h-2.7l.626.625v0l13.171,13.171a1.51,1.51,0,1,1-2.136,2.136L33.648,99.486h0l-.626-.626v2.778a1.51,1.51,0,0,1-3.021,0V95.212c0-.016,0-.03,0-.045a1.538,1.538,0,0,1,.021-.209" transform="translate(2.143 -46.524)" fill="#fafafa"/>
    <path id="Trazado_2320" data-name="Trazado 2320" d="M17.887,84.1a1.505,1.505,0,0,1-1.068-.443L3.648,70.485v0l-.626-.626v2.778a1.51,1.51,0,1,1-3.021,0V66.211c0-.015,0-.03,0-.045a1.623,1.623,0,0,1,.021-.209c0-.026.008-.051.013-.076a1.5,1.5,0,0,1,.077-.248l0,0c.006-.015.015-.029.022-.043a1.474,1.474,0,0,1,.1-.192c.015-.024.032-.046.048-.068a1.458,1.458,0,0,1,.121-.146c.018-.02.035-.039.054-.057a1.573,1.573,0,0,1,.185-.153l.018-.014A1.528,1.528,0,0,1,.9,64.834c.025-.011.051-.02.077-.03a1.407,1.407,0,0,1,.183-.057c.027-.007.054-.014.082-.019A1.484,1.484,0,0,1,1.51,64.7H7.862a1.51,1.51,0,0,1,0,3.021h-2.7l.625.625v0L18.955,81.521A1.51,1.51,0,0,1,17.887,84.1" transform="translate(47.248 -32.125)" fill="#fafafa"/>
    <path id="Trazado_2321" data-name="Trazado 2321" d="M68.321,11.675a1.511,1.511,0,0,1,1.219-1.028l9.325-1.355L83.035.843a1.511,1.511,0,0,1,2.709,0l4.17,8.449,9.325,1.355a1.51,1.51,0,0,1,.837,2.576L93.328,19.8l1.594,9.286a1.511,1.511,0,0,1-2.192,1.593l-8.34-4.385-8.34,4.385a1.51,1.51,0,0,1-2.192-1.593L75.451,19.8,68.7,13.223a1.511,1.511,0,0,1-.383-1.548m9.807,6.516a1.511,1.511,0,0,1,.435,1.337l-1.21,7.052,6.333-3.33a1.51,1.51,0,0,1,1.406,0l6.334,3.33-1.21-7.053a1.511,1.511,0,0,1,.435-1.337L95.775,13.2l-7.082-1.029a1.51,1.51,0,0,1-1.137-.826L84.39,4.924l-3.167,6.417a1.511,1.511,0,0,1-1.137.826L73,13.2Z" transform="translate(-68.248 0)" fill="#fafafa"/>
    <path id="Trazado_2322" data-name="Trazado 2322" d="M37.05,23.579l.932,5.434A1.511,1.511,0,0,1,35.79,30.6l-4.879-2.565L26.031,30.6a1.51,1.51,0,0,1-2.192-1.592l.931-5.434-3.947-3.848a1.51,1.51,0,0,1,.837-2.576l5.456-.793,2.439-4.943a1.51,1.51,0,0,1,2.709,0l2.44,4.943,5.456.793A1.51,1.51,0,0,1,41,19.731Zm-3.566-4.342a1.511,1.511,0,0,1-1.137-.826L30.911,15.5l-1.436,2.911a1.511,1.511,0,0,1-1.137.826l-3.212.467,2.324,2.266a1.511,1.511,0,0,1,.435,1.337l-.549,3.2L30.207,25a1.51,1.51,0,0,1,1.406,0l2.873,1.51-.549-3.2a1.511,1.511,0,0,1,.435-1.337L36.7,19.7Z" transform="translate(14.937 -5.251)" fill="#fafafa"/>
    <path id="Trazado_2323" data-name="Trazado 2323" d="M80.662,75.155l5.456-.792,2.439-4.944a1.51,1.51,0,0,1,2.709,0l2.44,4.944,5.456.792A1.51,1.51,0,0,1,100,77.731l-3.947,3.848.932,5.433A1.511,1.511,0,0,1,94.791,88.6l-4.879-2.565L85.033,88.6a1.51,1.51,0,0,1-2.192-1.592l.932-5.433-3.947-3.848a1.51,1.51,0,0,1,.837-2.576m5.788,4.815a1.512,1.512,0,0,1,.435,1.337l-.549,3.2L89.208,83a1.513,1.513,0,0,1,1.406,0l2.873,1.511-.548-3.2a1.512,1.512,0,0,1,.435-1.337L95.7,77.7l-3.213-.467a1.512,1.512,0,0,1-1.137-.826L89.912,73.5l-1.436,2.912a1.511,1.511,0,0,1-1.137.826l-3.213.467Z" transform="translate(-73.77 -34.049)" fill="#fafafa"/>
  </g>
</svg>
