<svg xmlns="http://www.w3.org/2000/svg" xmlns:xlink="http://www.w3.org/1999/xlink" width="519.626" height="519.076" viewBox="0 0 519.626 519.076">
  <defs>
    <clipPath id="clip-path">
      <rect id="Rectángulo_2256" data-name="Rectángulo 2256" width="519.626" height="519.076" fill="#fdd783"/>
    </clipPath>
  </defs>
  <g id="Grupo_3085" data-name="Grupo 3085" opacity="0.2">
    <g id="Grupo_3084" data-name="Grupo 3084" clip-path="url(#clip-path)">
      <path id="Trazado_2318" data-name="Trazado 2318" d="M.938,69c.035-.2.059-.4.1-.589a11.459,11.459,0,0,1,.6-1.935l.012-.024c.047-.118.114-.22.169-.338a11.468,11.468,0,0,1,.813-1.5c.118-.181.247-.353.377-.53a11.94,11.94,0,0,1,.938-1.138c.141-.149.279-.3.428-.444a10.99,10.99,0,0,1,1.441-1.19c.047-.035.09-.078.141-.11a11.575,11.575,0,0,1,1.774-.966c.2-.086.4-.153.6-.232a11.879,11.879,0,0,1,1.433-.444c.208-.051.42-.106.636-.145a11.832,11.832,0,0,1,2.12-.212H62.037a11.777,11.777,0,1,1,0,23.554H40.948l4.88,4.876.008.008L281.066,322.874a11.775,11.775,0,1,1-16.652,16.652L29.183,104.3l-.012-.008-4.88-4.88v21.658a11.777,11.777,0,0,1-23.554,0V70.979c0-.122.031-.232.035-.353A11.984,11.984,0,0,1,.938,69" transform="translate(232.212 173.202)" fill="#fdd783"/>
      <path id="Trazado_2319" data-name="Trazado 2319" d="M30.2,103.5c.035-.2.059-.4.1-.589a11.464,11.464,0,0,1,.6-1.935l.012-.024c.047-.118.114-.22.169-.337a11.465,11.465,0,0,1,.813-1.5c.118-.181.247-.353.377-.53a11.95,11.95,0,0,1,.938-1.139c.141-.149.279-.3.428-.444a10.988,10.988,0,0,1,1.441-1.189c.047-.035.09-.078.141-.11a11.559,11.559,0,0,1,1.774-.966c.2-.086.4-.153.6-.232a11.845,11.845,0,0,1,1.433-.444c.208-.051.42-.106.636-.145a11.83,11.83,0,0,1,2.12-.212H91.3a11.777,11.777,0,0,1,0,23.554H70.21l4.88,4.876.008.012L177.792,224.837a11.776,11.776,0,1,1-16.656,16.652L58.445,138.8l-.012-.008-4.88-4.88v21.658a11.777,11.777,0,0,1-23.554,0V105.479c0-.122.031-.232.035-.353A12,12,0,0,1,30.2,103.5" transform="translate(220.615 274.136)" fill="#fdd783"/>
      <path id="Trazado_2320" data-name="Trazado 2320" d="M139.461,215.943a11.735,11.735,0,0,1-8.326-3.451L28.441,109.8l-.008-.012-4.88-4.879v21.657a11.777,11.777,0,1,1-23.554,0V76.478c0-.118.027-.232.031-.349A12.653,12.653,0,0,1,.2,74.5c.035-.2.059-.4.1-.593a11.686,11.686,0,0,1,.6-1.935l.012-.02c.047-.118.118-.224.169-.338a11.5,11.5,0,0,1,.817-1.5c.118-.185.247-.357.373-.534a11.369,11.369,0,0,1,.942-1.134c.137-.153.275-.3.424-.448a12.262,12.262,0,0,1,1.441-1.189c.047-.031.09-.075.141-.11a11.912,11.912,0,0,1,1.774-.962c.2-.086.4-.157.6-.232a10.962,10.962,0,0,1,1.429-.444c.212-.051.42-.106.636-.145a11.567,11.567,0,0,1,2.124-.216H61.3a11.777,11.777,0,0,1,0,23.554H40.21l4.876,4.876.008.012,102.694,102.7a11.775,11.775,0,0,1-8.326,20.1" transform="translate(368.388 189.29)" fill="#fdd783"/>
      <path id="Trazado_2321" data-name="Trazado 2321" d="M68.822,91.02A11.784,11.784,0,0,1,78.33,83l72.7-10.564L183.541,6.565a11.78,11.78,0,0,1,21.124,0L237.176,72.44,309.879,83a11.775,11.775,0,0,1,6.524,20.087L263.8,154.372l12.424,72.4a11.777,11.777,0,0,1-17.088,12.417L194.1,205l-65.024,34.188a11.776,11.776,0,0,1-17.088-12.417l12.421-72.4-52.607-51.28A11.781,11.781,0,0,1,68.822,91.02m76.463,50.805a11.781,11.781,0,0,1,3.388,10.426l-9.433,54.986,49.38-25.96a11.772,11.772,0,0,1,10.964,0l49.384,25.964-9.433-54.99a11.781,11.781,0,0,1,3.388-10.426l39.951-38.942L227.661,94.86a11.773,11.773,0,0,1-8.864-6.442L194.1,38.386,169.412,88.418a11.782,11.782,0,0,1-8.864,6.442l-55.214,8.024Z" transform="translate(-68.249 0.003)" fill="#fdd783"/>
      <path id="Trazado_2322" data-name="Trazado 2322" d="M150.439,111.955l7.266,42.365a11.778,11.778,0,0,1-17.092,12.413l-38.043-20-38.043,20A11.775,11.775,0,0,1,47.439,154.32L54.7,111.955l-30.777-30a11.776,11.776,0,0,1,6.528-20.087l42.538-6.183L92.006,17.144a11.777,11.777,0,0,1,21.124,0l19.024,38.542,42.538,6.183a11.774,11.774,0,0,1,6.524,20.087ZM122.638,78.1a11.78,11.78,0,0,1-8.868-6.442l-11.2-22.7-11.2,22.7A11.783,11.783,0,0,1,82.5,78.1L57.457,81.743,75.578,99.409a11.782,11.782,0,0,1,3.388,10.426l-4.279,24.947,22.4-11.777a11.772,11.772,0,0,1,10.964,0l22.4,11.777-4.279-24.947a11.784,11.784,0,0,1,3.392-10.426l18.121-17.665Z" transform="translate(254.896 30.941)" fill="#fdd783"/>
      <path id="Trazado_2323" data-name="Trazado 2323" d="M89.454,119.868l42.538-6.179,19.02-38.55a11.776,11.776,0,0,1,21.12,0l19.024,38.55,42.538,6.179a11.774,11.774,0,0,1,6.524,20.087l-30.777,30,7.266,42.361a11.778,11.778,0,0,1-17.092,12.413l-38.043-20-38.039,20A11.777,11.777,0,0,1,106.44,212.32l7.266-42.361-30.777-30a11.774,11.774,0,0,1,6.524-20.087m45.125,37.541a11.785,11.785,0,0,1,3.388,10.426l-4.279,24.943L156.087,181a11.8,11.8,0,0,1,10.964,0l22.4,11.781-4.275-24.947a11.785,11.785,0,0,1,3.388-10.426l18.121-17.665L181.639,136.1a11.792,11.792,0,0,1-8.868-6.438l-11.2-22.7-11.2,22.7a11.779,11.779,0,0,1-8.864,6.438l-25.049,3.639Z" transform="translate(-35.72 200.627)" fill="#fdd783"/>
    </g>
  </g>
</svg>
