<svg xmlns="http://www.w3.org/2000/svg" xmlns:xlink="http://www.w3.org/1999/xlink" width="59.213" height="57.89" viewBox="0 0 59.213 57.89">
  <defs>
    <clipPath id="clip-path">
      <rect id="Rect치ngulo_2256" data-name="Rect치ngulo 2256" width="35.079" height="35.042" fill="#ea5e31"/>
    </clipPath>
  </defs>
  <g id="Grupo_3130" data-name="Grupo 3130" transform="translate(-1260 -1552)">
    <path id="Rect치ngulo_2218" data-name="Rect치ngulo 2218" d="M28.964,0h.422c.234,0,.466.009.7.018h0l.07,0h.157l.408.022A2.633,2.633,0,0,1,30.4,5.31c-.476-.028-.961-.043-1.441-.043a2.646,2.646,0,0,1-.495-.046,2.647,2.647,0,0,1-.492.067c-.478.02-.961.054-1.435.1A2.633,2.633,0,0,1,26.007.149l.269-.026h.012a.439.439,0,0,0,.044,0h.047l.017,0h.051l.026,0H26.5Q27.107.052,27.72.026h.039l.113,0a2.634,2.634,0,0,1,.493.046,2.64,2.64,0,0,1,.6-.069ZM41.238,3.027a2.622,2.622,0,0,1,1.227.3h0q.65.343,1.28.718h0l.034.02.01.006.01.006.01.006.01.006.01.006.011.007,0,0,.149.09a2.633,2.633,0,0,1-2.739,4.5c-.407-.248-.828-.486-1.249-.708a2.634,2.634,0,0,1,1.231-4.963Zm9.443,8.411a2.631,2.631,0,0,1,2.173,1.142q.5.723.95,1.476a2.633,2.633,0,1,1-4.513,2.715c-.246-.408-.507-.815-.777-1.208a2.634,2.634,0,0,1,2.168-4.125ZM55.124,23.27A2.634,2.634,0,0,1,57.737,25.6q.1.867.149,1.749a2.633,2.633,0,0,1-5.259.289c-.026-.477-.067-.96-.122-1.433a2.635,2.635,0,0,1,2.619-2.936Zm-1.058,12.8a2.635,2.635,0,0,1,2.512,3.426c-.029.092-.059.184-.089.276h0l0,.009v0l0,.008v0l0,.008,0,.011,0,.005,0,.007v0l0,.009v0q-.173.521-.365,1.034h0l-.014.038h0l0,.011v0l0,.01v0l0,.009,0,0,0,.01,0,0,0,.007,0,.006,0,.006,0,.006,0,0-.006.015v0l0,.008v0l0,.009v0l-.047.122a2.633,2.633,0,0,1-4.912-1.9c.172-.444.331-.9.475-1.352A2.634,2.634,0,0,1,54.066,36.068ZM47.45,46.842A2.633,2.633,0,0,1,49.3,51.35l-.015.015h0l-.007.007h0l-.021.021,0,0-.005.005,0,0-.005,0,0,0-.005.005-.007.007,0,0-.006.006,0,0-.007.007,0,0-.019.018h0l-.009.009h0l-.029.028h0q-.551.535-1.13,1.041a2.633,2.633,0,1,1-3.465-3.966c.359-.314.714-.643,1.054-.978A2.625,2.625,0,0,1,47.45,46.842ZM36.585,53.3a2.634,2.634,0,0,1,.762,5.154l-.087.026-.011,0-.011,0-.015,0-.013,0-.012,0-.012,0-.012,0-.025.007h0l-.011,0h0q-.485.142-.977.268h0l-.014,0-.013,0h-.006l-.028.007h0q-.225.057-.452.111a2.633,2.633,0,0,1-1.2-5.127c.463-.109.929-.235,1.384-.372A2.633,2.633,0,0,1,36.585,53.3ZM22.393,53.6a2.639,2.639,0,0,1,.657.083c.461.118.932.224,1.4.314a2.633,2.633,0,0,1-.992,5.172l-.131-.026-.011,0-.011,0-.015,0-.013,0-.012,0h0q-.485-.1-.965-.21l-.012,0-.012,0-.012,0-.016,0-.011,0-.011,0q-.247-.059-.492-.122a2.634,2.634,0,0,1,.661-5.183Zm-11.121-6a2.624,2.624,0,0,1,1.769.683c.353.321.721.635,1.093.934a2.633,2.633,0,0,1-3.293,4.11c-.147-.118-.292-.237-.437-.358h0l-.007-.006h0l-.007-.006,0,0-.013-.011-.008-.006-.009-.007-.01-.008-.007-.006,0,0-.009-.008-.01-.009,0,0-.007-.006,0,0-.02-.017,0,0-.009-.007h0l-.01-.008h0l-.02-.017h0l-.009-.007h0l-.03-.026h0l-.01-.008h0l-.03-.026h0l-.01-.008h0l-.031-.026h0l-.03-.026h0l-.009-.008h0l-.01-.008h0l-.02-.017h0l-.008-.007,0,0-.009-.007h0l-.01-.009h0l-.009-.008,0,0L10,52.615l-.01-.009,0,0L9.974,52.6l-.009-.008-.009-.008-.006,0,0,0-.021-.018h0l-.008-.007h0q-.212-.185-.42-.374a2.633,2.633,0,0,1,1.776-4.579ZM4.213,37.1a2.634,2.634,0,0,1,2.474,1.733c.163.447.342.9.532,1.332a2.633,2.633,0,0,1-4.829,2.1q-.34-.781-.635-1.586v0l-.017-.045A2.635,2.635,0,0,1,4.213,37.1ZM2.7,24.358q.1,0,.2.007A2.633,2.633,0,0,1,5.33,27.186c-.035.476-.056.96-.063,1.438A2.633,2.633,0,0,1,0,28.557c.008-.593.034-1.182.078-1.766A2.633,2.633,0,0,1,2.7,24.358ZM6.647,12.352a2.634,2.634,0,0,1,2.228,4.034c-.254.4-.5.821-.726,1.239A2.633,2.633,0,0,1,3.524,15.1c.063-.116.127-.23.192-.345v0l0-.008v0l.013-.024.006-.01,0-.006,0,0,0-.008,0,0,.006-.011v0l0-.008,0,0,.005-.009v0l.013-.023h0l.006-.011h0q.3-.524.62-1.034A2.631,2.631,0,0,1,6.647,12.352Zm9.087-8.794a2.634,2.634,0,0,1,1.327,4.909c-.412.24-.822.5-1.219.76a2.633,2.633,0,0,1-2.921-4.382l.01-.007.01-.007.011-.007.012-.008,0,0,.008-.006,0,0,.008-.005,0,0L13,4.792h0l.034-.022h0q.675-.445,1.375-.853A2.621,2.621,0,0,1,15.734,3.557Z" transform="translate(1260 1609.89) rotate(-90)" fill="#525166"/>
    <g id="Grupo_3111" data-name="Grupo 3111" transform="translate(1272 1563.424)">
      <g id="Grupo_3084" data-name="Grupo 3084" clip-path="url(#clip-path)">
        <path id="Trazado_2318" data-name="Trazado 2318" d="M.752,59.863c0-.013,0-.027.007-.04a.774.774,0,0,1,.04-.131v0c0-.008.008-.015.011-.023a.774.774,0,0,1,.055-.1c.008-.012.017-.024.025-.036a.806.806,0,0,1,.063-.077l.029-.03a.742.742,0,0,1,.1-.08l.01-.007a.782.782,0,0,1,.12-.065l.04-.016a.8.8,0,0,1,.1-.03l.043-.01a.8.8,0,0,1,.143-.014H4.876a.8.8,0,0,1,0,1.59H3.453l.329.329h0L19.663,77a.795.795,0,1,1-1.124,1.124L2.658,62.246h0l-.329-.329v1.462a.8.8,0,0,1-1.59,0V60c0-.008,0-.016,0-.024a.809.809,0,0,1,.011-.11" transform="translate(14.988 -43.513)" fill="#ea5e31"/>
        <path id="Trazado_2319" data-name="Trazado 2319" d="M30.014,94.363c0-.013,0-.027.007-.04a.774.774,0,0,1,.04-.131v0c0-.008.008-.015.011-.023a.774.774,0,0,1,.055-.1c.008-.012.017-.024.025-.036a.805.805,0,0,1,.063-.077l.029-.03a.741.741,0,0,1,.1-.08l.01-.007a.782.782,0,0,1,.12-.065l.04-.016a.8.8,0,0,1,.1-.03l.043-.01A.8.8,0,0,1,30.8,93.7h3.343a.8.8,0,0,1,0,1.59H32.715l.329.329h0l6.933,6.933a.8.8,0,1,1-1.124,1.124L31.92,96.746h0l-.329-.329v1.462a.8.8,0,0,1-1.59,0V94.5c0-.008,0-.016,0-.024a.81.81,0,0,1,.011-.11" transform="translate(-13.081 -68.87)" fill="#ea5e31"/>
        <path id="Trazado_2320" data-name="Trazado 2320" d="M9.415,74.911a.792.792,0,0,1-.562-.233L1.92,67.745h0l-.329-.329v1.462a.8.8,0,1,1-1.59,0V65.5c0-.008,0-.016,0-.024a.854.854,0,0,1,.011-.11c0-.014,0-.027.007-.04a.789.789,0,0,1,.04-.131h0c0-.008.008-.015.011-.023a.776.776,0,0,1,.055-.1c.008-.012.017-.024.025-.036a.768.768,0,0,1,.064-.077l.029-.03a.828.828,0,0,1,.1-.08l.01-.007a.8.8,0,0,1,.12-.065l.041-.016a.741.741,0,0,1,.1-.03l.043-.01A.781.781,0,0,1,.8,64.7H4.138a.8.8,0,0,1,0,1.59H2.715l.329.329h0l6.933,6.933a.795.795,0,0,1-.562,1.357" transform="translate(24.869 -47.554)" fill="#ea5e31"/>
        <path id="Trazado_2321" data-name="Trazado 2321" d="M68.286,6.146a.8.8,0,0,1,.642-.541l4.908-.713L76.031.444a.8.8,0,0,1,1.426,0l2.195,4.447L84.56,5.6A.795.795,0,0,1,85,6.961l-3.551,3.462.839,4.888a.8.8,0,0,1-1.154.838l-4.39-2.308-4.39,2.308A.795.795,0,0,1,71.2,15.31l.839-4.888L68.488,6.961a.8.8,0,0,1-.2-.815m5.162,3.43a.8.8,0,0,1,.229.7l-.637,3.712,3.334-1.753a.8.8,0,0,1,.74,0l3.334,1.753-.637-3.712a.8.8,0,0,1,.229-.7l2.7-2.629L79.009,6.4a.8.8,0,0,1-.6-.435L76.744,2.592,75.077,5.97a.8.8,0,0,1-.6.435l-3.727.542Z" transform="translate(-68.248 -0.001)" fill="#ea5e31"/>
        <path id="Trazado_2322" data-name="Trazado 2322" d="M29.149,17.42l.491,2.86a.8.8,0,0,1-1.154.838l-2.568-1.35-2.568,1.35A.795.795,0,0,1,22.2,20.28l.49-2.86-2.078-2.025a.795.795,0,0,1,.441-1.356l2.872-.417,1.284-2.6a.8.8,0,0,1,1.426,0l1.284,2.6,2.872.417a.795.795,0,0,1,.44,1.356Zm-1.877-2.285a.8.8,0,0,1-.6-.435l-.756-1.532L25.161,14.7a.8.8,0,0,1-.6.435l-1.691.246,1.223,1.193a.8.8,0,0,1,.229.7l-.289,1.684,1.512-.8a.8.8,0,0,1,.74,0l1.512.8-.289-1.684a.8.8,0,0,1,.229-.7l1.223-1.193Z" transform="translate(-1.785 -7.773)" fill="#ea5e31"/>
        <path id="Trazado_2323" data-name="Trazado 2323" d="M80.049,72.039l2.872-.417,1.284-2.6a.8.8,0,0,1,1.426,0l1.284,2.6,2.872.417a.795.795,0,0,1,.44,1.356L88.149,75.42l.491,2.86a.8.8,0,0,1-1.154.838l-2.568-1.35-2.568,1.35A.8.8,0,0,1,81.2,78.28l.491-2.86-2.078-2.026a.795.795,0,0,1,.44-1.356M83.1,74.573a.8.8,0,0,1,.229.7l-.289,1.684,1.512-.8a.8.8,0,0,1,.74,0l1.512.8-.289-1.684a.8.8,0,0,1,.229-.7l1.223-1.193-1.691-.246a.8.8,0,0,1-.6-.435l-.756-1.533L84.162,72.7a.8.8,0,0,1-.6.435l-1.691.246Z" transform="translate(-76.422 -50.402)" fill="#ea5e31"/>
      </g>
    </g>
  </g>
</svg>
