<svg xmlns="http://www.w3.org/2000/svg" width="63.022" height="61.614" viewBox="0 0 63.022 61.614">
  <g id="Grupo_3124" data-name="Grupo 3124" transform="translate(-868 -2968.683)">
    <path id="Rectángulo_2218" data-name="Rectángulo 2218" d="M30.827,0h.449c.249,0,.5.01.743.019h0l.075,0h.025l.037,0h.105q.218.01.434.023a2.8,2.8,0,0,1-.334,5.6c-.507-.03-1.023-.046-1.533-.046a2.817,2.817,0,0,1-.527-.049,2.817,2.817,0,0,1-.524.071c-.509.021-1.023.057-1.527.108A2.8,2.8,0,0,1,27.68.159l.287-.028h.012a.468.468,0,0,0,.047,0h.05l.018,0h.054l.028,0h.03q.645-.054,1.3-.082h.041l.12,0a2.8,2.8,0,0,1,.525.049A2.81,2.81,0,0,1,30.827,0ZM43.891,3.222a2.791,2.791,0,0,1,1.306.325h0q.692.365,1.362.764h0l.036.022.011.007.011.007.011.007.011.007.011.007.012.007,0,0,.159.1a2.8,2.8,0,0,1-2.915,4.788c-.434-.264-.881-.517-1.329-.754a2.8,2.8,0,0,1,1.311-5.282Zm10.05,8.952a2.8,2.8,0,0,1,2.312,1.216q.528.769,1.011,1.571a2.8,2.8,0,1,1-4.8,2.889c-.261-.435-.54-.867-.827-1.286a2.8,2.8,0,0,1,2.307-4.39ZM58.67,24.767a2.8,2.8,0,0,1,2.781,2.481q.107.923.159,1.861a2.8,2.8,0,1,1-5.6.308c-.028-.508-.072-1.021-.13-1.525a2.8,2.8,0,0,1,2.462-3.106A2.831,2.831,0,0,1,58.67,24.767ZM57.544,38.389a2.8,2.8,0,0,1,2.674,3.646c-.031.1-.063.2-.095.293h0l0,.01v0l0,.009v0l0,.008,0,.011,0,.006,0,.008v0l0,.01v0q-.184.555-.388,1.1h0l-.015.041h0l0,.012v0l0,.01v0l0,.01,0,0,0,.01,0,.005,0,.007,0,.006,0,.006,0,.006,0,0-.006.016v0l0,.009v0l0,.009v0l-.05.129a2.8,2.8,0,0,1-5.228-2.021c.183-.473.353-.957.506-1.439A2.8,2.8,0,0,1,57.544,38.389ZM50.5,49.855a2.8,2.8,0,0,1,1.969,4.8l-.016.016h0l-.008.007h0l-.022.022,0,0-.006.005,0,0-.005.005,0,0-.006.006-.007.007,0,0-.006.006,0,0-.008.007,0,0-.02.02h0l-.01.009h0l-.031.03h0q-.586.569-1.2,1.107A2.8,2.8,0,1,1,47.413,51.7c.383-.334.76-.685,1.122-1.041A2.793,2.793,0,0,1,50.5,49.855ZM38.938,56.731a2.8,2.8,0,0,1,.811,5.486l-.093.028-.012,0-.012,0-.016,0-.014,0-.013,0-.013,0-.012,0-.027.008h0l-.012,0h0q-.516.151-1.039.285h0l-.015,0-.014,0-.006,0-.03.008h0q-.24.061-.481.118a2.8,2.8,0,0,1-1.281-5.457c.493-.116.989-.25,1.473-.4A2.8,2.8,0,0,1,38.938,56.731Zm-15.1.312a2.808,2.808,0,0,1,.7.089c.49.126.992.238,1.489.334a2.8,2.8,0,0,1-1.056,5.505l-.139-.027-.012,0-.012,0-.016,0-.013,0-.012,0h0q-.516-.1-1.027-.223l-.013,0-.012,0-.013,0-.017,0-.012,0-.011,0q-.263-.063-.524-.13a2.8,2.8,0,0,1,.7-5.516ZM12,50.655a2.793,2.793,0,0,1,1.883.727c.376.341.768.676,1.164.994a2.8,2.8,0,0,1-3.5,4.375c-.156-.126-.311-.252-.465-.381h0l-.008-.006h0l-.007-.006,0,0-.014-.011-.008-.007-.01-.008-.01-.009-.007-.006,0,0-.01-.008-.011-.009,0,0-.007-.006,0,0-.021-.018,0,0-.009-.008h0l-.01-.009h0l-.021-.018,0,0-.009-.008h0l-.032-.028h0l-.01-.009h0l-.032-.028h0l-.01-.009h0l-.033-.028h0l-.032-.028h0l-.01-.009h0l-.01-.009h0l-.021-.019h0l-.009-.008,0,0-.009-.008h0l-.011-.009h0l-.01-.008,0,0L10.639,56l-.011-.009,0,0-.009-.008-.01-.008-.01-.008-.006-.005,0,0-.023-.02h0l-.008-.007h0q-.225-.2-.447-.4A2.8,2.8,0,0,1,12,50.655ZM4.484,39.488a2.8,2.8,0,0,1,2.634,1.844c.173.476.364.953.566,1.417a2.8,2.8,0,0,1-5.14,2.237q-.362-.832-.676-1.688v0l-.018-.048a2.8,2.8,0,0,1,2.634-3.761ZM2.874,25.925q.1,0,.21.008a2.8,2.8,0,0,1,2.588,3c-.037.506-.06,1.021-.067,1.531A2.8,2.8,0,0,1,0,30.394c.009-.631.037-1.259.083-1.88A2.8,2.8,0,0,1,2.874,25.925Zm4.2-12.779A2.8,2.8,0,0,1,9.445,17.44c-.27.43-.53.873-.773,1.318a2.8,2.8,0,0,1-4.922-2.683c.067-.124.135-.245.2-.368v0l0-.009v0l.014-.025.006-.011,0-.006,0,0,0-.009,0,0L4,15.624l0,0,.005-.009,0,0,.005-.009v0l.014-.025h0l.007-.012v0q.319-.558.659-1.1A2.8,2.8,0,0,1,7.074,13.146Zm9.672-9.36a2.8,2.8,0,0,1,1.413,5.225c-.438.255-.875.527-1.3.809a2.8,2.8,0,0,1-3.109-4.664l.011-.007.011-.007.012-.008.012-.008.005,0,.009-.006,0,0,.009-.006,0,0,.01-.006h0l.036-.024h0q.718-.474,1.464-.908A2.79,2.79,0,0,1,16.746,3.786Z" transform="translate(868 3030.296) rotate(-90)" fill="#fbbc30"/>
    <path id="Trazado_2327" data-name="Trazado 2327" d="M2933.983,868.053a3.623,3.623,0,0,0,2.57-1.065l10.642-10.641a3.635,3.635,0,0,0,0-5.141l-10.642-10.641a3.635,3.635,0,1,0-5.141,5.141l8.071,8.071-8.071,8.071a3.635,3.635,0,0,0,2.571,6.206Z" transform="translate(-2039.348 2143.188)" fill="#fafafa"/>
  </g>
</svg>
