<?xml version="1.0" encoding="utf-8"?>
<!-- Generator: Adobe Illustrator 24.0.2, SVG Export Plug-In . SVG Version: 6.00 Build 0)  -->
<svg version="1.1" id="Capa_1" xmlns="http://www.w3.org/2000/svg" xmlns:xlink="http://www.w3.org/1999/xlink" x="0px" y="0px"
	 viewBox="0 0 712.7 310.6" style="enable-background:new 0 0 712.7 310.6;" xml:space="preserve">
<style type="text/css">
	.st0{fill:#FFC629;}
	.st1{fill:#FFD369;}
	.st2{fill:#FFEFCD;}
	.st3{fill:#FFFFFF;}
	.st4{fill:#4A4F54;}
</style>
<g>
	<g>
		<path class="st0" d="M219.6,107.6h-94.9c-0.3,0-0.5,0.2-0.5,0.5v94.9c0,0.3,0.2,0.5,0.5,0.5h94.9c0.3,0,0.5-0.2,0.5-0.5v-94.9
			C220.1,107.9,219.9,107.6,219.6,107.6z"/>
		<path class="st0" d="M320.8,107.6h-94.9c-0.3,0-0.5,0.2-0.5,0.5v94.9c0,0.3,0.2,0.5,0.5,0.5h94.9c0.3,0,0.5-0.2,0.5-0.5v-94.9
			C321.4,107.9,321.1,107.6,320.8,107.6z"/>
		<path class="st0" d="M118.4,107.6H23.4c-0.3,0-0.5,0.2-0.5,0.5v94.9c0,0.3,0.2,0.5,0.5,0.5h94.9c0.3,0,0.5-0.2,0.5-0.5v-94.9
			C118.9,107.9,118.7,107.6,118.4,107.6z"/>
		<path class="st1" d="M219.6,7.1h-94.9c-0.3,0-0.5,0.2-0.5,0.5v94.9c0,0.3,0.2,0.5,0.5,0.5h94.9c0.3,0,0.5-0.2,0.5-0.5V7.6
			C220.1,7.3,219.9,7.1,219.6,7.1z"/>
		<path class="st2" d="M320.8,207.5h-94.9c-0.3,0-0.5,0.2-0.5,0.5V303c0,0.3,0.2,0.5,0.5,0.5h94.9c0.3,0,0.5-0.2,0.5-0.5v-94.9
			C321.4,207.8,321.1,207.5,320.8,207.5z"/>
		<path class="st2" d="M118.4,7.1H23.4c-0.3,0-0.5,0.2-0.5,0.5v94.9c0,0.3,0.2,0.5,0.5,0.5h94.9c0.3,0,0.5-0.2,0.5-0.5V7.6
			C118.9,7.3,118.7,7.1,118.4,7.1z"/>
		<polygon class="st3" points="52.4,124.3 52.4,124.8 52.4,138.1 52.4,148 52.4,161.8 52.4,185.1 52.4,185.6 67.7,185.6 67.7,161.8 
			90.7,161.8 90.7,148 67.7,148 67.7,138.1 99.2,138.1 99.2,124.3 67.7,124.3 		"/>
		<path class="st3" d="M270.1,124.3h-8.9h-1.5h-1.1h-12.7v61.3h11.2h2.6h1.5h8.9c16.9,0,30.7-13.7,30.7-30.7
			C300.8,138,287.1,124.3,270.1,124.3z M270.1,170.3h-8.9v-30.7h8.9c8.5,0,15.3,6.9,15.3,15.3C285.5,163.4,278.6,170.3,270.1,170.3z
			"/>
		<path class="st3" d="M173,139.6c5.3,0,9.9,2.7,12.7,6.7l10.9-10.9c-5.6-6.8-14.1-11.1-23.6-11.1c-16.9,0-30.7,13.7-30.7,30.7
			c0,16.9,13.7,30.7,30.7,30.7c9.5,0,18-4.3,23.6-11.1l-10.9-10.9c-2.8,4.1-7.4,6.7-12.7,6.7c-8.5,0-15.3-6.9-15.3-15.3
			C157.7,146.5,164.5,139.6,173,139.6z"/>
	</g>
	<g>
		<path class="st4" d="M350,171.6c0-11.8,9-20.3,21.1-20.3c6.4,0,11.9,2.3,15.6,6.6l-4.7,4.4c-2.9-3.1-6.4-4.6-10.5-4.6
			c-8.2,0-14.1,5.7-14.1,13.9c0,8.1,5.9,13.9,14.1,13.9c4.1,0,7.7-1.5,10.5-4.7l4.7,4.5c-3.7,4.3-9.2,6.6-15.7,6.6
			C359,191.9,350,183.4,350,171.6z"/>
		<path class="st4" d="M392.1,152.1c0-2.4,1.9-4.2,4.5-4.2c2.6,0,4.5,1.7,4.5,4.1c0,2.5-1.9,4.4-4.5,4.4
			C394,156.3,392.1,154.4,392.1,152.1z M393.1,161.2h7v30.1h-7V161.2z"/>
		<path class="st4" d="M438.5,161.2v30.1h-6.7v-3.8c-2.3,2.8-5.8,4.2-9.7,4.2c-7.7,0-13-4.2-13-13.3v-17.2h7v16.2
			c0,5.5,2.6,8.1,7,8.1c4.9,0,8.2-3,8.2-9.1v-15.2H438.5z"/>
		<path class="st4" d="M477.2,149.5v41.8h-6.8v-3.9c-2.4,2.9-5.9,4.3-10,4.3c-8.7,0-15.2-6.1-15.2-15.4c0-9.3,6.5-15.4,15.2-15.4
			c3.9,0,7.3,1.3,9.7,4.1v-15.4H477.2z M470.2,176.3c0-5.7-3.9-9.4-9-9.4c-5.1,0-9,3.7-9,9.4c0,5.7,3.9,9.4,9,9.4
			C466.3,185.7,470.2,182,470.2,176.3z"/>
		<path class="st4" d="M511.6,173.7v17.6h-6.6v-3.7c-1.7,2.6-5,4.1-9.5,4.1c-6.9,0-11.2-3.8-11.2-9c0-5,3.4-9,12.5-9h7.8v-0.5
			c0-4.1-2.5-6.5-7.5-6.5c-3.4,0-6.9,1.1-9.1,3l-2.8-5.1c3.2-2.5,7.9-3.7,12.7-3.7C506.5,160.9,511.6,165,511.6,173.7z M504.5,181.9
			v-3.5h-7.3c-4.8,0-6.1,1.8-6.1,4c0,2.5,2.1,4.2,5.7,4.2C500.4,186.6,503.3,185,504.5,181.9z"/>
		<path class="st4" d="M550.3,149.5v41.8h-6.8v-3.9c-2.4,2.9-5.9,4.3-10,4.3c-8.7,0-15.2-6.1-15.2-15.4c0-9.3,6.5-15.4,15.2-15.4
			c3.9,0,7.3,1.3,9.7,4.1v-15.4H550.3z M543.4,176.3c0-5.7-3.9-9.4-9-9.4c-5.1,0-9,3.7-9,9.4c0,5.7,3.9,9.4,9,9.4
			C539.5,185.7,543.4,182,543.4,176.3z"/>
		<path class="st4" d="M584.7,173.7v17.6h-6.6v-3.7c-1.7,2.6-5,4.1-9.5,4.1c-6.9,0-11.2-3.8-11.2-9c0-5,3.4-9,12.5-9h7.8v-0.5
			c0-4.1-2.5-6.5-7.5-6.5c-3.4,0-6.9,1.1-9.1,3l-2.8-5.1c3.2-2.5,7.9-3.7,12.7-3.7C579.7,160.9,584.7,165,584.7,173.7z M577.7,181.9
			v-3.5h-7.3c-4.8,0-6.1,1.8-6.1,4c0,2.5,2.1,4.2,5.7,4.2C573.5,186.6,576.5,185,577.7,181.9z"/>
		<path class="st4" d="M623.3,174.1v17.2h-7V175c0-5.4-2.6-7.9-7.2-7.9c-5,0-8.4,3-8.4,9.1v15.2h-7v-30.1h6.7v3.9
			c2.3-2.8,6-4.2,10.4-4.2C618,160.9,623.3,165,623.3,174.1z"/>
		<path class="st4" d="M638.7,149.4h8.3l-9.8,7.7h-6.1L638.7,149.4z M632.3,161.2h7v30.1h-7V161.2z"/>
		<path class="st4" d="M673.7,173.7v17.6h-6.6v-3.7c-1.7,2.6-5,4.1-9.5,4.1c-6.9,0-11.2-3.8-11.2-9c0-5,3.4-9,12.5-9h7.8v-0.5
			c0-4.1-2.5-6.5-7.5-6.5c-3.4,0-6.9,1.1-9.1,3l-2.8-5.1c3.2-2.5,7.9-3.7,12.7-3.7C668.7,160.9,673.7,165,673.7,173.7z M666.7,181.9
			v-3.5h-7.3c-4.8,0-6.1,1.8-6.1,4c0,2.5,2.1,4.2,5.7,4.2C662.5,186.6,665.5,185,666.7,181.9z"/>
		<path class="st4" d="M380.3,217.6L366.2,250c-2.8,6.8-6.6,8.9-11.6,8.9c-3,0-6.1-1-8.1-2.8l2.8-5.2c1.4,1.3,3.3,2.1,5.2,2.1
			c2.5,0,3.9-1.2,5.3-4.2l0.5-1.2l-13.1-30.2h7.3l9.5,22.2l9.5-22.2H380.3z"/>
		<path class="st4" d="M400.9,208.2h17.2c12.8,0,21.5,7.9,21.5,19.7c0,11.8-8.7,19.7-21.5,19.7h-17.2V208.2z M417.8,241.4
			c8.8,0,14.5-5.4,14.5-13.5c0-8.2-5.7-13.5-14.5-13.5h-9.6v27H417.8z"/>
		<path class="st4" d="M474.9,234.8h-23.6c0.8,4.4,4.5,7.2,9.7,7.2c3.4,0,6-1.1,8.2-3.3l3.8,4.3c-2.7,3.2-6.9,4.9-12.1,4.9
			c-10.1,0-16.6-6.5-16.6-15.4c0-9,6.6-15.4,15.5-15.4c8.8,0,15.2,6.1,15.2,15.5C475,233.3,475,234.2,474.9,234.8z M451.2,230.2
			h17.1c-0.6-4.3-3.9-7.3-8.5-7.3C455.2,222.8,451.9,225.8,451.2,230.2z"/>
		<path class="st4" d="M478.3,244.6l2.7-5.4c2.6,1.7,6.7,3,10.5,3c4.4,0,6.3-1.2,6.3-3.3c0-5.7-18.6-0.3-18.6-12.3
			c0-5.7,5.1-9.4,13.2-9.4c4,0,8.6,1,11.3,2.6l-2.7,5.4c-2.9-1.7-5.7-2.3-8.6-2.3c-4.3,0-6.3,1.4-6.3,3.4c0,6.1,18.6,0.7,18.6,12.4
			c0,5.6-5.2,9.3-13.6,9.3C486,248,481,246.6,478.3,244.6z"/>
		<path class="st4" d="M535.9,230v17.6h-6.6V244c-1.7,2.6-5,4.1-9.5,4.1c-6.9,0-11.2-3.8-11.2-9c0-5,3.4-9,12.5-9h7.8v-0.4
			c0-4.1-2.5-6.5-7.5-6.5c-3.4,0-6.9,1.1-9.1,3l-2.8-5.1c3.2-2.5,7.9-3.7,12.7-3.7C530.9,217.2,535.9,221.3,535.9,230z M528.9,238.2
			v-3.5h-7.3c-4.8,0-6.1,1.8-6.1,4c0,2.5,2.1,4.2,5.7,4.2C524.7,242.9,527.7,241.3,528.9,238.2z"/>
		<path class="st4" d="M562.3,217.2v6.7c-0.6-0.1-1.1-0.2-1.6-0.2c-5.4,0-8.7,3.2-8.7,9.3v14.6h-7v-30.1h6.7v4.4
			C553.7,218.8,557.3,217.2,562.3,217.2z"/>
		<path class="st4" d="M585.7,217.2v6.7c-0.6-0.1-1.1-0.2-1.6-0.2c-5.4,0-8.7,3.2-8.7,9.3v14.6h-7v-30.1h6.7v4.4
			C577,218.8,580.7,217.2,585.7,217.2z"/>
		<path class="st4" d="M588.9,232.6c0-9,6.8-15.4,16-15.4c9.3,0,16,6.4,16,15.4c0,9-6.7,15.4-16,15.4
			C595.7,248,588.9,241.6,588.9,232.6z M613.9,232.6c0-5.7-3.8-9.4-9-9.4c-5.1,0-8.9,3.7-8.9,9.4c0,5.7,3.8,9.4,8.9,9.4
			C610,242,613.9,238.3,613.9,232.6z"/>
		<path class="st4" d="M627.7,205.8h7v41.8h-7V205.8z"/>
		<path class="st4" d="M644,205.8h7v41.8h-7V205.8z"/>
		<path class="st4" d="M657.8,232.6c0-9,6.8-15.4,16-15.4c9.3,0,16.1,6.4,16.1,15.4c0,9-6.7,15.4-16.1,15.4
			C664.5,248,657.8,241.6,657.8,232.6z M682.7,232.6c0-5.7-3.8-9.4-9-9.4c-5.1,0-8.9,3.7-8.9,9.4c0,5.7,3.8,9.4,8.9,9.4
			C678.9,242,682.7,238.3,682.7,232.6z"/>
	</g>
</g>
</svg>
