<svg xmlns="http://www.w3.org/2000/svg" width="27.836" height="27.838" viewBox="0 0 27.836 27.838">
  <g id="Grupo_3138" data-name="Grupo 3138" transform="translate(-1475.629 -4268.821)">
    <path id="Trazado_2274" data-name="Trazado 2274" d="M15.563,155.463a4.619,4.619,0,1,0,4.619,4.619,4.62,4.62,0,0,0-4.619-4.619" transform="translate(1473.979 4122.654)" fill="#393e43" fill-rule="evenodd"/>
    <path id="Trazado_2275" data-name="Trazado 2275" d="M19.889,151.681H10.362a3.206,3.206,0,0,0-3.2,3.2v9.528a3.205,3.205,0,0,0,3.2,3.2h9.527a3.206,3.206,0,0,0,3.2-3.2v-9.528a3.206,3.206,0,0,0-3.2-3.2m-4.768,13.787a5.826,5.826,0,1,1,5.826-5.826,5.826,5.826,0,0,1-5.826,5.826M20.837,154.9a.938.938,0,1,1,.938-.938.937.937,0,0,1-.937.938" transform="translate(1474.42 4123.094)" fill="#393e43" fill-rule="evenodd"/>
    <path id="Trazado_2276" data-name="Trazado 2276" d="M14.342,144.943A13.919,13.919,0,1,0,28.26,158.862a13.919,13.919,0,0,0-13.918-13.919m9.033,18.683a4.282,4.282,0,0,1-4.27,4.27H9.579a4.289,4.289,0,0,1-4.271-4.27V154.1a4.282,4.282,0,0,1,4.271-4.27h9.526a4.275,4.275,0,0,1,4.27,4.27Z" transform="translate(1475.205 4123.878)" fill="#393e43" fill-rule="evenodd"/>
  </g>
</svg>
