<svg id="Grupo_228" data-name="Grupo 228" xmlns="http://www.w3.org/2000/svg" width="294.303" height="29.127" viewBox="0 0 294.303 29.127">
  <g id="Grupo_227" data-name="Grupo 227" transform="translate(112.11)">
    <path id="Trazado_829" data-name="Trazado 829" d="M172.826-43.356H172.8c-.108,0-.217.028-.352.028-.6,0-1.062-.326-1.062-1.631v-3.7c0-3.724.025-8.129.051-10.412v-.109a1.977,1.977,0,0,0-2.174-2.256c-.244,0-.626.027-.9.027a.807.807,0,0,0-.842.817.7.7,0,0,0,.76.706h.053a3.358,3.358,0,0,1,.436-.028c1.087,0,1.087.463,1.088,2.312,0,1.578-.027,3.507-.027,4.894,0,.353-.027.49-.081.49s-.136-.136-.272-.327a5.466,5.466,0,0,0-4.3-1.957,6.087,6.087,0,0,0-6.169,6.445c0,3.943,2.638,6.5,6.173,6.5a5.66,5.66,0,0,0,4.539-2.284c.055-.055.081-.083.109-.083.081,0,.108.108.136.272a2.227,2.227,0,0,0,2.474,1.929c.353,0,1.087-.08,1.087-.842A.722.722,0,0,0,172.826-43.356Zm-7.586.3c-2.718,0-4.622-1.9-4.623-5,0-3.128,1.876-5.03,4.622-5.031,2.582,0,4.594,1.984,4.6,5.029C169.836-45.041,167.8-43.054,165.241-43.054Z" transform="translate(-109.217 66.051)" fill="#393e43"/>
    <path id="Trazado_830" data-name="Trazado 830" d="M183.929-44.469c-1.087-.38-1.278-1.032-1.278-3.019,0-1.032.053-2.446.135-3.344a7.179,7.179,0,0,0,.028-.76c0-3.045-1.715-4.159-4.244-4.159-2.337,0-4.621,1.17-4.621,2.2a.737.737,0,0,0,.762.735.759.759,0,0,0,.571-.272,4.285,4.285,0,0,1,3.181-1.306c2.2,0,2.827,1.169,2.827,2.664,0,.136-.027.3-.027.435,0,.19-.108.272-.435.327a43.606,43.606,0,0,0-5.029,1.115c-2.013.626-2.909,2.013-2.909,3.372,0,1.877,1.66,3.752,4.406,3.752a5.027,5.027,0,0,0,4.132-2.1.144.144,0,0,1,.108-.081c.055,0,.081.055.109.136a2.312,2.312,0,0,0,2.013,1.738.735.735,0,0,0,.734-.76A.69.69,0,0,0,183.929-44.469Zm-2.693-4.458c0,4.186-2.581,4.757-3.968,4.758-1.821,0-2.909-1.142-2.909-2.284,0-1.9,2.257-2.446,6.524-3.128h.083c.19,0,.271.081.271.3Z" transform="translate(-106.238 67.271)" fill="#393e43"/>
    <path id="Trazado_831" data-name="Trazado 831" d="M190.9-43.609h-.109a7.462,7.462,0,0,1-.76.055c-2.121,0-2.176-1.441-2.176-3.56,0-2.013.08-4.813.08-5.846,0-.326,0-.38.435-.38h2.393a.707.707,0,0,0,.762-.735.7.7,0,0,0-.762-.706h-2.421c-.352,0-.407,0-.408-.3,0,0,.055-2.176.055-2.964a.771.771,0,0,0-.788-.843.77.77,0,0,0-.788.79v.679c0,.951-.028,2.257-.028,2.366,0,.244-.052.271-.3.271h-1.577a.7.7,0,0,0-.762.708.705.705,0,0,0,.762.734h1.6c.191,0,.272.027.272.3v.435c0,1.333-.052,4.649-.052,6.388,0,1.2,0,4.16,3.481,4.16,1.087,0,1.74-.138,1.74-.844A.674.674,0,0,0,190.9-43.609Z" transform="translate(-103.908 66.598)" fill="#393e43"/>
    <path id="Trazado_832" data-name="Trazado 832" d="M203.355-44.474c-1.087-.38-1.278-1.032-1.278-3.017,0-1.034.053-2.446.136-3.344a7.5,7.5,0,0,0,.027-.762c0-3.044-1.714-4.159-4.244-4.159-2.337,0-4.621,1.17-4.621,2.2a.737.737,0,0,0,.762.734.753.753,0,0,0,.571-.272,4.29,4.29,0,0,1,3.181-1.306c2.2,0,2.827,1.17,2.827,2.664,0,.136-.025.3-.025.436,0,.189-.109.272-.435.327a43.414,43.414,0,0,0-5.03,1.115c-2.012.626-2.909,2.012-2.908,3.371,0,1.877,1.661,3.752,4.4,3.752a5.024,5.024,0,0,0,4.132-2.1.147.147,0,0,1,.109-.081c.053,0,.08.055.108.136a2.313,2.313,0,0,0,2.013,1.739.735.735,0,0,0,.734-.762A.691.691,0,0,0,203.355-44.474Zm-2.692-4.458c0,4.187-2.583,4.758-3.97,4.759-1.821,0-2.909-1.142-2.909-2.284,0-1.9,2.257-2.448,6.524-3.129h.083c.189,0,.272.083.272.3Z" transform="translate(-102.067 67.27)" fill="#393e43"/>
    <path id="Trazado_833" data-name="Trazado 833" d="M210.068-49.587c-.843-.435-2.148-.978-2.909-1.331a2.092,2.092,0,0,1-1.333-1.793c0-.9.788-1.742,2.2-1.742.163,0,2.583,0,2.583,2.174a.7.7,0,0,0,.762.707.67.67,0,0,0,.68-.652v-.055c-.028-.624-.028-1.034-.028-1.414,0-.408,0-.788.028-1.359v-.027a.635.635,0,0,0-.681-.652.611.611,0,0,0-.624.435c-.027.081,0,.326-.136.326a.2.2,0,0,1-.164-.053,4.372,4.372,0,0,0-2.392-.734c-2.421,0-3.7,1.551-3.7,3.127a3.287,3.287,0,0,0,2.2,3.019c3.153,1.3,4.351,1.956,4.351,3.4,0,1.3-1.334,2.093-2.718,2.093-1.551,0-2.91-.9-2.91-1.793,0-.191.055-.326.055-.517a.7.7,0,0,0-.734-.734.714.714,0,0,0-.76.708v.055c.027.651.053,1.059.053,1.467s-.027.815-.053,1.414v.055a.655.655,0,0,0,.707.651c.326,0,.652-.081.652-.76,0-.081.027-.136.081-.136a.345.345,0,0,1,.191.109,4.27,4.27,0,0,0,2.72.9c3.1,0,4.294-2.013,4.294-3.507A3.894,3.894,0,0,0,210.068-49.587Z" transform="translate(-99.592 67.27)" fill="#393e43"/>
    <path id="Trazado_834" data-name="Trazado 834" d="M225.434-43.341c-.163,0-.3.028-.407.028a1.007,1.007,0,0,1-.788-.326c-4.922-4.511-5.629-5.165-5.629-5.354,0-.083.055-.164.217-.272,1.331-.871,3.425-2.285,5.029-3.372a1.3,1.3,0,0,1,.679-.245c.381,0,.164.027.544.027h.027a.716.716,0,0,0,.762-.707.662.662,0,0,0-.788-.707c-.707.027-1.359.028-1.957.028-.626,0-1.224,0-1.9-.027h-.055a.691.691,0,0,0-.734.707c0,.652.652.652,1.141.652.137,0,.192.027.192.081,0,.027-.028.081-.109.136-4.3,2.965-4.4,2.992-4.7,2.992a.408.408,0,0,1-.463-.435s.052-5.764.052-9.272c0-.6-.191-2.038-2.421-2.037-.951,0-1.439.081-1.439.788a.741.741,0,0,0,.76.76h.624c.68.028.9.327.9,1.087,0,1.469.028,3.291.029,5.194,0,3.316-.026,6.986-.079,9.841a.428.428,0,0,1-.462.462c-.436,0-.491-.027-.816-.027h-.027a.748.748,0,0,0-.788.762.7.7,0,0,0,.816.707c.624-.028,1.278-.055,1.957-.055.707,0,1.414.026,2.121.053h.027a.728.728,0,0,0,.787-.735.728.728,0,0,0-.787-.734h-.028a6.991,6.991,0,0,1-.762.027.415.415,0,0,1-.462-.462c-.028-1.3-.028-2.176-.028-2.828,0-1.414.027-1.657.435-1.657a.97.97,0,0,1,.815.326c.843.87,3.073,2.935,4.515,4.347a.213.213,0,0,1,.053.109c0,.028,0,.191-.707.191a.637.637,0,0,0-.732.708.691.691,0,0,0,.734.706h.055c.626-.027,1.223-.053,1.821-.053s1.251.026,1.958.052h.027a.726.726,0,0,0,.762-.762A.674.674,0,0,0,225.434-43.341Z" transform="translate(-97.695 66.049)" fill="#393e43"/>
    <path id="Trazado_835" data-name="Trazado 835" d="M236.165-46.226a.777.777,0,0,0-.544.244,4.864,4.864,0,0,1-3.942,1.8,4.441,4.441,0,0,1-4.568-4.783c0-.38.055-.488.327-.49.6,0,2.908.027,4.947.027,1.006,0,1.93,0,2.556-.028,1.387-.055,1.985-.816,1.985-1.822a5.067,5.067,0,0,0-5.358-4.458c-3.208,0-6.063,2.612-6.061,6.581a6.075,6.075,0,0,0,6.146,6.415c3.425,0,5.329-2.069,5.329-2.693A.832.832,0,0,0,236.165-46.226Zm-4.57-8.155c2.773,0,3.725,2.038,3.725,2.827,0,.435-.244.735-.9.763-.762.027-2.284.027-3.7.027-3.153,0-3.4,0-3.4-.271C227.327-52.042,228.985-54.382,231.6-54.382Z" transform="translate(-94.942 67.273)" fill="#393e43"/>
    <path id="Trazado_836" data-name="Trazado 836" d="M243.781-43.62h-.109c-.271.027-.516.053-.76.053-2.121,0-2.176-1.441-2.177-3.561,0-2.012.081-4.811.081-5.845,0-.326,0-.38.435-.38h2.392a.707.707,0,0,0,.763-.735.7.7,0,0,0-.763-.707h-2.418c-.353,0-.408,0-.409-.3,0,0,.055-2.174.055-2.964a.77.77,0,0,0-.79-.841.77.77,0,0,0-.788.787v.68c0,.951-.027,2.256-.027,2.365,0,.244-.053.271-.3.271h-1.577a.7.7,0,0,0-.762.707.706.706,0,0,0,.762.735h1.6c.191,0,.272.027.272.3v.435c0,1.333-.053,4.65-.053,6.389,0,1.2,0,4.16,3.481,4.159,1.088,0,1.741-.136,1.741-.843A.673.673,0,0,0,243.781-43.62Z" transform="translate(-92.554 66.596)" fill="#393e43"/>
    <path id="Trazado_837" data-name="Trazado 837" d="M255.675-46.211a.856.856,0,0,0-.707.407,4.279,4.279,0,0,1-3.48,1.578c-3.127,0-4.73-2.581-4.731-5.056a4.806,4.806,0,0,1,4.73-5.139,3.572,3.572,0,0,1,2.773,1.114c.326.38.244.707.271,1.278a.721.721,0,0,0,.763.652.7.7,0,0,0,.787-.68v-.055c-.027-.624-.027-1.059-.027-1.467,0-.435,0-.842.027-1.414v-.055a.7.7,0,0,0-.79-.679c-.3,0-.623.135-.651.463-.027.135-.055.3-.136.3-.055,0-.081-.027-.136-.053a6.263,6.263,0,0,0-3.073-.815c-3.425,0-6.116,2.857-6.116,6.663a6.181,6.181,0,0,0,6.392,6.415c2.936,0,4.974-1.822,4.974-2.612A.871.871,0,0,0,255.675-46.211Z" transform="translate(-90.718 67.253)" fill="#393e43"/>
    <path id="Trazado_838" data-name="Trazado 838" d="M269.822-43.345h-.028c-.381,0-.353.027-.762.027-.327,0-.462-.191-.462-.49,0-2.148-.029-5.274-.056-6.416a4.306,4.306,0,0,0-4.542-4.349,5.091,5.091,0,0,0-4.023,1.85c-.055.055-.081.081-.108.081s-.055-.055-.055-.136c0-.38.025-2.828.025-5.029q0-.816,0-1.55a1.9,1.9,0,0,0-1.848-2.067,6.131,6.131,0,0,0-.68-.053c-1.169,0-1.386.353-1.386.816a.742.742,0,0,0,.76.76h.028a5.372,5.372,0,0,1,.6-.027c.707.027.924.408.924,1.114,0,1.631.028,3.834.029,6.145,0,3.261-.025,6.687-.052,8.89a.409.409,0,0,1-.436.463c-.435,0-.516-.028-.87-.028h-.027a.748.748,0,0,0-.787.763.7.7,0,0,0,.815.706c.626-.027,1.3-.055,1.985-.056s1.414.028,2.121.055h.027a.744.744,0,0,0,.788-.734.738.738,0,0,0-.816-.735,6.677,6.677,0,0,1-.76.028.416.416,0,0,1-.463-.463c0-1.277-.027-2.473-.028-3.479,0-.979.028-1.8.028-2.312a3.97,3.97,0,0,1,4.049-3.561,3.05,3.05,0,0,1,3.128,3.206c.027.517.055,1.8.055,3.209,0,1.006-.027,2.038-.027,2.936a.421.421,0,0,1-.435.462c-.435,0-.463-.026-.816-.026h-.027a.748.748,0,0,0-.787.76.7.7,0,0,0,.815.708c.627-.029,1.278-.056,1.958-.056.707,0,1.414.027,2.121.055h.027a.73.73,0,0,0,.788-.735A.729.729,0,0,0,269.822-43.345Z" transform="translate(-88.417 66.042)" fill="#393e43"/>
    <path id="Trazado_839" data-name="Trazado 839" d="M148.314-48.78V-62.517a2.722,2.722,0,0,0-2.718-2.718H120.737a2.721,2.721,0,0,0-2.718,2.718v18.083a2.721,2.721,0,0,0,2.718,2.718h11.739l-4.429,4.457a.676.676,0,0,0,0,.955.677.677,0,0,0,.476.2.674.674,0,0,0,.479-.2l4.162-4.188,4.16,4.188a.676.676,0,0,0,.479.2.677.677,0,0,0,.476-.2.676.676,0,0,0,0-.955l-4.426-4.455H145.6a2.722,2.722,0,0,0,2.718-2.718v-2.717l7.841,5.319a.665.665,0,0,0,.378.117.676.676,0,0,0,.559-.3.676.676,0,0,0-.18-.938Zm-1.35-.916-4.611-3.129a.676.676,0,0,0-.938.18.674.674,0,0,0,.18.937l5.369,3.643v3.632a1.371,1.371,0,0,1-1.369,1.37H120.737a1.372,1.372,0,0,1-1.37-1.37V-62.517a1.373,1.373,0,0,1,1.37-1.37H145.6a1.372,1.372,0,0,1,1.369,1.37Z" transform="translate(-118.019 65.235)" fill="#393e43"/>
  </g>
  <g id="Grupo_226" data-name="Grupo 226" transform="translate(0 12.151)">
    <path id="Trazado_840" data-name="Trazado 840" d="M207.016-74.643a3.991,3.991,0,0,0,.369-1.789,3.315,3.315,0,0,0-1.379-2.944,7,7,0,0,0-3.962-.941q-.77,0-1.685.061a10.6,10.6,0,0,0-1.67.23v11.691h2.157v-4.176h1.078a10.765,10.765,0,0,0,2.311-.223,4.964,4.964,0,0,0,1.712-.693A3.087,3.087,0,0,0,207.016-74.643Zm-2.729-.154a5.3,5.3,0,0,1-2.4.436h-1.044V-78.4c.353-.034.8-.051,1.352-.051a6.667,6.667,0,0,1,1.155.095,2.941,2.941,0,0,1,.934.316,1.611,1.611,0,0,1,.616.616,1.959,1.959,0,0,1,.222.976A1.69,1.69,0,0,1,204.286-74.8Z" transform="translate(-198.689 81.619)" fill="#393e43"/>
    <path id="Trazado_841" data-name="Trazado 841" d="M213.493-76.9a3.874,3.874,0,0,0-1.36-.951,4.458,4.458,0,0,0-1.738-.333,4.38,4.38,0,0,0-1.729.333,3.959,3.959,0,0,0-1.36.951,4.344,4.344,0,0,0-.891,1.481A5.575,5.575,0,0,0,206.1-73.5a5.645,5.645,0,0,0,.316,1.934,4.423,4.423,0,0,0,.882,1.49,3.949,3.949,0,0,0,1.352.957,4.339,4.339,0,0,0,1.746.342,4.4,4.4,0,0,0,1.754-.342,3.923,3.923,0,0,0,1.361-.957,4.3,4.3,0,0,0,.873-1.49,5.776,5.776,0,0,0,.308-1.934,5.544,5.544,0,0,0-.317-1.925A4.406,4.406,0,0,0,213.493-76.9Zm-1.5,5.546a1.864,1.864,0,0,1-1.6.787,1.868,1.868,0,0,1-1.6-.787,3.565,3.565,0,0,1-.573-2.14,3.493,3.493,0,0,1,.573-2.113,1.875,1.875,0,0,1,1.6-.779,1.871,1.871,0,0,1,1.6.779,3.485,3.485,0,0,1,.574,2.113A3.556,3.556,0,0,1,211.995-71.357Z" transform="translate(-196.342 82.294)" fill="#393e43"/>
    <path id="Trazado_842" data-name="Trazado 842" d="M214.792-73.019q.377,1.147.754,2.157t.72,1.8h1.7q.442-1.266.9-2.7t.847-2.935q.393,1.507.864,2.935t.915,2.7h1.683q.36-.786.737-1.8t.754-2.157q.377-1.145.754-2.413t.737-2.585h-2.14q-.156.719-.361,1.55t-.44,1.695q-.231.865-.473,1.687c-.161.548-.316,1.048-.465,1.5q-.257-.786-.5-1.626t-.461-1.677q-.215-.839-.4-1.634t-.342-1.5h-1.592q-.154.7-.352,1.5t-.42,1.634q-.223.839-.471,1.677t-.507,1.626c-.159-.457-.32-.957-.482-1.5s-.315-1.11-.465-1.687-.291-1.142-.429-1.695-.258-1.07-.361-1.55H213.3q.359,1.317.737,2.585T214.792-73.019Z" transform="translate(-194.062 82.347)" fill="#393e43"/>
    <path id="Trazado_843" data-name="Trazado 843" d="M228.474-68.789a7.919,7.919,0,0,0,.907-.051c.3-.034.573-.076.831-.129a6.907,6.907,0,0,0,.683-.17,3.264,3.264,0,0,0,.471-.18l-.274-1.695a5.624,5.624,0,0,1-.985.291,6.382,6.382,0,0,1-1.377.137,2.9,2.9,0,0,1-1.961-.59,2.362,2.362,0,0,1-.761-1.669h5.905c.011-.113.02-.241.026-.384s.008-.271.008-.386a4.955,4.955,0,0,0-1.036-3.422,3.68,3.68,0,0,0-2.883-1.148,4.123,4.123,0,0,0-1.54.3,3.857,3.857,0,0,0-1.335.89,4.356,4.356,0,0,0-.934,1.48,5.617,5.617,0,0,0-.35,2.071,6,6,0,0,0,.274,1.858,3.993,3.993,0,0,0,.839,1.472,3.835,3.835,0,0,0,1.438.976A5.507,5.507,0,0,0,228.474-68.789Zm-2.259-6.35a2.136,2.136,0,0,1,.384-.668,1.9,1.9,0,0,1,.608-.47,1.852,1.852,0,0,1,.839-.18,1.782,1.782,0,0,1,.8.163,1.654,1.654,0,0,1,.565.445,1.946,1.946,0,0,1,.352.668,2.75,2.75,0,0,1,.12.812h-3.851A3.654,3.654,0,0,1,226.215-75.139Z" transform="translate(-190.715 82.294)" fill="#393e43"/>
    <path id="Trazado_844" data-name="Trazado 844" d="M236.189-78.065c-.183-.029-.366-.051-.548-.07s-.342-.025-.479-.025a9.288,9.288,0,0,0-1.993.2,11.389,11.389,0,0,0-1.5.419v8.524h2.071v-7.172a4.718,4.718,0,0,1,.539-.12,4.252,4.252,0,0,1,.728-.068,5.188,5.188,0,0,1,1.052.095,6.835,6.835,0,0,1,.711.179l.359-1.746c-.1-.034-.24-.07-.411-.111S236.37-78.036,236.189-78.065Z" transform="translate(-188.245 82.302)" fill="#393e43"/>
    <path id="Trazado_845" data-name="Trazado 845" d="M237.645-70.115a3.834,3.834,0,0,0,1.438.976,5.507,5.507,0,0,0,2.054.35,7.917,7.917,0,0,0,.907-.051c.3-.034.573-.076.831-.129a6.909,6.909,0,0,0,.683-.17,3.262,3.262,0,0,0,.471-.18l-.274-1.695a5.673,5.673,0,0,1-.984.291,6.4,6.4,0,0,1-1.378.137,2.9,2.9,0,0,1-1.961-.59,2.362,2.362,0,0,1-.761-1.669h5.905c.011-.113.02-.241.025-.384s.009-.271.009-.386a4.954,4.954,0,0,0-1.036-3.422,3.681,3.681,0,0,0-2.883-1.148,4.123,4.123,0,0,0-1.54.3,3.844,3.844,0,0,0-1.335.89,4.357,4.357,0,0,0-.934,1.48,5.646,5.646,0,0,0-.35,2.071,6.005,6.005,0,0,0,.274,1.858A3.993,3.993,0,0,0,237.645-70.115Zm1.232-5.024a2.137,2.137,0,0,1,.385-.668,1.9,1.9,0,0,1,.608-.47,1.852,1.852,0,0,1,.839-.18,1.8,1.8,0,0,1,.8.163,1.65,1.65,0,0,1,.563.445,1.945,1.945,0,0,1,.352.668,2.749,2.749,0,0,1,.12.812h-3.851A3.578,3.578,0,0,1,238.877-75.139Z" transform="translate(-186.706 82.294)" fill="#393e43"/>
    <path id="Trazado_846" data-name="Trazado 846" d="M248.508-67.8a12.008,12.008,0,0,0,1.959-.154,12.1,12.1,0,0,0,1.55-.342V-81.306l-2.071.342v4.3a5.184,5.184,0,0,0-.856-.342,3.875,3.875,0,0,0-1.147-.154,4.058,4.058,0,0,0-1.695.334,3.466,3.466,0,0,0-1.25.949,4.232,4.232,0,0,0-.779,1.48,6.57,6.57,0,0,0-.265,1.926,5.634,5.634,0,0,0,.316,1.943,4.113,4.113,0,0,0,.907,1.472,3.951,3.951,0,0,0,1.43.932A5.212,5.212,0,0,0,248.508-67.8ZM246.6-74.613a1.855,1.855,0,0,1,1.652-.77,2.848,2.848,0,0,1,.966.162,3.27,3.27,0,0,1,.728.352v5.135c-.149.034-.34.066-.574.095a7.333,7.333,0,0,1-.847.042,2.215,2.215,0,0,1-1.8-.778,3.247,3.247,0,0,1-.65-2.149A3.678,3.678,0,0,1,246.6-74.613Z" transform="translate(-184.355 81.306)" fill="#393e43"/>
    <path id="Trazado_847" data-name="Trazado 847" d="M258.617-67.8a5.219,5.219,0,0,0,1.9-.325,3.9,3.9,0,0,0,1.429-.941,4.181,4.181,0,0,0,.907-1.48,5.627,5.627,0,0,0,.316-1.943,6.5,6.5,0,0,0-.265-1.909,4.385,4.385,0,0,0-.761-1.48,3.308,3.308,0,0,0-1.242-.949,4.08,4.08,0,0,0-1.685-.334,4.073,4.073,0,0,0-1.156.154,4.866,4.866,0,0,0-.881.342v-4.639l-2.072.342V-68.3a12.15,12.15,0,0,0,1.55.342A12.007,12.007,0,0,0,258.617-67.8Zm-1.436-7.086a2.934,2.934,0,0,1,.727-.341,2.953,2.953,0,0,1,.968-.155,1.853,1.853,0,0,1,1.651.77,3.677,3.677,0,0,1,.523,2.088,3.247,3.247,0,0,1-.652,2.149,2.214,2.214,0,0,1-1.8.778,7.341,7.341,0,0,1-.848-.042,5.719,5.719,0,0,1-.573-.095Z" transform="translate(-180.824 81.306)" fill="#393e43"/>
    <path id="Trazado_848" data-name="Trazado 848" d="M263.3-67.61a3.382,3.382,0,0,1-1.222-.24l-.375,1.66a3.148,3.148,0,0,0,.711.223,4.454,4.454,0,0,0,.951.1,4.492,4.492,0,0,0,1.268-.162,2.883,2.883,0,0,0,.994-.523,3.962,3.962,0,0,0,.806-.907,9.294,9.294,0,0,0,.7-1.318,65.305,65.305,0,0,0,3.213-9.243H268.2q-.393,1.61-.87,3.33t-1.022,3.244q-.326-.737-.653-1.593t-.619-1.72q-.29-.865-.541-1.7t-.42-1.558h-2.208a45.2,45.2,0,0,0,1.606,4.724q.9,2.226,1.883,4.108a3.154,3.154,0,0,1-.8,1.19A1.9,1.9,0,0,1,263.3-67.61Z" transform="translate(-178.736 82.347)" fill="#393e43"/>
  </g>
</svg>
