<svg xmlns="http://www.w3.org/2000/svg" xmlns:xlink="http://www.w3.org/1999/xlink" width="152.895" height="81.905" viewBox="0 0 152.895 81.905">
  <defs>
    <clipPath id="clip-path">
      <rect id="Rectángulo_1" data-name="Rectángulo 1" width="152.895" height="81.905" fill="none"/>
    </clipPath>
  </defs>
  <g id="Grupo_2" data-name="Grupo 2" transform="translate(0 5)">
    <g id="Grupo_1" data-name="Grupo 1" transform="translate(0 -5)" clip-path="url(#clip-path)">
      <path id="Trazado_1" data-name="Trazado 1" d="M238.45,18.427a22.747,22.747,0,0,1,12.4,6l5.47-5.4,7.335-7.428A40.708,40.708,0,0,0,236.346.077L245.5,10.639Z" transform="translate(-194.229 -0.063)" fill="#fbbc30"/>
      <path id="Trazado_2" data-name="Trazado 2" d="M86.116,22.651a22.726,22.726,0,0,1,13.645-4.526c.606,0,1.2.031,1.8.077l6.92-7.638L99.319,0A40.7,40.7,0,0,0,71.571,11.278l14.121,2.58Z" transform="translate(-58.817)" fill="#fbbc30"/>
      <path id="Trazado_3" data-name="Trazado 3" d="M26.169,80.523l-.418-8.669L11.7,69.286A40.714,40.714,0,0,0,.035,97l11-4.87,7.218,3.614a22.775,22.775,0,0,1,7.92-15.222" transform="translate(-0.029 -56.939)" fill="#ee8023"/>
      <path id="Trazado_4" data-name="Trazado 4" d="M18.116,209.833c0-.245.011-.487.019-.73l-7.319-3.6L0,210.361a40.709,40.709,0,0,0,11.45,27.852l5.544-9.566,6.781-3.778a22.734,22.734,0,0,1-5.659-15.036" transform="translate(0 -168.879)" fill="#ee8023"/>
      <path id="Trazado_5" data-name="Trazado 5" d="M97.169,326.564A22.752,22.752,0,0,1,81.962,319.8l-6.739,3.754-5.544,9.564a40.711,40.711,0,0,0,27.812,11.6L96.2,334.2Z" transform="translate(-57.262 -262.809)" fill="#ea5e31"/>
      <path id="Trazado_6" data-name="Trazado 6" d="M242.386,322.977a22.739,22.739,0,0,1-15.351,6.219l-.968,7.618,1.292,10.513A40.714,40.714,0,0,0,255.2,335.794Z" transform="translate(-185.781 -265.423)" fill="#ea5e31"/>
      <path id="Trazado_7" data-name="Trazado 7" d="M367.261,154a3,3,0,0,0,2.157-.9,3.064,3.064,0,0,0,0-4.327,3.016,3.016,0,0,0-4.306,0,3.064,3.064,0,0,0,0,4.326,3.006,3.006,0,0,0,2.149.9m0-5.726a2.606,2.606,0,0,1,1.869.788,2.669,2.669,0,0,1,0,3.741,2.6,2.6,0,0,1-3.73,0,2.649,2.649,0,0,1,0-3.741,2.6,2.6,0,0,1,1.861-.788" transform="translate(-299.315 -121.518)" fill="#525166"/>
      <path id="Trazado_8" data-name="Trazado 8" d="M413.585,152.816a1.683,1.683,0,0,0-.964-1.738,1.432,1.432,0,0,0,.449-.615,1.723,1.723,0,0,0,0-1.2h0a1.36,1.36,0,0,0-1.325-.894H409.3v5.964h2.669a1.58,1.58,0,0,0,1.613-1.52m-1.841-1.865h-2.033v-2.17h2.033a.97.97,0,0,1,.952.635,1.267,1.267,0,0,1,0,.9.971.971,0,0,1-.953.637m.228,2.985h-2.26v-2.576h2.26a1.206,1.206,0,0,1,1.221,1.288,1.375,1.375,0,0,1-.307.891,1.155,1.155,0,0,1-.914.4" transform="translate(-336.366 -121.932)" fill="#525166"/>
      <path id="Trazado_9" data-name="Trazado 9" d="M445.171,153.637c-.645,0-1.591-.36-1.676-1.166l-.028-.191-.406.049.028.193a1.957,1.957,0,0,0,2.074,1.515,2.338,2.338,0,0,0,1.8-.775,1.512,1.512,0,0,0,.294-1.313c-.211-.987-1.167-1.082-2.009-1.165-.883-.088-1.646-.163-1.713-1.069a1.061,1.061,0,0,1,.224-.775,1.8,1.8,0,0,1,1.38-.6,1.755,1.755,0,0,1,1.318.475,1.144,1.144,0,0,1,.275.548l.026.208.4-.079-.026-.2a1.654,1.654,0,0,0-1.342-1.283,2.366,2.366,0,0,0-2.354.687,1.467,1.467,0,0,0-.3,1.045c.086,1.243,1.136,1.349,2.063,1.442.813.082,1.515.152,1.666.847a1.131,1.131,0,0,1-.223.989,1.943,1.943,0,0,1-1.471.616" transform="translate(-364.108 -121.577)" fill="#525166"/>
      <path id="Trazado_10" data-name="Trazado 10" d="M481.465,154.335v-.4h-3.026v-2.381h2.944v-.408h-2.944v-2.374h3.009v-.4H478.03V154.2l.016.139Z" transform="translate(-392.846 -121.932)" fill="#525166"/>
      <path id="Trazado_11" data-name="Trazado 11" d="M508.6,148.734H510.3a1.4,1.4,0,1,1,0,2.8h-1.245v.122h-.035l.035.032v.169l2.7,2.445h.6l-2.619-2.367h.558a1.8,1.8,0,1,0,0-3.6H508.2V154.3h.4Z" transform="translate(-417.635 -121.894)" fill="#525166"/>
      <path id="Trazado_12" data-name="Trazado 12" d="M537.506,154.425l.03.077.03-.077h.138l2.4-6.053h-.437l-2.126,5.372-2.118-5.372h-.438l2.4,6.053Z" transform="translate(-439.648 -121.932)" fill="#525166"/>
      <path id="Trazado_13" data-name="Trazado 13" d="M567.861,151.669h2.692l.781,1.911h.436l-2.4-6.054h-.139l-.029-.074-.029.074h-.13l-2.4,6.054h.437Zm.166-.4,1.18-3.047,1.187,3.047Z" transform="translate(-465.674 -121.177)" fill="#525166"/>
      <path id="Trazado_14" data-name="Trazado 14" d="M600.383,154.3h.4v-5.564h1.969v-.408h-4.337v.408h1.968Z" transform="translate(-491.778 -121.894)" fill="#525166"/>
      <path id="Trazado_15" data-name="Trazado 15" d="M631.943,154a3.005,3.005,0,0,0,2.157-.9,3.065,3.065,0,0,0,0-4.327,3.016,3.016,0,0,0-4.306,0,3.065,3.065,0,0,0,0,4.326,3.007,3.007,0,0,0,2.15.9m0-5.726a2.606,2.606,0,0,1,1.869.788,2.669,2.669,0,0,1,0,3.741,2.6,2.6,0,0,1-3.73,0,2.649,2.649,0,0,1,0-3.741,2.6,2.6,0,0,1,1.861-.788" transform="translate(-516.831 -121.518)" fill="#525166"/>
      <path id="Trazado_16" data-name="Trazado 16" d="M674.386,148.734h1.707a1.4,1.4,0,1,1,0,2.8h-1.245v.122h-.035l.035.032v.169l2.7,2.445h.6l-2.619-2.367h.557a1.8,1.8,0,1,0,0-3.6h-2.107V154.3h.4Z" transform="translate(-553.883 -121.894)" fill="#525166"/>
      <path id="Trazado_17" data-name="Trazado 17" d="M708.573,153.935h-1.212v-5.171h1.212v-.392h-2.824v.392h1.212v5.171h-1.212v.4h2.824Z" transform="translate(-579.985 -121.932)" fill="#525166"/>
      <path id="Trazado_18" data-name="Trazado 18" d="M732.658,147.868a3.008,3.008,0,0,0-2.149.9,3.065,3.065,0,0,0,0,4.326,3.016,3.016,0,0,0,4.307,0,3.065,3.065,0,0,0,0-4.327,3.007,3.007,0,0,0-2.157-.9m0,5.726a2.6,2.6,0,0,1-1.861-.788,2.649,2.649,0,0,1,0-3.741,2.6,2.6,0,0,1,3.73,0,2.669,2.669,0,0,1,0,3.741,2.606,2.606,0,0,1-1.869.788" transform="translate(-599.598 -121.518)" fill="#525166"/>
      <path id="Trazado_19" data-name="Trazado 19" d="M804.11,153.4a3.092,3.092,0,0,0,.734-2.046,2.839,2.839,0,0,0-2.939-2.982h-2.059v5.964H801.9a2.831,2.831,0,0,0,2.2-.936m-2.2.535h-1.659v-5.163H801.9a2.456,2.456,0,0,1,2.539,2.582,2.689,2.689,0,0,1-.635,1.779,2.442,2.442,0,0,1-1.9.8" transform="translate(-657.314 -121.932)" fill="#525166"/>
      <path id="Trazado_20" data-name="Trazado 20" d="M839.136,153.935v-2.381h2.944v-.408h-2.944v-2.374h3.01v-.4h-3.418V154.2l.016.139h3.418v-.4Z" transform="translate(-689.267 -121.932)" fill="#525166"/>
      <path id="Trazado_21" data-name="Trazado 21" d="M370.794,205.157h-1.367l-.032.094a2.494,2.494,0,0,1-2.418,1.742,2.465,2.465,0,0,1-1.79-.781,2.7,2.7,0,0,1,0-3.743,2.465,2.465,0,0,1,1.79-.781,2.369,2.369,0,0,1,2.353,1.644l.033.093h1.377l-.044-.173a3.719,3.719,0,0,0-3.719-2.941,3.871,3.871,0,0,0-2.76,1.186l0,0a4.123,4.123,0,0,0,0,5.687,3.782,3.782,0,0,0,2.761,1.187,3.843,3.843,0,0,0,3.773-3.04Z" transform="translate(-298.378 -164.615)" fill="#525166"/>
      <path id="Trazado_22" data-name="Trazado 22" d="M413.36,201.148a4.093,4.093,0,0,0,0,5.756,4.028,4.028,0,0,0,5.751,0,4.094,4.094,0,0,0,0-5.757,4.028,4.028,0,0,0-5.749,0Zm2.87.192a2.686,2.686,0,0,1,0,5.371,2.686,2.686,0,0,1,0-5.371" transform="translate(-338.727 -164.311)" fill="#525166"/>
      <path id="Trazado_23" data-name="Trazado 23" d="M465.657,208.407h1.388v-5.068l3.462,5.008.041.06h1.092v-7.973h-1.378v5.112l-3.535-5.111-1.07-.014Z" transform="translate(-382.678 -164.706)" fill="#525166"/>
      <path id="Trazado_24" data-name="Trazado 24" d="M503.918,208.5v-6.694h2.319V200.5H500.2v1.311h2.33V208.5Z" transform="translate(-411.064 -164.767)" fill="#525166"/>
      <path id="Trazado_25" data-name="Trazado 25" d="M543.975,204.287h-1.436V205l2.877,3.463h1.8l-2.473-2.943a2.426,2.426,0,0,0,1.874-2.44,2.534,2.534,0,0,0-2.645-2.59h-2.942v7.973h1.378v-6.573h1.564a1.2,1.2,0,1,1,0,2.393" transform="translate(-444.622 -164.767)" fill="#525166"/>
      <path id="Trazado_26" data-name="Trazado 26" d="M583.218,208.013H584.7l-3.2-8.072h-1l-3.2,8.072h1.5l.034-.09c.184-.486.474-1.2.886-2.174h2.573Zm-1.454-3.587h-1.519l.768-2.157Z" transform="translate(-474.428 -164.312)" fill="#525166"/>
      <path id="Trazado_27" data-name="Trazado 27" d="M621.892,200.5h-6.038v1.311h2.33V208.5h1.388v-6.694h2.319Z" transform="translate(-506.109 -164.767)" fill="#525166"/>
      <path id="Trazado_28" data-name="Trazado 28" d="M650.019,199.941l-3.2,8.072h1.5l.034-.09c.184-.486.474-1.2.886-2.174h2.573l.924,2.264h1.486l-3.2-8.072Zm1.262,4.485h-1.519l.768-2.157Z" transform="translate(-531.557 -164.312)" fill="#525166"/>
      <path id="Trazado_29" data-name="Trazado 29" d="M696.251,205.251a2.5,2.5,0,0,1-2.418,1.742,2.465,2.465,0,0,1-1.79-.781,2.7,2.7,0,0,1,0-3.743,2.465,2.465,0,0,1,1.79-.781,2.369,2.369,0,0,1,2.353,1.644l.033.093H697.6l-.044-.174a3.719,3.719,0,0,0-3.718-2.941,3.871,3.871,0,0,0-2.76,1.186l0,0a4.124,4.124,0,0,0,0,5.687,3.782,3.782,0,0,0,2.761,1.186,3.842,3.842,0,0,0,3.773-3.04l.044-.173h-1.367Z" transform="translate(-566.989 -164.614)" fill="#525166"/>
      <path id="Trazado_30" data-name="Trazado 30" d="M738.172,201.934H739.6v5.2h-1.429v1.389h4.247V207.13h-1.429v-5.2h1.429v-1.378h-4.247Z" transform="translate(-606.63 -164.817)" fill="#525166"/>
      <path id="Trazado_31" data-name="Trazado 31" d="M771.931,193.251h.3l1.536-1.454h-1.918l-.979,1.454h.739a4.058,4.058,0,0,0-2.71,1.2h0a4.093,4.093,0,0,0,0,5.756,4.028,4.028,0,0,0,5.751,0,4.094,4.094,0,0,0,0-5.757,4.058,4.058,0,0,0-2.717-1.2m-.163,6.767a2.686,2.686,0,0,1,0-5.371,2.686,2.686,0,0,1,0,5.371" transform="translate(-630.91 -157.619)" fill="#525166"/>
      <path id="Trazado_32" data-name="Trazado 32" d="M825.8,205.546l-3.535-5.111-1.07-.014v7.986h1.389v-5.068l3.462,5.008.041.06h1.092v-7.973H825.8Z" transform="translate(-674.86 -164.706)" fill="#525166"/>
      <path id="Trazado_33" data-name="Trazado 33" d="M366.71,265.564h-2.953v7.973h1.4v-2.561h1.554a2.559,2.559,0,0,0,2.634-2.7,2.591,2.591,0,0,0-2.634-2.711m0,4.034h-1.554v-2.635h1.554a1.319,1.319,0,0,1,0,2.635" transform="translate(-298.936 -218.241)" fill="#525166"/>
      <path id="Trazado_34" data-name="Trazado 34" d="M413.219,258.629h1.361l1.536-1.455H414.2Z" transform="translate(-339.584 -211.346)" fill="#525166"/>
      <path id="Trazado_35" data-name="Trazado 35" d="M406.685,271.139c0,.738-.812,1.136-1.576,1.136s-1.586-.394-1.586-1.125v-5.526h-1.4v5.514a3.023,3.023,0,0,0,5.961.011v-5.526h-1.4Z" transform="translate(-330.465 -218.291)" fill="#525166"/>
      <path id="Trazado_36" data-name="Trazado 36" d="M448.848,269.187a1.9,1.9,0,0,0,.432-2.21,2.064,2.064,0,0,0-2-1.352h-3.338v7.962h3.613a2.342,2.342,0,0,0,2.371-2.458,2.144,2.144,0,0,0-1.079-1.941m-1.291,3.045h-2.235v-2.173h2.235a1.092,1.092,0,0,1,0,2.173m-.3-3.551h-1.938v-1.722h1.96a.767.767,0,0,1,.757.847.8.8,0,0,1-.779.875" transform="translate(-364.834 -218.291)" fill="#525166"/>
      <path id="Trazado_37" data-name="Trazado 37" d="M485.92,265.625h-1.389v7.962h5V272.2H485.92Z" transform="translate(-398.188 -218.291)" fill="#525166"/>
      <path id="Trazado_38" data-name="Trazado 38" d="M519.258,267h1.429v5.2h-1.429v1.388H523.5V272.2h-1.429V267H523.5v-1.378h-4.246Z" transform="translate(-426.727 -218.291)" fill="#525166"/>
      <path id="Trazado_39" data-name="Trazado 39" d="M553.517,270.32a2.494,2.494,0,0,1-2.418,1.741,2.464,2.464,0,0,1-1.79-.781,2.7,2.7,0,0,1,0-3.743,2.464,2.464,0,0,1,1.79-.782,2.369,2.369,0,0,1,2.353,1.644l.033.093h1.377l-.044-.174a3.719,3.719,0,0,0-3.718-2.941,3.871,3.871,0,0,0-2.76,1.186l0,0a4.124,4.124,0,0,0,0,5.688,3.782,3.782,0,0,0,2.761,1.186,3.843,3.843,0,0,0,3.773-3.04l.044-.173h-1.367Z" transform="translate(-449.69 -218.088)" fill="#525166"/>
      <path id="Trazado_40" data-name="Trazado 40" d="M595.984,265.009l-3.2,8.072h1.5l.034-.09c.185-.487.483-1.218.886-2.175h2.573l.923,2.264h1.486l-3.2-8.072Zm1.262,4.485h-1.519l.768-2.157Z" transform="translate(-487.151 -217.785)" fill="#525166"/>
      <path id="Trazado_41" data-name="Trazado 41" d="M179.816,207.63H157.926a1.111,1.111,0,1,0,0,2.222h21.889a1.111,1.111,0,1,0,0-2.222" transform="translate(-128.871 -170.631)" fill="#525166"/>
      <path id="Trazado_42" data-name="Trazado 42" d="M179.816,239.008H157.926a1.111,1.111,0,1,0,0,2.222h21.889a1.111,1.111,0,0,0,0-2.222" transform="translate(-128.871 -196.417)" fill="#525166"/>
      <path id="Trazado_43" data-name="Trazado 43" d="M179.816,270.384H157.926a1.111,1.111,0,1,0,0,2.222h21.889a1.111,1.111,0,1,0,0-2.222" transform="translate(-128.871 -222.202)" fill="#525166"/>
      <path id="Trazado_44" data-name="Trazado 44" d="M234.381,176.252H224.324a1.111,1.111,0,1,0,0,2.222h10.057a1.111,1.111,0,0,0,0-2.222" transform="translate(-183.437 -144.844)" fill="#525166"/>
    </g>
  </g>
</svg>
