<svg id="Grupo_3075" data-name="Grupo 3075" xmlns="http://www.w3.org/2000/svg" xmlns:xlink="http://www.w3.org/1999/xlink" width="51.867" height="51.867" viewBox="0 0 51.867 51.867">
  <defs>
    <clipPath id="clip-path">
      <rect id="Rectángulo_2251" data-name="Rectángulo 2251" width="51.867" height="51.867" fill="#fafafa"/>
    </clipPath>
  </defs>
  <g id="Grupo_3074" data-name="Grupo 3074" clip-path="url(#clip-path)">
    <path id="Trazado_2302" data-name="Trazado 2302" d="M25.934,51.867A25.933,25.933,0,1,1,51.867,25.934,25.963,25.963,0,0,1,25.934,51.867m0-49.121A23.188,23.188,0,1,0,49.122,25.934,23.214,23.214,0,0,0,25.934,2.745" fill="#fafafa"/>
    <path id="Trazado_2303" data-name="Trazado 2303" d="M59.3,51.761a8.4,8.4,0,0,1-4.924,2.425c-.123.049-.184.122-.184.22l.037,2.388a.439.439,0,0,1-.441.441H50.118a.439.439,0,0,1-.441-.441l.037-2.425c0-.1-.062-.172-.184-.221a8.746,8.746,0,0,1-4.905-2.572,6.96,6.96,0,0,1-1.782-4.887v-.809a.439.439,0,0,1,.441-.441h3.968a.439.439,0,0,1,.441.441v.551a3.05,3.05,0,0,0,1.286,2.481,5.564,5.564,0,0,0,3.527,1.01,3.994,3.994,0,0,0,2.774-.827,2.66,2.66,0,0,0,.9-2.039,2.131,2.131,0,0,0-.551-1.488A4.813,4.813,0,0,0,54.105,44.5q-.974-.459-3.068-1.268a27.851,27.851,0,0,1-4-1.727A8.3,8.3,0,0,1,44.294,39.1a6.183,6.183,0,0,1-1.12-3.767,6.649,6.649,0,0,1,1.709-4.685,8.12,8.12,0,0,1,4.611-2.407c.122-.049.184-.122.184-.22L49.6,25.341a.439.439,0,0,1,.441-.441h3.675a.439.439,0,0,1,.441.441L54.124,28.1c0,.1.061.172.184.221a8.536,8.536,0,0,1,4.851,2.664,7.259,7.259,0,0,1,1.8,4.979v.551a.44.44,0,0,1-.441.441h-4a.44.44,0,0,1-.441-.441v-.294a3.4,3.4,0,0,0-1.213-2.627,4.784,4.784,0,0,0-3.307-1.084,4.02,4.02,0,0,0-2.572.735,2.448,2.448,0,0,0-.919,2.021,2.3,2.3,0,0,0,.533,1.544,4.814,4.814,0,0,0,1.6,1.139q1.065.515,3.307,1.323a37.96,37.96,0,0,1,3.895,1.653,7.756,7.756,0,0,1,2.572,2.2,6,6,0,0,1,1.139,3.785,6.791,6.791,0,0,1-1.8,4.85" transform="translate(-26.041 -15.135)" fill="#fafafa"/>
  </g>
</svg>
