<svg xmlns="http://www.w3.org/2000/svg" width="53.595" height="50.207" viewBox="0 0 53.595 50.207">
  <g id="Grupo_3145" data-name="Grupo 3145" transform="translate(-464.5 -508)">
    <path id="Trazado_2366" data-name="Trazado 2366" d="M513.794,508h-42.21a4.306,4.306,0,0,0-4.3,4.3v2.441A4.3,4.3,0,0,0,471,519v17.409a11.463,11.463,0,1,0,15.218,15.448h22.424a5.837,5.837,0,0,0,5.831-5.831V518.983a4.3,4.3,0,0,0,3.618-4.242V512.3A4.306,4.306,0,0,0,513.794,508Zm-37.829,47.686a8.944,8.944,0,1,1,8.944-8.944A8.954,8.954,0,0,1,475.964,555.686Zm32.681-6.351H487.13a11.459,11.459,0,0,0-13.605-13.793v-16.5h38.432v26.981A3.314,3.314,0,0,1,508.646,549.335Zm6.928-34.593a1.782,1.782,0,0,1-1.78,1.781h-42.21a1.782,1.782,0,0,1-1.78-1.781V512.3a1.782,1.782,0,0,1,1.78-1.78h42.21a1.782,1.782,0,0,1,1.78,1.78Z" transform="translate(0 0)" fill="#fafafa"/>
    <path id="Trazado_2367" data-name="Trazado 2367" d="M485.707,585.373a1.219,1.219,0,0,0-.177-.145c-.019-.013-.038-.025-.058-.036a1.254,1.254,0,0,0-.144-.076c-.02-.009-.04-.019-.061-.026a1.3,1.3,0,0,0-.209-.062l-.015,0a1.254,1.254,0,0,0-.2-.019h-.064a1.291,1.291,0,0,0-.16.015l-.066.011a1.327,1.327,0,0,0-.18.053l-.034.011h0a1.23,1.23,0,0,0-.192.1c-.017.011-.033.023-.05.035a1.244,1.244,0,0,0-.139.114c-.009.008-.019.014-.028.023l-3.79,3.79a1.26,1.26,0,0,0,1.782,1.783l1.639-1.639v7.461a1.26,1.26,0,0,0,2.521,0v-7.46l1.6,1.6a1.26,1.26,0,0,0,1.782-1.783Z" transform="translate(-8.852 -44.653)" fill="#fafafa"/>
    <path id="Trazado_2368" data-name="Trazado 2368" d="M524.885,545.789H509.447a1.681,1.681,0,1,0,0,3.361h15.439a1.681,1.681,0,1,0,0-3.361Z" transform="translate(-25.088 -21.912)" fill="#fafafa"/>
  </g>
</svg>
