<svg id="Grupo_3106" data-name="Grupo 3106" xmlns="http://www.w3.org/2000/svg" xmlns:xlink="http://www.w3.org/1999/xlink" width="21.339" height="21.328" viewBox="0 0 21.339 21.328">
  <defs>
    <clipPath id="clip-path">
      <rect id="Rectángulo_2280" data-name="Rectángulo 2280" width="21.339" height="21.328" fill="#ea5e31"/>
    </clipPath>
  </defs>
  <g id="Grupo_3105" data-name="Grupo 3105" clip-path="url(#clip-path)">
    <path id="Trazado_2355" data-name="Trazado 2355" d="M66.8,40.674a.646.646,0,0,0,.912-.058,3.149,3.149,0,0,0-4.728-4.161.646.646,0,1,0,.97.854,1.857,1.857,0,0,1,2.788,2.454.646.646,0,0,0,.058.912" transform="translate(-52.674 -29.673)" fill="#ea5e31"/>
    <path id="Trazado_2356" data-name="Trazado 2356" d="M55.709,19.038a4.5,4.5,0,0,1,6.761,5.95.646.646,0,0,0,.97.854,5.8,5.8,0,0,0-8.7-7.657.646.646,0,0,0,.97.854" transform="translate(-45.763 -13.601)" fill="#ea5e31"/>
    <path id="Trazado_2357" data-name="Trazado 2357" d="M20.425,15.656c-.886-.528-1.791-1.056-2.666-1.566q-.851-.5-1.7-.994a1.8,1.8,0,0,0-1.951.024c-.279.17-.56.335-.842.5s-.541.318-.809.48c-.214.13-.376.154-.671-.074A25.344,25.344,0,0,1,7.327,9.575c-.243-.312-.217-.484-.078-.709.157-.253.308-.511.454-.76.155-.265.316-.539.479-.8a1.907,1.907,0,0,0,.025-2.1c-.45-.756-.9-1.53-1.338-2.279Q6.3,1.955,5.726.98A1.8,1.8,0,0,0,3.33.173,5.258,5.258,0,0,0,.364,3.209a6.094,6.094,0,0,0,.49,5.058,23.227,23.227,0,0,0,4.369,5.921,33.132,33.132,0,0,0,6.666,5.665,8.581,8.581,0,0,0,4.277,1.475h.014a5.457,5.457,0,0,0,5.009-3.364,1.779,1.779,0,0,0-.765-2.308m-.449,1.863a4.183,4.183,0,0,1-3.8,2.517,7.4,7.4,0,0,1-3.623-1.288,31.961,31.961,0,0,1-6.4-5.45A22.072,22.072,0,0,1,2.019,7.711c-.791-1.657-.928-2.858-.458-4.016A4.009,4.009,0,0,1,3.814,1.371a.938.938,0,0,1,.341-.083c.186,0,.316.109.458.349q.574.97,1.14,1.945c.438.751.891,1.527,1.343,2.288a.618.618,0,0,1-.009.75c-.173.277-.339.559-.5.833-.144.245-.287.491-.437.732a1.786,1.786,0,0,0,.156,2.183,26.643,26.643,0,0,0,4.685,4.678,1.763,1.763,0,0,0,2.134.157c.262-.159.527-.315.792-.47.288-.169.577-.338.862-.512a.522.522,0,0,1,.623-.013q.851.5,1.7,1c.873.509,1.775,1.035,2.656,1.559.26.155.371.321.212.753" transform="translate(0 0)" fill="#ea5e31"/>
  </g>
</svg>
