<?xml version="1.0" encoding="utf-8"?>
<!-- Generator: Adobe Illustrator 26.5.0, SVG Export Plug-In . SVG Version: 6.00 Build 0)  -->
<svg version="1.1" id="Capa_1" xmlns="http://www.w3.org/2000/svg" xmlns:xlink="http://www.w3.org/1999/xlink" x="0px" y="0px"
	 viewBox="0 0 500 500" style="enable-background:new 0 0 500 500;" xml:space="preserve">
<style type="text/css">
	.st0{fill:#FAFAFA;}
</style>
<g>
	<path class="st0" d="M215.4,141.3h70.5c5.5,0,10-4.5,10-10c0-5.5-4.5-10-10-10h-70.5c-5.5,0-10,4.5-10,10
		C205.4,136.8,209.9,141.3,215.4,141.3z"/>
	<path class="st0" d="M450.5,330.5l-32.8-47c0.3-0.9,0.5-1.9,0.5-3V46.9c0-22-17.9-39.9-39.9-39.9H122c-22,0-39.9,17.9-39.9,39.9
		v228.2c0,1.6,0.4,3.2,1.1,4.5l-34.1,53c-9.1,14.2-5,33.2,9.2,42.3l4.1,2.6c5.1,3.3,10.9,4.9,16.5,4.9c7.3,0,14.5-2.6,20.1-7.6
		l15.5,17.5l-2,2.8c-7.5,10.4-5.2,24.9,5.2,32.4h0c3.4,2.4,7.2,3.8,11.2,4.2c-0.2,7.8,3.2,15.5,10,20.4l1.7,1.2
		c4.2,3,9.1,4.6,14.1,4.6c1.3,0,2.6-0.1,3.9-0.3c0.4-0.1,0.8-0.2,1.2-0.3c1.3,5.4,4.4,10.1,9,13.4l1,0.7c4.1,2.9,8.8,4.5,13.8,4.5
		c1.3,0,2.5-0.1,3.8-0.3c0.5-0.1,1-0.3,1.5-0.4c1.4,5.3,4.4,10,8.9,13.3l2.2,1.6c4.1,2.9,8.8,4.5,13.8,4.5c1.3,0,2.5-0.1,3.8-0.3
		c6.2-1,11.7-4.4,15.4-9.5l0.6-0.9c0.1,0,0.2,0.1,0.2,0.1c0.3,0.1,7.2,2.5,30.8,9.4c3.1,0.9,6.2,1.4,9.1,1.4c4.9,0,9.6-1.2,13.8-3.6
		c8.6-4.8,13.7-13.4,16.4-19.5c6.1-0.2,11.3-1.6,15.2-3.4c8.6-4,15-12.3,17.3-15.6c5.5-0.9,10.2-3.5,13.9-7.7
		c4-4.7,5.9-9.7,6.7-14.3c7.2-0.3,14.3-4.3,21.3-12.2c4.1-4.6,6-10.2,5.5-16.2c-0.3-3.1-1.2-6-2.4-8.7c8.3-6.1,16-14.1,20.7-19.2
		c5.5,4.5,12.4,6.9,19.3,6.9c6.1,0,12.2-1.8,17.5-5.5l4-2.8C456.8,363.5,460.2,344.4,450.5,330.5z M213.4,27h73.4v51.8l-28-14.7
		c-2.7-1.4-5.9-1.5-8.7-0.3L213.4,80V27z M102.1,46.9c0-11,9-20,19.9-20h71.4v68.4c0,3.4,1.7,6.5,4.5,8.4c1.6,1.1,3.5,1.6,5.5,1.6
		c1.4,0,2.7-0.3,4-0.8L253.9,84l38.4,20.2c3.1,1.6,6.8,1.5,9.8-0.3c3-1.8,4.8-5.1,4.8-8.5V27h71.4c11,0,19.9,9,19.9,20v208.8
		l-7.4-10.6c-4.7-6.7-11.7-11.2-19.7-12.6c-8-1.4-16.2,0.4-22.9,5.1l-4,2.8c-9.9,6.9-14.4,18.6-12.7,29.8c-6.9,0.3-16.1,0.3-25.5-1
		c-3.6-0.5-7.2-1.2-10.9-2c-16.4-3.3-35-7.1-73.9,1.9c-3.7,0.9-7.1,2.4-10.1,4.5c-2.3,1.6-5.7,4.2-9.8,7.9
		c-3.4-0.7-8.1-1.5-14.9-2.5c-8.9-1.4-16.5-3.9-21.6-5.8c1.5-4.9,1.7-10.2,0.6-15.3c-1.7-8-6.5-14.8-13.3-19.3l-4.1-2.6
		c-6.9-4.4-15.1-5.9-23.1-4.2c-8,1.7-14.8,6.5-19.3,13.3l-3.5,5.4V46.9z M367.5,376.3c-49.3-39.4-113.9-72.4-116.6-73.8
		c-2.4-1.2-5.2-1.3-7.7-0.2l-15.5,6.8c-1.6,0.7-3,1.9-4,3.4c-0.1,0.1-6.5,10.2-19.1,20.2c-7.1,5.7-17.8,7.8-20.9,6.6
		c-0.1-1,0.1-4.2,3.6-10.8c12.1-23.1,27.8-35.8,34.1-40.2c1.2-0.8,2.5-1.4,3.9-1.7c35.1-8.2,50.9-4.9,66.2-1.8
		c3.9,0.8,7.9,1.6,12,2.2c14.6,2.1,28.8,1.3,36.3,0.6l50.9,72.8c-4.3,5-12.2,13.3-19.9,18.9C369.2,377.7,367.9,376.6,367.5,376.3z
		 M72.1,362.5l-4.1-2.6c-5.9-3.8-7.6-11.6-3.8-17.5l56.5-87.7c1.8-2.8,4.6-4.8,7.9-5.5c0.9-0.2,1.8-0.3,2.7-0.3c2.4,0,4.8,0.7,6.8,2
		c0,0,0,0,0,0l4.1,2.6c2.8,1.8,4.8,4.6,5.5,7.9c0.7,3.3,0.1,6.7-1.7,9.5l-56.5,87.7C85.8,364.6,78,366.3,72.1,362.5z M125.8,404.9
		l9.9-13.7c2.2-3.1,6.5-3.7,9.5-1.5c3.1,2.2,3.7,6.5,1.5,9.5l-9.9,13.7c-1.1,1.5-2.6,2.5-4.4,2.7c-1.8,0.3-3.6-0.1-5.1-1.2
		C124.3,412.2,123.6,408,125.8,404.9z M156.1,441.7c-2.1,0.3-4.1-0.2-5.8-1.4c0,0,0,0,0,0l-1.7-1.2c-3.5-2.5-4.3-7.4-1.8-10.9
		l26.6-36.8c1.2-1.7,3-2.8,5.1-3.1c0.4-0.1,0.8-0.1,1.3-0.1c1.6,0,3.2,0.5,4.6,1.5l1.7,1.3c3.5,2.5,4.3,7.4,1.8,10.9l-26.6,36.8
		C160,440.3,158.2,441.4,156.1,441.7z M184.9,459.8c-1.9,0.3-3.8-0.1-5.4-1.3c0,0,0,0,0,0l-1-0.7c-1.6-1.1-2.6-2.8-2.9-4.7
		c-0.3-1.9,0.1-3.8,1.3-5.4l20.7-28.7c1.4-1.9,3.6-3,5.9-3c1.5,0,2.9,0.4,4.2,1.4l1,0.7c1.6,1.1,2.6,2.8,2.9,4.7
		c0.3,1.9-0.1,3.8-1.3,5.4l-20.7,28.7C188.4,458.5,186.8,459.5,184.9,459.8z M215.1,478.5c-1.9,0.3-3.8-0.1-5.4-1.3c0,0,0,0,0,0
		l-2.2-1.6c-1.6-1.1-2.6-2.8-2.9-4.7c-0.3-1.9,0.1-3.8,1.3-5.4l12.4-17.1c1.1-1.6,2.8-2.6,4.7-2.9c0.4-0.1,0.8-0.1,1.2-0.1
		c1.5,0,3,0.5,4.2,1.4l2.3,1.6c3.2,2.3,3.9,6.8,1.6,10.1l-12.4,17.1C218.7,477.1,217,478.2,215.1,478.5z M365,406.8
		c-6.9,7.7-9.3,6.9-12.7,4.7c-0.3-0.2-0.6-0.4-0.9-0.6c-8.2-5.5-57.1-35.4-59.2-36.6c-4.2-2.6-9.8-1.2-12.4,3
		c-2.6,4.2-1.2,9.8,3,12.4c0.5,0.3,44.5,27.1,56.5,34.9c0.4,2.2,0.4,5.8-2.5,9.1c-3.8,4.4-14,0-19.4-3.3
		c-6.9-4.1-43.1-26.4-43.4-26.6c-4.2-2.6-9.8-1.3-12.4,2.9c-2.6,4.2-1.3,9.8,2.9,12.4c1.5,0.9,36.6,22.5,43.6,26.7
		c2.6,1.5,5.1,2.8,7.6,3.9c-1.3,1.1-2.6,2.1-3.9,2.7c-5.8,2.7-16.1,3.7-32.1-6.4c-8.1-5.1-14.9-12.8-14.9-12.9
		c-3.3-3.7-8.9-4.2-12.7-0.9c-3.7,3.3-4.2,8.9-0.9,12.7c0.3,0.4,8.5,9.8,19,16.3c5.5,3.5,10.6,5.9,15.4,7.6
		c-1.7,2.8-3.9,5.6-6.7,7.1c-2.6,1.5-5.5,1.7-9,0.6c-12.8-3.8-20.6-6.1-25-7.5l0.7-1c7.6-10.5,5.2-25.3-5.3-32.9l-2.3-1.6
		c-3.2-2.3-6.7-3.7-10.5-4.2c0.7-2.9,0.8-5.9,0.3-9c-1-6.2-4.4-11.7-9.5-15.4l-1-0.7c-3.6-2.6-7.6-4-11.7-4.3
		c0.9-8.4-2.6-17-9.9-22.2l-1.7-1.3c-5.2-3.8-11.7-5.3-18-4.3c-6.4,1-11.9,4.5-15.7,9.7c-1.4-2-3.2-3.9-5.3-5.4
		c-9-6.5-21.2-5.6-29.1,1.6l-15.4-17.5c-0.1-0.1-0.2-0.2-0.3-0.3l45.9-71.3c6,2.5,15.8,5.9,27.7,7.8c1,0.2,1.9,0.3,2.8,0.4
		c-5.1,6.4-10.4,14-15.1,23c-9.8,18.7-5,28.2,0.6,32.9c11.4,9.4,33.2,2.2,43.8-6.3c11.3-9,18.4-18.1,21.4-22.3l9.2-4
		c14.6,7.7,68.6,36.9,109.8,69.8c3.7,3,9.4,9.5,9.8,13.8C366,405,365.9,405.7,365,406.8z M437.9,350.3c-0.6,3.3-2.4,6.2-5.2,8.2
		c0,0,0,0,0,0l-4,2.8c-5.7,4-13.6,2.6-17.6-3.1l-59-84.4c-0.2-0.5-0.5-0.9-0.9-1.3c-1.8-2.7-2.5-6-2-9.2c0.6-3.3,2.4-6.2,5.2-8.2
		l4-2.8c2.1-1.5,4.6-2.3,7.2-2.3c0.7,0,1.5,0.1,2.2,0.2c3.3,0.6,6.2,2.4,8.2,5.2l59.8,85.5C437.7,343.6,438.5,347,437.9,350.3z"/>
</g>
</svg>
