<svg xmlns="http://www.w3.org/2000/svg" xmlns:xlink="http://www.w3.org/1999/xlink" width="610.809" height="610.162" viewBox="0 0 610.809 610.162">
  <defs>
    <clipPath id="clip-path">
      <rect id="Rectángulo_2256" data-name="Rectángulo 2256" width="610.809" height="610.162" fill="#202020"/>
    </clipPath>
  </defs>
  <g id="Grupo_3149" data-name="Grupo 3149" opacity="0.2">
    <g id="Grupo_3084" data-name="Grupo 3084" clip-path="url(#clip-path)">
      <path id="Trazado_2318" data-name="Trazado 2318" d="M334.079,70.715c-.042-.231-.069-.466-.12-.692a13.471,13.471,0,0,0-.7-2.275l-.014-.028c-.055-.138-.134-.258-.2-.4a13.482,13.482,0,0,0-.955-1.763c-.138-.212-.291-.415-.443-.623a14.034,14.034,0,0,0-1.1-1.338c-.166-.175-.328-.355-.5-.521a12.917,12.917,0,0,0-1.694-1.4c-.055-.041-.106-.092-.166-.129a13.605,13.605,0,0,0-2.086-1.135c-.231-.1-.466-.18-.7-.272a13.963,13.963,0,0,0-1.684-.521c-.245-.06-.494-.125-.748-.171a13.908,13.908,0,0,0-2.492-.249H262.259a13.843,13.843,0,0,0,0,27.687h24.789l-5.736,5.731-.009.009L4.794,369.142a13.841,13.841,0,1,0,19.575,19.575L300.877,112.208l.014-.009,5.736-5.736v25.458a13.843,13.843,0,0,0,27.687,0V73.045c0-.143-.037-.272-.042-.415a14.086,14.086,0,0,0-.194-1.915" transform="translate(2.667 213.984)" fill="#202020"/>
      <path id="Trazado_2319" data-name="Trazado 2319" d="M207.547,105.215c-.042-.231-.069-.466-.12-.692a13.474,13.474,0,0,0-.7-2.275l-.014-.028c-.055-.138-.134-.258-.2-.4a13.478,13.478,0,0,0-.955-1.763c-.138-.212-.291-.415-.443-.623a14.044,14.044,0,0,0-1.1-1.338c-.166-.175-.328-.355-.5-.521a12.916,12.916,0,0,0-1.694-1.4c-.055-.041-.106-.092-.166-.129a13.59,13.59,0,0,0-2.086-1.135c-.231-.1-.466-.18-.7-.272a13.921,13.921,0,0,0-1.684-.521c-.245-.06-.494-.125-.748-.171a13.906,13.906,0,0,0-2.492-.249H135.727a13.843,13.843,0,1,0,0,27.687h24.789l-5.736,5.731-.009.014L34.056,247.849a13.843,13.843,0,1,0,19.579,19.575l120.71-120.715.014-.009,5.736-5.736v25.458a13.843,13.843,0,0,0,27.687,0V107.545c0-.143-.037-.272-.042-.415a14.1,14.1,0,0,0-.194-1.915" transform="translate(108.434 338.683)" fill="#202020"/>
      <path id="Trazado_2320" data-name="Trazado 2320" d="M13.843,242.483a13.794,13.794,0,0,0,9.787-4.056L144.345,117.712l.009-.014,5.736-5.736V137.42a13.843,13.843,0,1,0,27.687,0V78.544c0-.138-.032-.272-.037-.411a14.874,14.874,0,0,0-.194-1.915c-.042-.235-.069-.466-.12-.7a13.738,13.738,0,0,0-.7-2.275l-.014-.023c-.055-.138-.138-.263-.2-.4a13.516,13.516,0,0,0-.96-1.763c-.138-.217-.291-.42-.438-.628a13.365,13.365,0,0,0-1.107-1.334c-.162-.18-.323-.355-.5-.526a14.411,14.411,0,0,0-1.693-1.4c-.055-.037-.106-.088-.166-.129a14,14,0,0,0-2.086-1.131c-.231-.1-.466-.185-.706-.272a12.885,12.885,0,0,0-1.68-.521c-.249-.06-.494-.125-.748-.171a13.6,13.6,0,0,0-2.5-.254H105.722a13.843,13.843,0,0,0,0,27.687h24.789l-5.731,5.731-.009.014L4.056,218.852a13.841,13.841,0,0,0,9.787,23.631" transform="translate(0 233.86)" fill="#202020"/>
      <path id="Trazado_2321" data-name="Trazado 2321" d="M363.456,106.992a13.852,13.852,0,0,0-11.176-9.423L266.82,85.152,228.607,7.716a13.847,13.847,0,0,0-24.831,0L165.56,85.152,80.1,97.569a13.841,13.841,0,0,0-7.669,23.612l61.839,60.279-14.6,85.109a13.844,13.844,0,0,0,20.087,14.6l76.439-40.187,76.434,40.187a13.842,13.842,0,0,0,20.087-14.6l-14.6-85.109,61.838-60.279a13.848,13.848,0,0,0,3.507-14.189m-89.881,59.72a13.849,13.849,0,0,0-3.982,12.256L280.682,243.6l-58.046-30.515a13.838,13.838,0,0,0-12.888,0l-58.05,30.52,11.089-64.64a13.849,13.849,0,0,0-3.982-12.256l-46.962-45.776,64.9-9.432a13.839,13.839,0,0,0,10.419-7.572L216.19,45.121l29.025,58.811a13.85,13.85,0,0,0,10.419,7.572l64.9,9.432Z" transform="translate(246.679 0.004)" fill="#202020"/>
      <path id="Trazado_2322" data-name="Trazado 2322" d="M60.728,129.745l-8.541,49.8a13.845,13.845,0,0,0,20.091,14.591L117,170.624l44.719,23.511A13.841,13.841,0,0,0,181.8,179.544l-8.537-49.8,36.177-35.264a13.843,13.843,0,0,0-7.674-23.612l-50-7.268L129.414,18.3a13.843,13.843,0,0,0-24.831,0L82.222,63.6l-50,7.268A13.84,13.84,0,0,0,24.55,94.481Zm32.68-39.791a13.847,13.847,0,0,0,10.424-7.572L117,55.7l13.165,26.681a13.85,13.85,0,0,0,10.424,7.572l29.44,4.278L148.726,115a13.849,13.849,0,0,0-3.982,12.256l5.03,29.325-26.33-13.843a13.838,13.838,0,0,0-12.888,0L84.22,156.578l5.03-29.325A13.852,13.852,0,0,0,85.263,115l-21.3-20.765Z" transform="translate(73.618 38.227)" fill="#202020"/>
      <path id="Trazado_2323" data-name="Trazado 2323" d="M260.771,128.869l-50-7.263L188.411,76.291a13.843,13.843,0,0,0-24.826,0l-22.362,45.314-50,7.263a13.84,13.84,0,0,0-7.669,23.612l36.177,35.268-8.541,49.795a13.845,13.845,0,0,0,20.091,14.591L176,228.624l44.714,23.511A13.843,13.843,0,0,0,240.8,237.544l-8.541-49.795,36.177-35.268a13.84,13.84,0,0,0-7.669-23.612M207.727,173a13.853,13.853,0,0,0-3.982,12.256l5.03,29.32-26.33-13.843a13.865,13.865,0,0,0-12.888,0l-26.335,13.848,5.025-29.325A13.853,13.853,0,0,0,144.265,173l-21.3-20.765,29.445-4.278a13.861,13.861,0,0,0,10.424-7.568L176,113.7l13.165,26.686a13.845,13.845,0,0,0,10.419,7.568l29.445,4.278Z" transform="translate(286.875 247.866)" fill="#202020"/>
    </g>
  </g>
</svg>
