<svg xmlns="http://www.w3.org/2000/svg" xmlns:xlink="http://www.w3.org/1999/xlink" width="59.213" height="57.89" viewBox="0 0 59.213 57.89">
  <defs>
    <clipPath id="clip-path">
      <rect id="Rect치ngulo_2254" data-name="Rect치ngulo 2254" width="37" height="37" transform="translate(-0.223 -0.223)" fill="#ea5e31"/>
    </clipPath>
  </defs>
  <g id="Grupo_3128" data-name="Grupo 3128" transform="translate(-1260 -1369)">
    <path id="Rect치ngulo_2218" data-name="Rect치ngulo 2218" d="M28.964,0h.422c.234,0,.466.009.7.018h0l.07,0h.157l.408.022A2.633,2.633,0,0,1,30.4,5.31c-.476-.028-.961-.043-1.441-.043a2.646,2.646,0,0,1-.495-.046,2.647,2.647,0,0,1-.492.067c-.478.02-.961.054-1.435.1A2.633,2.633,0,0,1,26.007.149l.269-.026h.012a.439.439,0,0,0,.044,0h.047l.017,0h.051l.026,0H26.5Q27.107.052,27.72.026h.039l.113,0a2.634,2.634,0,0,1,.493.046,2.64,2.64,0,0,1,.6-.069ZM41.238,3.027a2.622,2.622,0,0,1,1.227.3h0q.65.343,1.28.718h0l.034.02.01.006.01.006.01.006.01.006.01.006.011.007,0,0,.149.09a2.633,2.633,0,0,1-2.739,4.5c-.407-.248-.828-.486-1.249-.708a2.634,2.634,0,0,1,1.231-4.963Zm9.443,8.411a2.631,2.631,0,0,1,2.173,1.142q.5.723.95,1.476a2.633,2.633,0,1,1-4.513,2.715c-.246-.408-.507-.815-.777-1.208a2.634,2.634,0,0,1,2.168-4.125ZM55.124,23.27A2.634,2.634,0,0,1,57.737,25.6q.1.867.149,1.749a2.633,2.633,0,0,1-5.259.289c-.026-.477-.067-.96-.122-1.433a2.635,2.635,0,0,1,2.619-2.936Zm-1.058,12.8a2.635,2.635,0,0,1,2.512,3.426c-.029.092-.059.184-.089.276h0l0,.009v0l0,.008v0l0,.008,0,.011,0,.005,0,.007v0l0,.009v0q-.173.521-.365,1.034h0l-.014.038h0l0,.011v0l0,.01v0l0,.009,0,0,0,.01,0,0,0,.007,0,.006,0,.006,0,.006,0,0-.006.015v0l0,.008v0l0,.009v0l-.047.122a2.633,2.633,0,0,1-4.912-1.9c.172-.444.331-.9.475-1.352A2.634,2.634,0,0,1,54.066,36.068ZM47.45,46.842A2.633,2.633,0,0,1,49.3,51.35l-.015.015h0l-.007.007h0l-.021.021,0,0-.005.005,0,0-.005,0,0,0-.005.005-.007.007,0,0-.006.006,0,0-.007.007,0,0-.019.018h0l-.009.009h0l-.029.028h0q-.551.535-1.13,1.041a2.633,2.633,0,1,1-3.465-3.966c.359-.314.714-.643,1.054-.978A2.625,2.625,0,0,1,47.45,46.842ZM36.585,53.3a2.634,2.634,0,0,1,.762,5.154l-.087.026-.011,0-.011,0-.015,0-.013,0-.012,0-.012,0-.012,0-.025.007h0l-.011,0h0q-.485.142-.977.268h0l-.014,0-.013,0h-.006l-.028.007h0q-.225.057-.452.111a2.633,2.633,0,0,1-1.2-5.127c.463-.109.929-.235,1.384-.372A2.633,2.633,0,0,1,36.585,53.3ZM22.393,53.6a2.639,2.639,0,0,1,.657.083c.461.118.932.224,1.4.314a2.633,2.633,0,0,1-.992,5.172l-.131-.026-.011,0-.011,0-.015,0-.013,0-.012,0h0q-.485-.1-.965-.21l-.012,0-.012,0-.012,0-.016,0-.011,0-.011,0q-.247-.059-.492-.122a2.634,2.634,0,0,1,.661-5.183Zm-11.121-6a2.624,2.624,0,0,1,1.769.683c.353.321.721.635,1.093.934a2.633,2.633,0,0,1-3.293,4.11c-.147-.118-.292-.237-.437-.358h0l-.007-.006h0l-.007-.006,0,0-.013-.011-.008-.006-.009-.007-.01-.008-.007-.006,0,0-.009-.008-.01-.009,0,0-.007-.006,0,0-.02-.017,0,0-.009-.007h0l-.01-.008h0l-.02-.017h0l-.009-.007h0l-.03-.026h0l-.01-.008h0l-.03-.026h0l-.01-.008h0l-.031-.026h0l-.03-.026h0l-.009-.008h0l-.01-.008h0l-.02-.017h0l-.008-.007,0,0-.009-.007h0l-.01-.009h0l-.009-.008,0,0L10,52.615l-.01-.009,0,0L9.974,52.6l-.009-.008-.009-.008-.006,0,0,0-.021-.018h0l-.008-.007h0q-.212-.185-.42-.374a2.633,2.633,0,0,1,1.776-4.579ZM4.213,37.1a2.634,2.634,0,0,1,2.474,1.733c.163.447.342.9.532,1.332a2.633,2.633,0,0,1-4.829,2.1q-.34-.781-.635-1.586v0l-.017-.045A2.635,2.635,0,0,1,4.213,37.1ZM2.7,24.358q.1,0,.2.007A2.633,2.633,0,0,1,5.33,27.186c-.035.476-.056.96-.063,1.438A2.633,2.633,0,0,1,0,28.557c.008-.593.034-1.182.078-1.766A2.633,2.633,0,0,1,2.7,24.358ZM6.647,12.352a2.634,2.634,0,0,1,2.228,4.034c-.254.4-.5.821-.726,1.239A2.633,2.633,0,0,1,3.524,15.1c.063-.116.127-.23.192-.345v0l0-.008v0l.013-.024.006-.01,0-.006,0,0,0-.008,0,0,.006-.011v0l0-.008,0,0,.005-.009v0l.013-.023h0l.006-.011h0q.3-.524.62-1.034A2.631,2.631,0,0,1,6.647,12.352Zm9.087-8.794a2.634,2.634,0,0,1,1.327,4.909c-.412.24-.822.5-1.219.76a2.633,2.633,0,0,1-2.921-4.382l.01-.007.01-.007.011-.007.012-.008,0,0,.008-.006,0,0,.008-.005,0,0L13,4.792h0l.034-.022h0q.675-.445,1.375-.853A2.621,2.621,0,0,1,15.734,3.557Z" transform="translate(1260 1426.89) rotate(-90)" fill="#525166"/>
    <g id="Grupo_3109" data-name="Grupo 3109" transform="translate(1271.041 1379.142)">
      <g id="Grupo_3080" data-name="Grupo 3080" transform="translate(0.182 0.08)" clip-path="url(#clip-path)">
        <path id="Trazado_2314" data-name="Trazado 2314" d="M18.4,0A18.4,18.4,0,1,0,36.8,18.4,18.423,18.423,0,0,0,18.4,0m0,35.131A16.729,16.729,0,1,1,35.131,18.4,16.748,16.748,0,0,1,18.4,35.131" transform="translate(-0.152 -0.182)" fill="#ea5e31"/>
        <path id="Trazado_2315" data-name="Trazado 2315" d="M64.188,35.312a.836.836,0,0,0-.836.836v1.5l-.347-.347h0L58.555,32.85a4.173,4.173,0,0,0-2.536-6.561V19.86l1.088,1.088a.837.837,0,0,0,1.183-1.183l-2.516-2.515c-.006-.006-.013-.01-.018-.015a.826.826,0,0,0-.092-.075l-.033-.023a.819.819,0,0,0-.128-.067h0l-.023-.008a.833.833,0,0,0-.118-.035l-.045-.008a.846.846,0,0,0-.106-.01h-.042a.815.815,0,0,0-.138.013h-.006a.825.825,0,0,0-.14.042l-.037.016a.851.851,0,0,0-.1.052l-.037.023a.841.841,0,0,0-.118.1L52.1,19.736a.836.836,0,0,0,1.183,1.183l1.059-1.059v6.429a4.181,4.181,0,1,0,2.971,7.688l4.5,4.5h0l.347.346H60.63a.836.836,0,0,0,0,1.673h3.558a.841.841,0,0,0,.164-.016.852.852,0,0,0,.112-.034c.014-.005.029-.007.044-.013h0l.022-.011a.838.838,0,0,0,.108-.059l.037-.026a.812.812,0,0,0,.081-.067c.011-.01.021-.02.032-.03a.841.841,0,0,0,.084-.1l.008-.01a.863.863,0,0,0,.069-.126c.006-.014.011-.028.016-.042a.778.778,0,0,0,.032-.1c0-.015.008-.03.01-.045a.815.815,0,0,0,.015-.151V36.149a.836.836,0,0,0-.836-.836m-6.5-4.925a2.49,2.49,0,0,1-.342,1.258l-1.331-1.331v-2.29a2.512,2.512,0,0,1,1.673,2.363M55.182,32.9a2.508,2.508,0,0,1-.836-4.872v2.254a.837.837,0,0,0,.182.91l.035.035a.782.782,0,0,0,.063.063l1.445,1.445a2.494,2.494,0,0,1-.888.165" transform="translate(-36.932 -12.446)" fill="#ea5e31"/>
      </g>
    </g>
  </g>
</svg>
