<svg xmlns="http://www.w3.org/2000/svg" xmlns:xlink="http://www.w3.org/1999/xlink" width="59.213" height="57.89" viewBox="0 0 59.213 57.89">
  <defs>
    <clipPath id="clip-path">
      <rect id="Rect치ngulo_2253" data-name="Rect치ngulo 2253" width="32.057" height="32.944" fill="#ea5e31"/>
    </clipPath>
  </defs>
  <g id="Grupo_3129" data-name="Grupo 3129" transform="translate(-807 -1552)">
    <path id="Rect치ngulo_2218" data-name="Rect치ngulo 2218" d="M28.964,0h.422c.234,0,.466.009.7.018h0l.07,0h.157l.408.022A2.633,2.633,0,0,1,30.4,5.31c-.476-.028-.961-.043-1.441-.043a2.646,2.646,0,0,1-.495-.046,2.647,2.647,0,0,1-.492.067c-.478.02-.961.054-1.435.1A2.633,2.633,0,0,1,26.007.149l.269-.026h.012a.439.439,0,0,0,.044,0h.047l.017,0h.051l.026,0H26.5Q27.107.052,27.72.026h.039l.113,0a2.634,2.634,0,0,1,.493.046,2.64,2.64,0,0,1,.6-.069ZM41.238,3.027a2.622,2.622,0,0,1,1.227.3h0q.65.343,1.28.718h0l.034.02.01.006.01.006.01.006.01.006.01.006.011.007,0,0,.149.09a2.633,2.633,0,0,1-2.739,4.5c-.407-.248-.828-.486-1.249-.708a2.634,2.634,0,0,1,1.231-4.963Zm9.443,8.411a2.631,2.631,0,0,1,2.173,1.142q.5.723.95,1.476a2.633,2.633,0,1,1-4.513,2.715c-.246-.408-.507-.815-.777-1.208a2.634,2.634,0,0,1,2.168-4.125ZM55.124,23.27A2.634,2.634,0,0,1,57.737,25.6q.1.867.149,1.749a2.633,2.633,0,0,1-5.259.289c-.026-.477-.067-.96-.122-1.433a2.635,2.635,0,0,1,2.619-2.936Zm-1.058,12.8a2.635,2.635,0,0,1,2.512,3.426c-.029.092-.059.184-.089.276h0l0,.009v0l0,.008v0l0,.008,0,.011,0,.005,0,.007v0l0,.009v0q-.173.521-.365,1.034h0l-.014.038h0l0,.011v0l0,.01v0l0,.009,0,0,0,.01,0,0,0,.007,0,.006,0,.006,0,.006,0,0-.006.015v0l0,.008v0l0,.009v0l-.047.122a2.633,2.633,0,0,1-4.912-1.9c.172-.444.331-.9.475-1.352A2.634,2.634,0,0,1,54.066,36.068ZM47.45,46.842A2.633,2.633,0,0,1,49.3,51.35l-.015.015h0l-.007.007h0l-.021.021,0,0-.005.005,0,0-.005,0,0,0-.005.005-.007.007,0,0-.006.006,0,0-.007.007,0,0-.019.018h0l-.009.009h0l-.029.028h0q-.551.535-1.13,1.041a2.633,2.633,0,1,1-3.465-3.966c.359-.314.714-.643,1.054-.978A2.625,2.625,0,0,1,47.45,46.842ZM36.585,53.3a2.634,2.634,0,0,1,.762,5.154l-.087.026-.011,0-.011,0-.015,0-.013,0-.012,0-.012,0-.012,0-.025.007h0l-.011,0h0q-.485.142-.977.268h0l-.014,0-.013,0h-.006l-.028.007h0q-.225.057-.452.111a2.633,2.633,0,0,1-1.2-5.127c.463-.109.929-.235,1.384-.372A2.633,2.633,0,0,1,36.585,53.3ZM22.393,53.6a2.639,2.639,0,0,1,.657.083c.461.118.932.224,1.4.314a2.633,2.633,0,0,1-.992,5.172l-.131-.026-.011,0-.011,0-.015,0-.013,0-.012,0h0q-.485-.1-.965-.21l-.012,0-.012,0-.012,0-.016,0-.011,0-.011,0q-.247-.059-.492-.122a2.634,2.634,0,0,1,.661-5.183Zm-11.121-6a2.624,2.624,0,0,1,1.769.683c.353.321.721.635,1.093.934a2.633,2.633,0,0,1-3.293,4.11c-.147-.118-.292-.237-.437-.358h0l-.007-.006h0l-.007-.006,0,0-.013-.011-.008-.006-.009-.007-.01-.008-.007-.006,0,0-.009-.008-.01-.009,0,0-.007-.006,0,0-.02-.017,0,0-.009-.007h0l-.01-.008h0l-.02-.017h0l-.009-.007h0l-.03-.026h0l-.01-.008h0l-.03-.026h0l-.01-.008h0l-.031-.026h0l-.03-.026h0l-.009-.008h0l-.01-.008h0l-.02-.017h0l-.008-.007,0,0-.009-.007h0l-.01-.009h0l-.009-.008,0,0L10,52.615l-.01-.009,0,0L9.974,52.6l-.009-.008-.009-.008-.006,0,0,0-.021-.018h0l-.008-.007h0q-.212-.185-.42-.374a2.633,2.633,0,0,1,1.776-4.579ZM4.213,37.1a2.634,2.634,0,0,1,2.474,1.733c.163.447.342.9.532,1.332a2.633,2.633,0,0,1-4.829,2.1q-.34-.781-.635-1.586v0l-.017-.045A2.635,2.635,0,0,1,4.213,37.1ZM2.7,24.358q.1,0,.2.007A2.633,2.633,0,0,1,5.33,27.186c-.035.476-.056.96-.063,1.438A2.633,2.633,0,0,1,0,28.557c.008-.593.034-1.182.078-1.766A2.633,2.633,0,0,1,2.7,24.358ZM6.647,12.352a2.634,2.634,0,0,1,2.228,4.034c-.254.4-.5.821-.726,1.239A2.633,2.633,0,0,1,3.524,15.1c.063-.116.127-.23.192-.345v0l0-.008v0l.013-.024.006-.01,0-.006,0,0,0-.008,0,0,.006-.011v0l0-.008,0,0,.005-.009v0l.013-.023h0l.006-.011h0q.3-.524.62-1.034A2.631,2.631,0,0,1,6.647,12.352Zm9.087-8.794a2.634,2.634,0,0,1,1.327,4.909c-.412.24-.822.5-1.219.76a2.633,2.633,0,0,1-2.921-4.382l.01-.007.01-.007.011-.007.012-.008,0,0,.008-.006,0,0,.008-.005,0,0L13,4.792h0l.034-.022h0q.675-.445,1.375-.853A2.621,2.621,0,0,1,15.734,3.557Z" transform="translate(807 1609.89) rotate(-90)" fill="#525166"/>
    <g id="Grupo_3110" data-name="Grupo 3110" transform="translate(821 1564.473)">
      <g id="Grupo_3078" data-name="Grupo 3078" clip-path="url(#clip-path)">
        <path id="Trazado_2311" data-name="Trazado 2311" d="M99.8,100a3.8,3.8,0,1,0,3.8,3.8,3.806,3.806,0,0,0-3.8-3.8m0,6.082a2.281,2.281,0,1,1,2.281-2.281,2.283,2.283,0,0,1-2.281,2.281" transform="translate(-71.672 -74.658)" fill="#ea5e31"/>
        <path id="Trazado_2312" data-name="Trazado 2312" d="M25.378,19.55a.761.761,0,0,0,0-1.075l-.989-.989h.446a7.222,7.222,0,0,0,0-14.445H7.526a3.8,3.8,0,1,0,0,1.521H24.835a5.7,5.7,0,0,1,0,11.4h-.446L25.352,15a.76.76,0,0,0-1.075-1.075l-2.26,2.261a.756.756,0,0,0-.087.107c-.008.012-.015.024-.022.035a.728.728,0,0,0-.045.086c-.006.013-.012.025-.017.038a.771.771,0,0,0-.037.125s0,.007,0,.011a.743.743,0,0,0-.012.121c0,.013,0,.026,0,.039a.761.761,0,0,0,.009.1c0,.014,0,.027.007.041a.813.813,0,0,0,.031.107c0,.007,0,.015.008.022v0a.752.752,0,0,0,.061.116c.007.011.015.021.022.031a.785.785,0,0,0,.067.083c.005.005.009.012.014.017L24.3,19.55a.761.761,0,0,0,1.075,0M3.8,6.082A2.281,2.281,0,1,1,6.082,3.8,2.283,2.283,0,0,1,3.8,6.082" fill="#ea5e31"/>
        <path id="Trazado_2313" data-name="Trazado 2313" d="M22.789,66.886c0-.013,0-.027.007-.041a.762.762,0,0,0,.009-.1c0-.013,0-.026,0-.039a.743.743,0,0,0-.012-.121s0-.007,0-.011a.771.771,0,0,0-.037-.125c-.005-.013-.011-.025-.017-.038a.727.727,0,0,0-.045-.086c-.007-.012-.014-.024-.022-.035a.756.756,0,0,0-.087-.107l-2.26-2.261A.76.76,0,0,0,19.249,65l.963.963h-.446a.775.775,0,0,0-.127.013.775.775,0,0,0-.127-.013H7.222a5.7,5.7,0,0,1,0-11.4h5.525a3.8,3.8,0,1,0,0-1.521H7.222a7.222,7.222,0,0,0,0,14.445H19.513a.774.774,0,0,0,.127-.013.774.774,0,0,0,.127.013h.446l-.989.989A.76.76,0,0,0,20.3,69.55l2.286-2.287c.006-.005.009-.012.014-.017a.786.786,0,0,0,.067-.083c.007-.01.015-.02.022-.031a.752.752,0,0,0,.061-.116v0c0-.007,0-.015.008-.022a.814.814,0,0,0,.031-.107M16.472,51.521A2.281,2.281,0,1,1,14.191,53.8a2.283,2.283,0,0,1,2.281-2.281" transform="translate(0 -37.329)" fill="#ea5e31"/>
      </g>
    </g>
  </g>
</svg>
