<svg xmlns="http://www.w3.org/2000/svg" width="28.271" height="28.272" viewBox="0 0 28.271 28.272">
  <path id="Trazado_2273" data-name="Trazado 2273" d="M14.312,100.639a14.136,14.136,0,1,0,14.137,14.136,14.135,14.135,0,0,0-14.137-14.136m8.377,9.3a7.361,7.361,0,0,1-1.21,1.135.3.3,0,0,0-.084.2,10.52,10.52,0,0,1-.222,2.49,11.686,11.686,0,0,1-.979,2.722,11.234,11.234,0,0,1-1.217,1.861,10.169,10.169,0,0,1-1.915,1.8,9.727,9.727,0,0,1-2.142,1.168,9.909,9.909,0,0,1-2.222.6,11.535,11.535,0,0,1-2.517.1,10.024,10.024,0,0,1-2.556-.532,10.318,10.318,0,0,1-2.063-.959,1.407,1.407,0,0,1-.129-.1,7.391,7.391,0,0,0,5.3-1.519A3.653,3.653,0,0,1,7.4,116.33a3.8,3.8,0,0,0,1.571-.063,3.675,3.675,0,0,1-2.873-3.6,4.053,4.053,0,0,0,1.592.4,3.735,3.735,0,0,1-1.1-4.883,10.477,10.477,0,0,0,7.558,3.839c-.022-.22-.054-.414-.065-.628a3.528,3.528,0,0,1,1.177-2.9,3.569,3.569,0,0,1,3.224-.89,3.365,3.365,0,0,1,1.807.972.217.217,0,0,0,.247.075,7.52,7.52,0,0,0,2.067-.786.344.344,0,0,1,.11-.057,3.709,3.709,0,0,1-1.51,1.962.223.223,0,0,1,.012.03c.216-.03.432-.068.65-.117s.438-.114.662-.189.426-.145.66-.2c-.175.209-.333.428-.5.641" transform="translate(-0.178 -100.639)" fill="#393e43"/>
</svg>
