<svg xmlns="http://www.w3.org/2000/svg" xmlns:xlink="http://www.w3.org/1999/xlink" width="1920" height="740" viewBox="0 0 1920 740">
  <defs>
    <clipPath id="clip-path">
      <rect id="Rect치ngulo_2253" data-name="Rect치ngulo 2253" width="492.986" height="506.627" fill="#2ca99a"/>
    </clipPath>
  </defs>
  <g id="Grupo_3133" data-name="Grupo 3133" transform="translate(0 -3207)">
    <rect id="Rect치ngulo_2222" data-name="Rect치ngulo 2222" width="1920" height="740" transform="translate(0 3207)" fill="#007a6b"/>
    <g id="Grupo_3088" data-name="Grupo 3088" transform="translate(143.315 3333.687)" opacity="0.37">
      <g id="Grupo_3078" data-name="Grupo 3078" transform="translate(0 -5.136)" clip-path="url(#clip-path)">
        <path id="Trazado_2311" data-name="Trazado 2311" d="M154.457,100a58.457,58.457,0,1,0,58.457,58.457A58.523,58.523,0,0,0,154.457,100m0,93.531a35.074,35.074,0,1,1,35.074-35.074,35.114,35.114,0,0,1-35.074,35.074" transform="translate(278.124 289.713)" fill="#2ca99a"/>
        <path id="Trazado_2312" data-name="Trazado 2312" d="M390.274,300.64a11.7,11.7,0,0,0,0-16.536l-15.207-15.2h6.851a111.068,111.068,0,0,0,0-222.136H115.737a58.457,58.457,0,1,0,0,23.383H381.918a87.685,87.685,0,0,1,0,175.371h-6.851l14.805-14.805a11.691,11.691,0,0,0-16.532-16.536l-34.762,34.766a11.637,11.637,0,0,0-1.341,1.641c-.125.179-.23.362-.343.546a11.191,11.191,0,0,0-.694,1.317c-.086.195-.179.382-.257.581a11.855,11.855,0,0,0-.569,1.925c-.012.055-.012.109-.019.164a11.421,11.421,0,0,0-.179,1.859c0,.2,0,.4.012.6a11.7,11.7,0,0,0,.14,1.469c.035.21.066.421.109.627a12.5,12.5,0,0,0,.483,1.641c.043.113.066.23.117.339l.008.027a11.566,11.566,0,0,0,.939,1.781c.105.164.226.316.339.475a12.073,12.073,0,0,0,1.037,1.27c.082.082.133.183.218.265l35.16,35.164a11.7,11.7,0,0,0,16.535,0M58.457,93.531A35.074,35.074,0,1,1,93.531,58.457,35.114,35.114,0,0,1,58.457,93.531" fill="#2ca99a"/>
        <path id="Trazado_2313" data-name="Trazado 2313" d="M350.457,309.677c.043-.206.074-.417.109-.628a11.719,11.719,0,0,0,.14-1.469c.008-.2.016-.4.012-.6a11.424,11.424,0,0,0-.179-1.859c-.008-.055-.008-.109-.02-.164a11.864,11.864,0,0,0-.569-1.925c-.078-.2-.172-.386-.257-.581a11.2,11.2,0,0,0-.694-1.317c-.113-.183-.218-.366-.343-.545a11.624,11.624,0,0,0-1.341-1.641l-34.762-34.766a11.691,11.691,0,0,0-16.532,16.535l14.805,14.805h-6.851a11.928,11.928,0,0,0-1.949.195,11.926,11.926,0,0,0-1.948-.195H111.068a87.685,87.685,0,0,1,0-175.371h84.965a58.457,58.457,0,1,0,0-23.383H111.068a111.068,111.068,0,0,0,0,222.136H300.079a11.912,11.912,0,0,0,1.948-.195,11.914,11.914,0,0,0,1.949.195h6.851L295.62,334.1a11.692,11.692,0,0,0,16.535,16.535l35.16-35.164c.086-.082.136-.183.218-.265a12.077,12.077,0,0,0,1.037-1.27c.113-.16.234-.312.339-.476a11.564,11.564,0,0,0,.939-1.781l.008-.027c.051-.109.074-.226.117-.339a12.507,12.507,0,0,0,.483-1.641M253.313,73.383a35.074,35.074,0,1,1-35.074,35.074,35.114,35.114,0,0,1,35.074-35.074" transform="translate(0 144.856)" fill="#2ca99a"/>
      </g>
    </g>
  </g>
</svg>
