<svg xmlns="http://www.w3.org/2000/svg" xmlns:xlink="http://www.w3.org/1999/xlink" width="1920" height="577" viewBox="0 0 1920 577">
  <defs>
    <clipPath id="clip-path">
      <rect id="Rect치ngulo_2255" data-name="Rect치ngulo 2255" width="517" height="517" transform="translate(-0.483 -0.483)" fill="#393e43"/>
    </clipPath>
  </defs>
  <g id="Grupo_3132" data-name="Grupo 3132" transform="translate(0 -1917)">
    <rect id="Rect치ngulo_2221" data-name="Rect치ngulo 2221" width="1920" height="577" transform="translate(0 1917)" fill="#525166"/>
    <g id="Grupo_3083" data-name="Grupo 3083" transform="translate(-0.004 1949.496)" opacity="0.25">
      <g id="Grupo_3082" data-name="Grupo 3082" transform="translate(0.487 0.486)" clip-path="url(#clip-path)">
        <path id="Trazado_2316" data-name="Trazado 2316" d="M175.734,11c90.835,0,164.734,73.9,164.734,164.734s-73.9,164.734-164.734,164.734S11,266.569,11,175.734,84.9,11,175.734,11M161.888,316.248l-17.132-17.132a9.805,9.805,0,0,1,13.865-13.869l30.994,31a139.826,139.826,0,0,0,26.016-5.087l-70.875-70.875a9.806,9.806,0,0,1,13.865-13.869l75.389,75.393a9.784,9.784,0,0,1,1.42,1.847,140.989,140.989,0,0,0,20.058-11.48l-.043-.035-88.25-88.25a9.8,9.8,0,1,1,13.865-13.865l88.25,88.25a9.715,9.715,0,0,1,1.416,1.84,142.037,142.037,0,0,0,16.167-17.466,9.723,9.723,0,0,1-4.683-2.581l-85.6-85.6A9.8,9.8,0,0,1,210.477,160.6l85.6,85.6a9.758,9.758,0,0,1,1.137,1.392,140.386,140.386,0,0,0,10.57-21.921,9.768,9.768,0,0,1-3.31-2.177L200.534,119.556A9.8,9.8,0,1,1,214.4,105.691l99.437,99.44a141.1,141.1,0,0,0,3.067-28.158c-.22-.184-.459-.337-.663-.545L204.456,64.644a9.8,9.8,0,1,1,13.865-13.865l95.5,95.5c-13.587-63.764-70.33-111.748-138.09-111.748-77.856,0-141.2,63.344-141.2,141.2,0,73.185,55.97,133.532,127.355,140.514" transform="translate(134.216 31.253)" fill="#393e43"/>
        <path id="Trazado_2317" data-name="Trazado 2317" d="M3.448,497.649,151.52,349.573A208.968,208.968,0,0,1,98.056,209.84C98.056,94.134,192.19,0,307.9,0s209.84,94.134,209.84,209.84S423.6,419.679,307.9,419.679a208.968,208.968,0,0,1-139.734-53.464L20.086,514.287A11.765,11.765,0,0,1,3.448,497.649M494.2,209.84c0-102.727-83.579-186.306-186.306-186.306S121.589,107.112,121.589,209.84,205.168,396.146,307.9,396.146,494.2,312.567,494.2,209.84" transform="translate(0.093 -0.892)" fill="#393e43"/>
      </g>
    </g>
  </g>
</svg>
