<svg xmlns="http://www.w3.org/2000/svg" xmlns:xlink="http://www.w3.org/1999/xlink" width="61.069" height="58.905" viewBox="0 0 61.069 58.905">
  <defs>
    <clipPath id="clip-path">
      <rect id="Rect치ngulo_2257" data-name="Rect치ngulo 2257" width="61.069" height="58.905" fill="#fafafa"/>
    </clipPath>
  </defs>
  <g id="Grupo_3123" data-name="Grupo 3123" transform="translate(-609 -2968.683)">
    <path id="Rect치ngulo_2218" data-name="Rect치ngulo 2218" d="M19.525,0h.284c.157,0,.314.006.47.012h0l.047,0h.106l.275.015A1.775,1.775,0,0,1,20.5,3.579c-.321-.019-.648-.029-.971-.029a1.784,1.784,0,0,1-.334-.031,1.784,1.784,0,0,1-.332.045c-.322.013-.648.036-.967.069A1.775,1.775,0,0,1,17.532.1l.182-.018h.008a.3.3,0,0,0,.03,0h.077l.018,0h.019q.408-.034.821-.052h.026l.076,0a1.775,1.775,0,0,1,.332.031,1.78,1.78,0,0,1,.4-.046ZM27.8,2.041a1.768,1.768,0,0,1,.827.206h0q.438.231.863.484h0l.023.014.007,0,.007,0,.007,0,.007,0,.007,0,.008,0h0l.1.061a1.775,1.775,0,0,1-1.846,3.033c-.275-.167-.558-.328-.842-.478a1.775,1.775,0,0,1,.83-3.345Zm6.366,5.67a1.773,1.773,0,0,1,1.465.77q.335.487.64,1a1.775,1.775,0,1,1-3.042,1.83c-.166-.275-.342-.549-.524-.814a1.775,1.775,0,0,1,1.461-2.781Zm3,7.976a1.775,1.775,0,0,1,1.761,1.571q.068.584.1,1.179a1.775,1.775,0,1,1-3.545.2c-.018-.322-.045-.647-.082-.966a1.777,1.777,0,0,1,1.766-1.979Zm-.713,8.628a1.777,1.777,0,0,1,1.693,2.309c-.02.062-.04.124-.06.186h0l0,.006v0l0,.006v0l0,.005,0,.007v0l0,0v0l0,.006v0q-.116.351-.246.7h0l-.01.026h0l0,.007v0l0,.007v0l0,.006v0l0,.007v0l0,0v.008l0,0v0l0,.01v0l0,.006h0l0,.006h0l-.031.082a1.775,1.775,0,0,1-3.312-1.28c.116-.3.223-.606.321-.912A1.776,1.776,0,0,1,36.447,24.315Zm-4.46,7.263a1.775,1.775,0,0,1,1.247,3.039l-.01.01h0l0,0h0l-.014.014,0,0,0,0,0,0,0,0,0,0,0,0,0,0,0,0,0,0,0,0,0,0h0l-.013.012h0l-.006.006h0l-.02.019h0q-.371.361-.761.7a1.775,1.775,0,1,1-2.336-2.674c.242-.212.481-.434.711-.66A1.769,1.769,0,0,1,31.987,31.577Zm-7.324,4.355a1.775,1.775,0,0,1,.514,3.475l-.059.018-.007,0-.008,0-.01,0-.009,0-.008,0-.008,0-.008,0-.017.005h0l-.008,0h0q-.327.1-.658.181h0l-.009,0-.009,0h0l-.019,0h0l-.3.075a1.775,1.775,0,0,1-.811-3.456c.312-.074.626-.158.933-.251A1.775,1.775,0,0,1,24.663,35.932Zm-9.567.2a1.779,1.779,0,0,1,.443.056c.311.08.628.151.943.212a1.775,1.775,0,0,1-.669,3.487l-.088-.017-.008,0H15.71l-.01,0-.008,0-.008,0h0q-.327-.065-.65-.141l-.008,0-.008,0-.008,0-.011,0-.008,0-.007,0q-.167-.04-.332-.082A1.775,1.775,0,0,1,15.1,36.13ZM7.6,32.084a1.769,1.769,0,0,1,1.193.461c.238.216.486.428.737.63a1.775,1.775,0,0,1-2.22,2.771c-.1-.08-.2-.16-.294-.241h0l0,0h0l0,0H7l-.009-.007-.005,0-.006-.005-.006-.005,0,0h0l-.006-.005-.007-.006,0,0,0,0h0l-.013-.011h0l-.006,0h0l-.007-.006h0l-.014-.012h0L6.9,35.607h0l-.021-.017h0l-.006-.006h0l-.021-.018h0l-.006-.005h0l-.021-.018h0L6.8,35.522h0l-.006-.005h0l-.007-.006h0L6.773,35.5h0l-.006,0h0l-.006,0h0l-.007-.006h0l-.006-.005h0l0,0-.007-.006,0,0-.006-.005-.006-.005-.006-.005,0,0,0,0-.014-.012h0l-.005,0h0Q6.543,35.3,6.4,35.17a1.775,1.775,0,0,1,1.2-3.087ZM2.84,25.011a1.776,1.776,0,0,1,1.668,1.168c.11.3.23.6.358.9a1.775,1.775,0,0,1-3.255,1.417q-.229-.527-.428-1.069h0l-.011-.031A1.776,1.776,0,0,1,2.84,25.011ZM1.821,16.421q.066,0,.133,0a1.775,1.775,0,0,1,1.639,1.9c-.024.321-.038.647-.043.97A1.775,1.775,0,0,1,0,19.251c.006-.4.023-.8.052-1.191A1.775,1.775,0,0,1,1.821,16.421Zm2.66-8.094a1.776,1.776,0,0,1,1.5,2.719c-.171.272-.336.553-.49.835a1.775,1.775,0,0,1-3.117-1.7c.043-.078.085-.155.129-.233h0l0-.005h0l.009-.016,0-.007,0,0,0,0,0-.006v0l0-.007v0l0-.006v0l0-.006h0l.009-.016h0l0-.008h0q.2-.353.418-.7A1.774,1.774,0,0,1,4.481,8.327ZM10.607,2.4a1.775,1.775,0,0,1,.895,3.31c-.278.162-.554.334-.822.512A1.775,1.775,0,0,1,8.71,3.266l.007,0,.007,0,.008,0,.008-.005,0,0,.006,0h0l.006,0h0l.006,0h0l.023-.015h0q.455-.3.927-.575A1.767,1.767,0,0,1,10.607,2.4Z" transform="translate(620 3017.647) rotate(-90)" fill="#fbbc30"/>
    <g id="Grupo_3087" data-name="Grupo 3087" transform="translate(609 2968.683)">
      <g id="Grupo_3086" data-name="Grupo 3086" transform="translate(0 0)" clip-path="url(#clip-path)">
        <path id="Trazado_2324" data-name="Trazado 2324" d="M52.511,45.4A11.508,11.508,0,1,0,64.019,56.909,11.521,11.521,0,0,0,52.511,45.4m0,20.668a9.16,9.16,0,1,1,9.16-9.16,9.17,9.17,0,0,1-9.16,9.16" transform="translate(-21.976 -27.456)" fill="#fafafa"/>
        <path id="Trazado_2325" data-name="Trazado 2325" d="M62.245,60.493,55.769,66.97l-2.14-2.14a1.174,1.174,0,0,0-1.661,1.661l2.97,2.969a1.174,1.174,0,0,0,1.661,0l7.307-7.307a1.174,1.174,0,1,0-1.661-1.661" transform="translate(-27.609 -35.277)" fill="#fafafa"/>
        <path id="Trazado_2326" data-name="Trazado 2326" d="M61.044,10.849a1.41,1.41,0,0,0-1.84-1.6A24.852,24.852,0,0,1,46,9.739C39.828,8.366,34.508,4.991,31.754.7A1.411,1.411,0,0,0,29.3.724C26.544,5,21.231,8.369,15.068,9.739a24.84,24.84,0,0,1-13.2-.486A1.409,1.409,0,0,0,0,10.589v.51C0,23.753,3.107,35.671,8.747,44.655,14.514,53.844,22.252,58.9,30.534,58.9s16.019-5.06,21.787-14.249c5.64-8.985,8.746-20.9,8.746-33.556a1.413,1.413,0,0,0-.022-.25M30.534,56.086c-15,0-27.252-19.441-27.7-43.616a28.46,28.46,0,0,0,12.848.02A26.651,26.651,0,0,0,30.535,3.819,26.651,26.651,0,0,0,45.389,12.49a28.459,28.459,0,0,0,12.846-.02c-.448,24.174-12.7,43.616-27.7,43.616" transform="translate(0 0)" fill="#fafafa"/>
      </g>
    </g>
  </g>
</svg>
