<svg id="Grupo_3077" data-name="Grupo 3077" xmlns="http://www.w3.org/2000/svg" xmlns:xlink="http://www.w3.org/1999/xlink" width="46.471" height="49.334" viewBox="0 0 46.471 49.334">
  <defs>
    <clipPath id="clip-path">
      <rect id="Rectángulo_2252" data-name="Rectángulo 2252" width="46.471" height="49.334" fill="#fafafa"/>
    </clipPath>
  </defs>
  <g id="Grupo_3076" data-name="Grupo 3076" clip-path="url(#clip-path)">
    <path id="Trazado_2304" data-name="Trazado 2304" d="M39.131,4.818H33.617V1.143a1.143,1.143,0,1,0-2.285,0V4.818H15.14V1.143a1.143,1.143,0,0,0-2.285,0V4.818H7.341A7.348,7.348,0,0,0,0,12.159V41.994a7.349,7.349,0,0,0,7.34,7.34h31.79a7.349,7.349,0,0,0,7.34-7.34V12.159a7.349,7.349,0,0,0-7.34-7.34M7.341,7.1h5.513V9.871a1.143,1.143,0,0,0,2.285,0V7.1H31.332V9.871a1.143,1.143,0,1,0,2.285,0V7.1h5.514a5.061,5.061,0,0,1,5.055,5.055v3.477H2.286V12.159A5.06,5.06,0,0,1,7.341,7.1m31.79,39.945H7.341a5.06,5.06,0,0,1-5.055-5.055V17.921h41.9V41.994a5.061,5.061,0,0,1-5.055,5.055" transform="translate(-0.001)" fill="#fafafa"/>
    <path id="Trazado_2305" data-name="Trazado 2305" d="M28.379,58.845H26.6a2.993,2.993,0,0,0-2.991,2.99v1.779A2.994,2.994,0,0,0,26.6,66.6h1.779a2.994,2.994,0,0,0,2.991-2.991V61.835a2.993,2.993,0,0,0-2.991-2.99m.705,4.769a.706.706,0,0,1-.705.705H26.6a.706.706,0,0,1-.705-.705V61.835a.706.706,0,0,1,.705-.7h1.779a.706.706,0,0,1,.705.7Z" transform="translate(-14.617 -36.43)" fill="#fafafa"/>
    <path id="Trazado_2306" data-name="Trazado 2306" d="M56.1,58.845H54.318a2.993,2.993,0,0,0-2.991,2.99v1.779A2.994,2.994,0,0,0,54.318,66.6H56.1a2.994,2.994,0,0,0,2.991-2.991V61.835a2.993,2.993,0,0,0-2.991-2.99m.705,4.769a.706.706,0,0,1-.705.705H54.318a.706.706,0,0,1-.705-.705V61.835a.706.706,0,0,1,.705-.7H56.1a.706.706,0,0,1,.705.7Z" transform="translate(-31.776 -36.43)" fill="#fafafa"/>
    <path id="Trazado_2307" data-name="Trazado 2307" d="M83.813,58.845H82.035a2.993,2.993,0,0,0-2.991,2.99v1.779A2.994,2.994,0,0,0,82.035,66.6h1.779A2.994,2.994,0,0,0,86.8,63.614V61.835a2.993,2.993,0,0,0-2.991-2.99m.705,4.769a.706.706,0,0,1-.705.705H82.035a.706.706,0,0,1-.705-.705V61.835a.706.706,0,0,1,.705-.7h1.779a.706.706,0,0,1,.705.7Z" transform="translate(-48.935 -36.43)" fill="#fafafa"/>
    <path id="Trazado_2308" data-name="Trazado 2308" d="M28.379,87.588H26.6a2.993,2.993,0,0,0-2.991,2.99v1.779a2.993,2.993,0,0,0,2.991,2.99h1.779a2.993,2.993,0,0,0,2.991-2.99V90.578a2.993,2.993,0,0,0-2.991-2.99m.705,4.769a.706.706,0,0,1-.705.7H26.6a.706.706,0,0,1-.705-.7V90.578a.706.706,0,0,1,.705-.7h1.779a.706.706,0,0,1,.705.7Z" transform="translate(-14.617 -54.225)" fill="#fafafa"/>
    <path id="Trazado_2309" data-name="Trazado 2309" d="M56.1,87.588H54.318a2.993,2.993,0,0,0-2.991,2.99v1.779a2.993,2.993,0,0,0,2.991,2.99H56.1a2.993,2.993,0,0,0,2.991-2.99V90.578a2.993,2.993,0,0,0-2.991-2.99m.705,4.769a.706.706,0,0,1-.705.7H54.318a.706.706,0,0,1-.705-.7V90.578a.706.706,0,0,1,.705-.7H56.1a.706.706,0,0,1,.705.7Z" transform="translate(-31.776 -54.225)" fill="#fafafa"/>
    <path id="Trazado_2310" data-name="Trazado 2310" d="M83.813,87.588H82.035a2.993,2.993,0,0,0-2.991,2.99v1.779a2.993,2.993,0,0,0,2.991,2.99h1.779a2.993,2.993,0,0,0,2.991-2.99V90.578a2.993,2.993,0,0,0-2.991-2.99m.705,4.769a.706.706,0,0,1-.705.7H82.035a.706.706,0,0,1-.705-.7V90.578a.706.706,0,0,1,.705-.7h1.779a.706.706,0,0,1,.705.7Z" transform="translate(-48.935 -54.225)" fill="#fafafa"/>
  </g>
</svg>
