<svg id="Grupo_3102" data-name="Grupo 3102" xmlns="http://www.w3.org/2000/svg" xmlns:xlink="http://www.w3.org/1999/xlink" width="18.207" height="21.328" viewBox="0 0 18.207 21.328">
  <defs>
    <clipPath id="clip-path">
      <rect id="Rectángulo_2279" data-name="Rectángulo 2279" width="18.207" height="21.328" fill="#ea5e31"/>
    </clipPath>
  </defs>
  <g id="Grupo_3101" data-name="Grupo 3101" clip-path="url(#clip-path)">
    <path id="Trazado_2353" data-name="Trazado 2353" d="M18.2,8.754A9.136,9.136,0,0,0,9.151,0H9.1A9.1,9.1,0,0,0,2.555,15.425l.035.038.069.07.012.012L7.89,20.821a1.694,1.694,0,0,0,1.214.507h0a1.7,1.7,0,0,0,1.214-.507l5.2-5.26.1-.1.028-.031A9.027,9.027,0,0,0,18.2,8.754M14.727,14.59l-.022.024L9.432,19.946a.474.474,0,0,1-.657,0L3.552,14.665l-.013-.013-.032-.032-.027-.03A7.857,7.857,0,0,1,9.1,1.245h.041A7.933,7.933,0,0,1,16.956,8.8a7.8,7.8,0,0,1-2.229,5.789" fill="#ea5e31"/>
    <path id="Trazado_2354" data-name="Trazado 2354" d="M26.835,21a5.835,5.835,0,1,0,5.835,5.835A5.842,5.842,0,0,0,26.835,21m0,10.426a4.591,4.591,0,1,1,4.591-4.591,4.6,4.6,0,0,1-4.591,4.591" transform="translate(-17.732 -17.732)" fill="#ea5e31"/>
  </g>
</svg>
