<svg xmlns="http://www.w3.org/2000/svg" xmlns:xlink="http://www.w3.org/1999/xlink" width="23" height="17" viewBox="0 0 23 17">
  <defs>
    <clipPath id="clip-path">
      <rect id="Rectángulo_2281" data-name="Rectángulo 2281" width="23" height="17" transform="translate(-0.344 0.219)" fill="#ea5e31"/>
    </clipPath>
  </defs>
  <g id="Grupo_3108" data-name="Grupo 3108" transform="translate(0.344 -0.002)">
    <g id="Grupo_3107" data-name="Grupo 3107" transform="translate(0 -0.217)" clip-path="url(#clip-path)">
      <path id="Trazado_2358" data-name="Trazado 2358" d="M22.7,4.072V2.906A2.91,2.91,0,0,0,19.79,0H2.906A2.91,2.91,0,0,0,0,2.906V4.072H0V14.116a2.91,2.91,0,0,0,2.906,2.906H19.79A2.91,2.91,0,0,0,22.7,14.116V4.072ZM15.521,9.134,21.4,5.267v7.582ZM2.906,1.3H19.79A1.611,1.611,0,0,1,21.4,2.906v.809L12.236,9.742a1.615,1.615,0,0,1-1.776,0L1.3,3.715V2.906A1.611,1.611,0,0,1,2.906,1.3M1.3,5.267,7.178,9.136,1.3,12.878ZM19.79,15.725H2.906A1.611,1.611,0,0,1,1.323,14.4L8.366,9.917l1.381.908a2.911,2.911,0,0,0,3.2,0l1.382-.909,7.046,4.453a1.61,1.61,0,0,1-1.587,1.356" transform="translate(0 0.197)" fill="#ea5e31"/>
    </g>
  </g>
</svg>
