<svg id="Grupo_3057" data-name="Grupo 3057" xmlns="http://www.w3.org/2000/svg" xmlns:xlink="http://www.w3.org/1999/xlink" width="139.236" height="126" viewBox="0 0 139.236 126">
  <defs>
    <clipPath id="clip-path">
      <rect id="Rectángulo_2229" data-name="Rectángulo 2229" width="139.236" height="126" fill="none"/>
    </clipPath>
    <clipPath id="clip-path-2">
      <rect id="Rectángulo_2228" data-name="Rectángulo 2228" width="414.739" height="126" fill="none"/>
    </clipPath>
    <clipPath id="clip-path-3">
      <rect id="Rectángulo_2227" data-name="Rectángulo 2227" width="116.753" height="115.979" fill="none"/>
    </clipPath>
  </defs>
  <g id="Grupo_3056" data-name="Grupo 3056" clip-path="url(#clip-path)">
    <rect id="Rectángulo_2226" data-name="Rectángulo 2226" width="1.638" height="109.777" transform="translate(149.506 9.112)" fill="#838386"/>
    <g id="Grupo_3055" data-name="Grupo 3055">
      <g id="Grupo_3054" data-name="Grupo 3054" clip-path="url(#clip-path-2)">
        <g id="Grupo_3053" data-name="Grupo 3053" transform="translate(0 6.011)" style="mix-blend-mode: multiply;isolation: isolate">
          <g id="Grupo_3052" data-name="Grupo 3052">
            <g id="Grupo_3051" data-name="Grupo 3051" clip-path="url(#clip-path-3)">
              <path id="Trazado_2219" data-name="Trazado 2219" d="M79.228,48.732H43.414a.871.871,0,0,0-.871.871V85.417a.871.871,0,0,0,.871.871H79.228a.871.871,0,0,0,.871-.871V49.6a.871.871,0,0,0-.871-.871" transform="translate(-2.945 -9.384)" fill="#ffc629"/>
              <path id="Trazado_2220" data-name="Trazado 2220" d="M121.772,48.732H85.958a.871.871,0,0,0-.871.871V85.417a.871.871,0,0,0,.871.871h35.813a.871.871,0,0,0,.871-.871V49.6a.871.871,0,0,0-.871-.871" transform="translate(-5.89 -9.384)" fill="#ffc629"/>
              <path id="Trazado_2221" data-name="Trazado 2221" d="M36.683,48.732H.873A.873.873,0,0,0,0,49.605v35.81a.873.873,0,0,0,.873.873h35.81a.873.873,0,0,0,.873-.873V49.605a.873.873,0,0,0-.873-.873" transform="translate(0 -9.384)" fill="#ffc629"/>
              <path id="Trazado_2222" data-name="Trazado 2222" d="M79.228,6.458H43.414a.871.871,0,0,0-.871.871V43.143a.871.871,0,0,0,.871.871H79.228a.871.871,0,0,0,.871-.871V7.329a.871.871,0,0,0-.871-.871" transform="translate(-2.945 -6.458)" fill="#ffd369"/>
              <path id="Trazado_2223" data-name="Trazado 2223" d="M121.772,90.714H85.958a.871.871,0,0,0-.871.871V127.4a.871.871,0,0,0,.871.871h35.813a.871.871,0,0,0,.871-.871V91.585a.871.871,0,0,0-.871-.871" transform="translate(-5.89 -12.291)" fill="#ffefcd"/>
              <path id="Trazado_2224" data-name="Trazado 2224" d="M36.683,6.458H.873A.873.873,0,0,0,0,7.331v35.81a.873.873,0,0,0,.873.873h35.81a.873.873,0,0,0,.873-.873V7.331a.873.873,0,0,0-.873-.873" transform="translate(0 -6.458)" fill="#ffefcd"/>
              <path id="Trazado_2225" data-name="Trazado 2225" d="M12.388,55.726V79.72h6v-9.3h8.975V65.026H18.387V61.119H30.709V55.726H12.388Z" transform="translate(-0.858 -9.869)" fill="#fff"/>
              <path id="Trazado_2226" data-name="Trazado 2226" d="M103.2,55.726H93.73V79.72H103.2a12,12,0,1,0,0-23.994m0,18h-3.47v-12h3.47a6,6,0,1,1,0,12" transform="translate(-6.488 -9.869)" fill="#fff"/>
              <path id="Trazado_2227" data-name="Trazado 2227" d="M62.195,61.724a5.993,5.993,0,0,1,4.966,2.633l4.28-4.28a12,12,0,1,0,0,15.291l-4.28-4.28a6,6,0,1,1-4.966-9.365" transform="translate(-3.475 -9.868)" fill="#fff"/>
            </g>
          </g>
        </g>
        <path id="Trazado_2228" data-name="Trazado 2228" d="M265.727,28.252A34.992,34.992,0,0,1,284.8,37.486l8.414-8.307L304.5,17.751A62.627,62.627,0,0,0,262.491.023L276.58,16.272Z" transform="translate(-18.171 -0.002)" fill="#fbbc30"/>
        <path id="Trazado_2229" data-name="Trazado 2229" d="M236.337,34.846a34.961,34.961,0,0,1,20.991-6.962c.933,0,1.853.047,2.766.119l10.645-11.751L256.647,0a62.62,62.62,0,0,0-42.686,17.349l21.723,3.97Z" transform="translate(-14.811)" fill="#fbbc30"/>
        <path id="Trazado_2230" data-name="Trazado 2230" d="M233.1,37.693l-.644-13.337-21.616-3.95a62.632,62.632,0,0,0-17.943,42.638l16.915-7.492,11.1,5.559A35.036,35.036,0,0,1,233.1,37.693" transform="translate(-13.353 -1.413)" fill="#ee8023"/>
        <path id="Trazado_2231" data-name="Trazado 2231" d="M220.751,67.192c0-.377.017-.749.029-1.123l-11.26-5.545L192.882,68A62.628,62.628,0,0,0,210.5,110.851l8.53-14.717,10.431-5.812a34.978,34.978,0,0,1-8.705-23.131" transform="translate(-13.352 -4.19)" fill="#ee8023"/>
        <path id="Trazado_2232" data-name="Trazado 2232" d="M255.694,104.6A35,35,0,0,1,232.3,94.188l-10.366,5.775L213.4,114.676a62.631,62.631,0,0,0,42.785,17.842L254.2,116.345Z" transform="translate(-14.773 -6.52)" fill="#ea5e31"/>
        <path id="Trazado_2233" data-name="Trazado 2233" d="M284.569,95.125a34.981,34.981,0,0,1-23.616,9.567l-1.49,11.719,1.988,16.173a62.631,62.631,0,0,0,42.834-17.743Z" transform="translate(-17.961 -6.585)" fill="#ea5e31"/>
        <path id="Trazado_2234" data-name="Trazado 2234" d="M304.834,52.989a4.623,4.623,0,0,0,3.318-1.391,4.714,4.714,0,0,0,0-6.657,4.639,4.639,0,0,0-6.624,0,4.714,4.714,0,0,0,0,6.654,4.624,4.624,0,0,0,3.307,1.392m0-8.809a4.01,4.01,0,0,1,2.875,1.212,4.106,4.106,0,0,1,0,5.756,4,4,0,0,1-5.738,0,4.076,4.076,0,0,1,0-5.756,4,4,0,0,1,2.863-1.212" transform="translate(-20.778 -3.015)" fill="#525166"/>
        <path id="Trazado_2235" data-name="Trazado 2235" d="M320.019,50.535a2.589,2.589,0,0,0-1.482-2.673,2.209,2.209,0,0,0,.691-.946,2.656,2.656,0,0,0,0-1.84v0a2.092,2.092,0,0,0-2.038-1.375h-3.756v9.175h4.106a2.429,2.429,0,0,0,2.481-2.339m-2.831-2.869H314.06V44.327h3.128a1.492,1.492,0,0,1,1.464.976,1.951,1.951,0,0,1,0,1.383,1.494,1.494,0,0,1-1.465.979m.35,4.592H314.06V48.294h3.477a1.855,1.855,0,0,1,1.878,1.982,2.113,2.113,0,0,1-.472,1.371,1.778,1.778,0,0,1-1.406.611" transform="translate(-21.697 -3.025)" fill="#525166"/>
        <path id="Trazado_2236" data-name="Trazado 2236" d="M326.62,52.336c-.992,0-2.448-.554-2.578-1.794L324,50.248l-.625.076.043.3c.16,1.513,1.764,2.331,3.191,2.331a3.6,3.6,0,0,0,2.772-1.191,2.328,2.328,0,0,0,.453-2.02c-.325-1.518-1.795-1.664-3.091-1.793-1.359-.135-2.533-.251-2.636-1.645a1.631,1.631,0,0,1,.345-1.192,2.774,2.774,0,0,1,2.123-.917,2.7,2.7,0,0,1,2.028.73,1.77,1.77,0,0,1,.422.842l.04.32.609-.122-.04-.311a2.544,2.544,0,0,0-2.064-1.973,3.641,3.641,0,0,0-3.622,1.057,2.256,2.256,0,0,0-.457,1.608c.132,1.912,1.748,2.075,3.173,2.218,1.251.126,2.331.234,2.562,1.3a1.74,1.74,0,0,1-.344,1.522,2.988,2.988,0,0,1-2.263.948" transform="translate(-22.385 -3.016)" fill="#525166"/>
        <path id="Trazado_2237" data-name="Trazado 2237" d="M338.957,52.874v-.616H334.3V48.594h4.53v-.628H334.3V44.315h4.63V43.7h-5.258V52.66l.025.214Z" transform="translate(-23.098 -3.025)" fill="#525166"/>
        <path id="Trazado_2238" data-name="Trazado 2238" d="M343.174,44.314H345.8a2.152,2.152,0,1,1,0,4.3h-1.916V48.8h-.054l.054.049v.26l4.161,3.761h.926l-4.028-3.642h.856a2.774,2.774,0,1,0,0-5.546h-3.242v9.188h.617Z" transform="translate(-23.713 -3.024)" fill="#525166"/>
        <path id="Trazado_2239" data-name="Trazado 2239" d="M354.331,53.011l.047.119.048-.119h.211l3.685-9.311h-.672l-3.271,8.264L351.12,43.7h-.673l3.685,9.311Z" transform="translate(-24.259 -3.025)" fill="#525166"/>
        <path id="Trazado_2240" data-name="Trazado 2240" d="M361.635,49.915h4.142l1.2,2.941h.672l-3.686-9.313h-.214l-.045-.114-.044.114h-.2l-3.685,9.313h.671Zm.256-.615,1.815-4.687,1.826,4.687Z" transform="translate(-24.905 -3.006)" fill="#525166"/>
        <path id="Trazado_2241" data-name="Trazado 2241" d="M372.158,52.873h.616V44.314H375.8v-.628H369.13v.628h3.028Z" transform="translate(-25.553 -3.024)" fill="#525166"/>
        <path id="Trazado_2242" data-name="Trazado 2242" d="M382.79,52.989a4.623,4.623,0,0,0,3.318-1.391,4.715,4.715,0,0,0,0-6.657,4.639,4.639,0,0,0-6.624,0,4.715,4.715,0,0,0,0,6.654,4.624,4.624,0,0,0,3.307,1.392m0-8.809a4.009,4.009,0,0,1,2.875,1.212,4.106,4.106,0,0,1,0,5.756,4,4,0,0,1-5.738,0,4.076,4.076,0,0,1,0-5.756,4,4,0,0,1,2.863-1.212" transform="translate(-26.174 -3.015)" fill="#525166"/>
        <path id="Trazado_2243" data-name="Trazado 2243" d="M392,44.314h2.626a2.152,2.152,0,1,1,0,4.3h-1.916V48.8h-.054l.054.049v.26l4.161,3.761h.926l-4.029-3.642h.857a2.774,2.774,0,1,0,0-5.546h-3.242v9.188H392Z" transform="translate(-27.093 -3.024)" fill="#525166"/>
        <path id="Trazado_2244" data-name="Trazado 2244" d="M405.087,52.258h-1.864V44.3h1.864v-.6h-4.345v.6h1.864v7.954h-1.864v.616h4.345Z" transform="translate(-27.741 -3.025)" fill="#525166"/>
        <path id="Trazado_2245" data-name="Trazado 2245" d="M412.453,43.551a4.626,4.626,0,0,0-3.306,1.391,4.716,4.716,0,0,0,0,6.655,4.64,4.64,0,0,0,6.625,0,4.714,4.714,0,0,0,0-6.657,4.625,4.625,0,0,0-3.318-1.39m0,8.809a4,4,0,0,1-2.863-1.212,4.076,4.076,0,0,1,0-5.756,4,4,0,0,1,5.738,0,4.106,4.106,0,0,1,0,5.756,4.01,4.01,0,0,1-2.875,1.212" transform="translate(-28.228 -3.015)" fill="#525166"/>
        <path id="Trazado_2246" data-name="Trazado 2246" d="M435.015,51.434a4.755,4.755,0,0,0,1.13-3.147,4.368,4.368,0,0,0-4.522-4.588h-3.167v9.175h3.167a4.354,4.354,0,0,0,3.392-1.44m-3.392.824h-2.551V44.314h2.551a3.778,3.778,0,0,1,3.906,3.972,4.137,4.137,0,0,1-.976,2.736,3.758,3.758,0,0,1-2.929,1.235" transform="translate(-29.66 -3.025)" fill="#525166"/>
        <path id="Trazado_2247" data-name="Trazado 2247" d="M440.536,52.258V48.594h4.53v-.627h-4.53V44.314h4.63V43.7h-5.258V52.66l.025.214h5.258v-.616Z" transform="translate(-30.452 -3.025)" fill="#525166"/>
        <path id="Trazado_2248" data-name="Trazado 2248" d="M311.686,66.453h-2.1l-.049.145a3.837,3.837,0,0,1-3.72,2.679,3.789,3.789,0,0,1-2.753-1.2,4.156,4.156,0,0,1,0-5.758,3.789,3.789,0,0,1,2.753-1.2,3.644,3.644,0,0,1,3.62,2.529l.05.142H311.6l-.068-.266A5.72,5.72,0,0,0,305.814,59a5.957,5.957,0,0,0-4.246,1.823l0,0a6.343,6.343,0,0,0,0,8.748,5.818,5.818,0,0,0,4.247,1.825,5.911,5.911,0,0,0,5.805-4.677Z" transform="translate(-20.755 -4.084)" fill="#525166"/>
        <path id="Trazado_2249" data-name="Trazado 2249" d="M316.1,60.745a6.3,6.3,0,0,0,0,8.854,6.2,6.2,0,0,0,8.847,0,6.3,6.3,0,0,0,0-8.857,6.2,6.2,0,0,0-8.843,0Zm4.415.3a4.132,4.132,0,0,1,0,8.263,4.132,4.132,0,0,1,0-8.263" transform="translate(-21.756 -4.076)" fill="#525166"/>
        <path id="Trazado_2250" data-name="Trazado 2250" d="M330.029,71.315h2.136v-7.8l5.325,7.7.064.092h1.679V59.05h-2.119v7.864l-5.438-7.862-1.647-.022Z" transform="translate(-22.846 -4.086)" fill="#525166"/>
        <path id="Trazado_2251" data-name="Trazado 2251" d="M345.924,71.366v-10.3h3.568V59.051H340.2v2.017h3.585v10.3Z" transform="translate(-23.55 -4.088)" fill="#525166"/>
        <path id="Trazado_2252" data-name="Trazado 2252" d="M356.755,64.884h-2.21v1.1l4.426,5.328h2.776l-3.8-4.527a3.733,3.733,0,0,0,2.882-3.754,3.9,3.9,0,0,0-4.069-3.984h-4.526V71.316h2.119V61.2h2.407a1.843,1.843,0,1,1,0,3.681" transform="translate(-24.383 -4.088)" fill="#525166"/>
        <path id="Trazado_2253" data-name="Trazado 2253" d="M372.012,71.305H374.3l-4.922-12.417h-1.542l-4.921,12.417h2.306l.052-.139c.283-.746.729-1.842,1.363-3.345h3.958Zm-2.238-5.519h-2.337l1.182-3.318Z" transform="translate(-25.122 -4.077)" fill="#525166"/>
        <path id="Trazado_2254" data-name="Trazado 2254" d="M383.555,59.051h-9.289v2.017h3.585v10.3h2.136v-10.3h3.568Z" transform="translate(-25.908 -4.088)" fill="#525166"/>
        <path id="Trazado_2255" data-name="Trazado 2255" d="M388.307,58.888l-4.921,12.417h2.306l.052-.139c.283-.746.729-1.842,1.363-3.345h3.958l1.421,3.484h2.285l-4.922-12.417Zm1.942,6.9h-2.337l1.182-3.318Z" transform="translate(-26.54 -4.077)" fill="#525166"/>
        <path id="Trazado_2256" data-name="Trazado 2256" d="M405.8,66.6a3.837,3.837,0,0,1-3.72,2.68,3.789,3.789,0,0,1-2.753-1.2,4.156,4.156,0,0,1,0-5.758,3.788,3.788,0,0,1,2.753-1.2,3.644,3.644,0,0,1,3.62,2.528l.051.143h2.118l-.068-.267A5.72,5.72,0,0,0,402.082,59a5.956,5.956,0,0,0-4.246,1.823l0,0a6.343,6.343,0,0,0,0,8.748,5.816,5.816,0,0,0,4.247,1.825,5.911,5.911,0,0,0,5.805-4.677l.067-.266h-2.1Z" transform="translate(-27.419 -4.084)" fill="#525166"/>
        <path id="Trazado_2257" data-name="Trazado 2257" d="M410.291,61.188h2.2v7.993h-2.2v2.136h6.533V69.181h-2.2V61.188h2.2V59.069h-6.533Z" transform="translate(-28.402 -4.089)" fill="#525166"/>
        <path id="Trazado_2258" data-name="Trazado 2258" d="M425.478,58.727h.461l2.362-2.238H425.35l-1.506,2.238h1.137a6.238,6.238,0,0,0-4.168,1.851h0a6.3,6.3,0,0,0,0,8.854,6.2,6.2,0,0,0,8.847,0,6.3,6.3,0,0,0,0-8.857,6.24,6.24,0,0,0-4.179-1.849m-.25,10.411a4.132,4.132,0,0,1,0-8.263,4.132,4.132,0,0,1,0,8.263" transform="translate(-29.004 -3.91)" fill="#525166"/>
        <path id="Trazado_2259" data-name="Trazado 2259" d="M441.829,66.914l-5.439-7.862-1.646-.022V71.314h2.136v-7.8l5.325,7.7.064.092h1.679V59.049h-2.119Z" transform="translate(-30.095 -4.086)" fill="#525166"/>
        <path id="Trazado_2260" data-name="Trazado 2260" d="M304.56,78.216h-4.543V90.481h2.153v-3.94h2.39a3.937,3.937,0,0,0,4.053-4.154,3.986,3.986,0,0,0-4.053-4.171m0,6.205h-2.39V80.369h2.39a2.029,2.029,0,0,1,0,4.053" transform="translate(-20.768 -5.414)" fill="#525166"/>
        <path id="Trazado_2261" data-name="Trazado 2261" d="M314.585,77.982h2.094l2.362-2.239h-2.951Z" transform="translate(-21.777 -5.243)" fill="#525166"/>
        <path id="Trazado_2262" data-name="Trazado 2262" d="M318.334,86.716c0,1.136-1.249,1.748-2.424,1.748s-2.44-.606-2.44-1.73v-8.5h-2.153v8.483c0,2.522,2.366,3.884,4.593,3.884,2.25,0,4.577-1.446,4.577-3.866v-8.5h-2.153Z" transform="translate(-21.551 -5.416)" fill="#525166"/>
        <path id="Trazado_2263" data-name="Trazado 2263" d="M331.179,83.713a2.923,2.923,0,0,0,.664-3.4,3.175,3.175,0,0,0-3.074-2.079h-5.134V90.482h5.558a3.6,3.6,0,0,0,3.647-3.783,3.3,3.3,0,0,0-1.66-2.986M329.192,88.4h-3.438V85.054h3.438a1.68,1.68,0,0,1,0,3.342m-.456-5.462h-2.982v-2.65h3.015a1.18,1.18,0,0,1,1.164,1.3,1.23,1.23,0,0,1-1.2,1.346" transform="translate(-22.403 -5.416)" fill="#525166"/>
        <path id="Trazado_2264" data-name="Trazado 2264" d="M337.724,78.233h-2.136V90.481h7.7V88.345h-5.563Z" transform="translate(-23.231 -5.416)" fill="#525166"/>
        <path id="Trazado_2265" data-name="Trazado 2265" d="M345.816,80.353h2.2v7.993h-2.2v2.136h6.533V88.345h-2.2V80.353h2.2V78.233h-6.533Z" transform="translate(-23.939 -5.416)" fill="#525166"/>
        <path id="Trazado_2266" data-name="Trazado 2266" d="M363.763,85.764a3.837,3.837,0,0,1-3.72,2.679,3.789,3.789,0,0,1-2.753-1.2,4.154,4.154,0,0,1,0-5.757,3.787,3.787,0,0,1,2.753-1.2,3.644,3.644,0,0,1,3.62,2.529l.051.143h2.117l-.068-.267a5.72,5.72,0,0,0-5.721-4.525,5.956,5.956,0,0,0-4.246,1.823l0,0a6.345,6.345,0,0,0,0,8.749,5.815,5.815,0,0,0,4.247,1.825,5.912,5.912,0,0,0,5.805-4.677l.067-.266h-2.1Z" transform="translate(-24.509 -5.411)" fill="#525166"/>
        <path id="Trazado_2267" data-name="Trazado 2267" d="M372.392,78.052l-4.921,12.417h2.306l.052-.139c.285-.749.743-1.874,1.364-3.345h3.957l1.422,3.484h2.284l-4.92-12.417Zm1.943,6.9H372l1.182-3.318Z" transform="translate(-25.438 -5.403)" fill="#525166"/>
        <path id="Trazado_2268" data-name="Trazado 2268" d="M274.451,61.152H240.778a1.709,1.709,0,1,0,0,3.419h33.674a1.709,1.709,0,0,0,0-3.419" transform="translate(-16.549 -4.233)" fill="#525166"/>
        <path id="Trazado_2269" data-name="Trazado 2269" d="M274.451,70.394H240.778a1.709,1.709,0,1,0,0,3.419h33.674a1.709,1.709,0,0,0,0-3.419" transform="translate(-16.549 -4.873)" fill="#525166"/>
        <path id="Trazado_2270" data-name="Trazado 2270" d="M274.451,79.635H240.778a1.709,1.709,0,1,0,0,3.419h33.674a1.709,1.709,0,0,0,0-3.419" transform="translate(-16.549 -5.513)" fill="#525166"/>
        <path id="Trazado_2271" data-name="Trazado 2271" d="M275.805,51.911H260.333a1.709,1.709,0,0,0,0,3.419h15.472a1.709,1.709,0,0,0,0-3.419" transform="translate(-17.903 -3.594)" fill="#525166"/>
      </g>
    </g>
  </g>
</svg>
