<svg id="Grupo_3095" data-name="Grupo 3095" xmlns="http://www.w3.org/2000/svg" xmlns:xlink="http://www.w3.org/1999/xlink" width="236.711" height="81.427" viewBox="0 0 236.711 81.427">
  <defs>
    <clipPath id="clip-path">
      <rect id="Rectángulo_2266" data-name="Rectángulo 2266" width="236.711" height="81.427" fill="none"/>
    </clipPath>
  </defs>
  <g id="Grupo_3094" data-name="Grupo 3094" transform="translate(0 0)" clip-path="url(#clip-path)">
    <path id="Trazado_2328" data-name="Trazado 2328" d="M27.525,0c1.006.256,2.033.451,3.016.779a11.428,11.428,0,0,1,7.785,12.068,11.368,11.368,0,0,1-9.487,10.66c-4.944.811-9.354-.269-12.46-4.466a11.717,11.717,0,0,1-1.2-12.2C16.93,2.772,20.28.7,24.626.171A1.923,1.923,0,0,0,25.069,0Zm-1.25,6.312a5.27,5.27,0,0,0-5.627,5.424c-.039,3.476,2.206,5.82,5.581,5.828a5.391,5.391,0,0,0,5.59-5.627,5.3,5.3,0,0,0-5.544-5.625" transform="translate(6.847 0)" fill="#c7d319"/>
    <path id="Trazado_2329" data-name="Trazado 2329" d="M166.767,32.658c-.134.573-.3,1.139-.391,1.718a9.92,9.92,0,0,1-9.2,8.671c-4.1.375-7.924-.383-10.862-3.529-3.29-3.521-3.8-7.75-2.514-12.195,1.234-4.265,4.336-6.65,8.583-7.537A15.212,15.212,0,0,1,164.954,22.4l-3.739,5.04a9.436,9.436,0,0,0-4.735-2c-5.864-.537-7.726,4.491-6.285,8.317,1.212,3.218,6.286,4.625,9,2.484a8.319,8.319,0,0,0,1.209-1.527c-.058-.1-.113-.191-.17-.284h-5.462V29.243H166.42l.347,1.37Z" transform="translate(69.946 9.487)" fill="#4c4c4b"/>
    <path id="Trazado_2330" data-name="Trazado 2330" d="M107.649,62.485c-1.233-.333-2.487-.606-3.692-1.018-1.182-.4-2.315-.953-3.534-1.465.977-2.045,1.9-3.972,2.84-5.943A20.8,20.8,0,0,0,106.5,55.8a23.119,23.119,0,0,0,4.445.911c.406.051.884-.463,1.328-.716-.283-.417-.472-1-.865-1.222-1.754-.971-3.591-1.792-5.353-2.749a6.957,6.957,0,0,1-3.681-7.9,6.011,6.011,0,0,1,4.448-4.74c4.059-1.239,7.919-.487,11.733,1.34l-2.59,5.338c-1.435-.511-2.752-1.039-4.109-1.434a6.164,6.164,0,0,0-2.023-.128c-.278.015-.722.281-.765.5a1.1,1.1,0,0,0,.341.944,27.4,27.4,0,0,0,2.482,1.4c1.142.6,2.316,1.151,3.439,1.789,3.08,1.751,4.187,4.225,3.556,7.833-.491,2.809-2.721,4.784-5.99,5.317a6.9,6.9,0,0,0-.744.205h-4.5" transform="translate(49.067 18.942)" fill="#4b4b4b"/>
    <path id="Trazado_2331" data-name="Trazado 2331" d="M0,29.377c.149-.5.314-1,.445-1.508a11.221,11.221,0,0,1,9.831-8.29,15.108,15.108,0,0,1,10.115,1.981c.171.107.332.228.576.4-1.076,1.758-2.138,3.489-3.223,5.261-.676-.36-1.274-.747-1.923-1.015a6.861,6.861,0,0,0-7.4.843,5.7,5.7,0,0,0,3.471,9.914c2.2.164,3.075-.08,5.84-1.634,1.063,1.728,2.126,3.46,3.236,5.268a12.363,12.363,0,0,1-5.027,2.176A14.737,14.737,0,0,1,5.63,41.441,10.466,10.466,0,0,1,.4,34.462c-.1-.408-.263-.8-.4-1.2V29.377" transform="translate(0 9.494)" fill="#4b4b4b"/>
    <path id="Trazado_2332" data-name="Trazado 2332" d="M57.661,39.1c1.483,0,2.941-.034,4.4.028a1.543,1.543,0,0,1,.872.588c3.339,3.775,6.663,7.564,10.134,11.514V39.183h6.224v22.7c-1.511,0-3,.028-4.481-.027-.269-.01-.572-.322-.783-.561q-4.74-5.361-9.454-10.742c-.194-.219-.384-.439-.749-.856V61.819H57.661Z" transform="translate(28.174 19.098)" fill="#4d4d4d"/>
    <path id="Trazado_2333" data-name="Trazado 2333" d="M64.126,10.936V23.018H57.963V.393c1.514,0,2.977-.039,4.436.03a1.672,1.672,0,0,1,.954.628q4.671,5.283,9.307,10.594c.192.219.4.426.765.822v-12h6.164V23.1c-1.481,0-2.968.034-4.452-.028-.3-.013-.628-.351-.86-.615Q69.61,17.174,64.97,11.865c-.219-.25-.447-.493-.844-.929" transform="translate(28.321 0.186)" fill="#4d4d4d"/>
    <path id="Trazado_2334" data-name="Trazado 2334" d="M38.281,30.283V42.427H32.175V19.778c1.5,0,3.017-.042,4.531.034.316.016.649.435.907.728Q42.3,25.87,46.97,31.222a5.138,5.138,0,0,1,.339.491l.247-.1V19.816h6.215V42.478c-1.511,0-3.034.042-4.551-.034-.314-.016-.646-.439-.905-.731-3.287-3.73-6.562-7.47-10.035-11.43" transform="translate(15.721 9.658)" fill="#4b4b4b"/>
    <path id="Trazado_2335" data-name="Trazado 2335" d="M142.318,19.81h6.138V42.476c-1.495,0-3.014.028-4.531-.028-.263-.01-.548-.353-.762-.6q-4.624-5.252-9.232-10.52c-.256-.293-.534-.567-.933-.99V42.413h-6.115V19.775c1.492,0,2.98-.04,4.464.033.323.015.679.39.933.677q4.7,5.323,9.363,10.673c.176.2.335.417.676.843Z" transform="translate(61.995 9.656)" fill="#4a4a4a"/>
    <path id="Trazado_2336" data-name="Trazado 2336" d="M26.117,43.129c-6.1-.036-10.664-3.705-11.811-9.5A11.777,11.777,0,0,1,27.223,19.475c5.569.573,9.471,3.7,10.708,8.576,2.054,8.11-3.442,15.126-11.814,15.078m.089-17.452a5.309,5.309,0,0,0-5.581,5.572,5.357,5.357,0,0,0,5.6,5.681,5.351,5.351,0,0,0,5.575-5.7,5.294,5.294,0,0,0-5.591-5.555" transform="translate(6.871 9.482)" fill="#c7d319"/>
    <path id="Trazado_2337" data-name="Trazado 2337" d="M44.713,53.431c2.1,2.822,4.122,5.538,6.286,8.446-2.653,0-5.055.022-7.456-.031-.269-.006-.588-.4-.786-.68-1.716-2.444-3.412-4.9-5.267-7.578V61.8H31.32V39.2a.864.864,0,0,1,.277-.1c3.611.028,7.229-.07,10.831.127a7.354,7.354,0,0,1,6.239,10.964,7.011,7.011,0,0,1-3.954,3.239m-7.261-3.922a38.372,38.372,0,0,0,3.855-.274,2.043,2.043,0,0,0,1.761-2.358,2,2,0,0,0-1.905-2.129c-1.2-.116-2.412-.025-3.656-.025a3.251,3.251,0,0,0-.052.412c0,1.389,0,2.776,0,4.374" transform="translate(15.303 19.105)" fill="#4d4d4d"/>
    <path id="Trazado_2338" data-name="Trazado 2338" d="M100.489,53.475c2.041,2.743,4.082,5.487,6.243,8.394-2.613,0-5.018.022-7.419-.03-.278-.006-.612-.377-.808-.656-1.548-2.2-3.067-4.421-4.6-6.632-.183-.263-.389-.511-.744-.975v8.232H87.038V39.225c.039-.03.091-.106.143-.106,3.981.07,7.986-.112,11.931.3a6.577,6.577,0,0,1,6.074,6.063c.4,3.762-1.018,6.228-4.491,7.836a1.682,1.682,0,0,0-.205.159M93.2,49.514a39.415,39.415,0,0,0,4.062-.342,2.009,2.009,0,0,0,1.56-2.215,1.93,1.93,0,0,0-1.532-2.118c-1.341-.22-2.721-.205-4.091-.292Z" transform="translate(42.527 19.114)" fill="#4b4b4b"/>
    <path id="Trazado_2339" data-name="Trazado 2339" d="M75.122,34.215c2.013,2.7,4.034,5.42,6.178,8.3-2.61,0-5.012.021-7.415-.03-.277-.006-.613-.371-.808-.649-1.547-2.2-3.065-4.417-4.6-6.626-.182-.263-.384-.512-.753-1v8.251h-6.12V19.694c4.126.116,8.217.033,12.265.415a6.244,6.244,0,0,1,5.654,4.915c.737,2.833.363,5.506-1.952,7.577a19.811,19.811,0,0,1-2.452,1.614m-7.349-4.068a37.309,37.309,0,0,0,4.064-.3,2.009,2.009,0,0,0,1.585-2.2,1.983,1.983,0,0,0-1.636-2.155c-1.314-.216-2.665-.21-4.013-.3Z" transform="translate(30.102 9.622)" fill="#4b4b4b"/>
    <path id="Trazado_2340" data-name="Trazado 2340" d="M128.668,53.057h-7.656v8.732h-6.173V39.136h6.1v8.119h7.675V39.136h6.13V61.817h-6.072Z" transform="translate(56.111 19.122)" fill="#4d4d4c"/>
    <path id="Trazado_2341" data-name="Trazado 2341" d="M99.784,42.487c-2.072,0-4.082-.022-6.09.013-.572.01-.758-.24-.9-.722-.354-1.172-.759-2.328-1.151-3.516H83.963c-.393,1.173-.764,2.4-1.228,3.583a1.155,1.155,0,0,1-.828.613c-2.01.052-4.021.027-6.146.027.1-.327.159-.6.262-.865C78.716,34.648,81.428,27.68,84.1,20.7a1.219,1.219,0,0,1,1.4-.941c1.633.064,3.273-.009,4.906.045a1.165,1.165,0,0,1,.89.531q4.28,10.912,8.485,21.853a1.2,1.2,0,0,1,0,.3M85.546,33.25h4.5c-.728-2.248-1.431-4.414-2.23-6.871-.81,2.45-1.529,4.624-2.27,6.871" transform="translate(37.017 9.651)" fill="#4b4b4b"/>
    <path id="Trazado_2342" data-name="Trazado 2342" d="M81.1,52.83v3.3h8.656V61.8H74.872V39.148H89.286v5.606H81.123v2.63h7.153V52.83Z" transform="translate(36.583 19.128)" fill="#4e4e4e"/>
    <path id="Trazado_2343" data-name="Trazado 2343" d="M8.854,61.881h-6.2V39c3.939.149,7.873.048,11.738.514,4.129.5,6.388,3.6,6.31,7.845-.076,4.176-2.438,7.005-6.529,7.617-1.706.255-3.454.229-5.322.341Zm.079-17.135v4.918a30.5,30.5,0,0,0,3.178-.021,2.454,2.454,0,0,0-.024-4.878c-1.011-.1-2.039-.019-3.154-.019" transform="translate(1.298 19.055)" fill="#4c4c4c"/>
    <path id="Trazado_2344" data-name="Trazado 2344" d="M32.147.319c3.893.11,7.762-.028,11.569.392,4.244.469,6.505,3.522,6.455,7.922A7.23,7.23,0,0,1,43.606,16.2c-1.707.244-3.449.244-5.276.36v6.516H32.147Zm6.206,10.569c1.093,0,2.144.076,3.181-.018a2.384,2.384,0,0,0,2.257-2.455A2.326,2.326,0,0,0,41.632,6c-1.067-.109-2.154-.021-3.279-.021Z" transform="translate(15.707 0.156)" fill="#4c4c4c"/>
    <path id="Trazado_2345" data-name="Trazado 2345" d="M143.859,55.27v6.563H137.73V39.192a3.274,3.274,0,0,1,.566-.092c3.133.021,6.276-.086,9.4.132a11.943,11.943,0,0,1,4.644,1.3c2.785,1.475,3.986,4.927,3.273,8.457a7.092,7.092,0,0,1-6.4,5.95c-1.709.24-3.455.225-5.347.335m.058-5.63c1.1,0,2.084.007,3.07-.006a2.131,2.131,0,0,0,.6-.122,2.309,2.309,0,0,0,1.782-2.425,2.206,2.206,0,0,0-1.806-2.292,33.778,33.778,0,0,0-3.643-.214Z" transform="translate(67.296 19.1)" fill="#4b4b4b"/>
    <path id="Trazado_2346" data-name="Trazado 2346" d="M45.823,23.038V.436h14.37v5.6H52.06V8.6h7.116v5.466H52.041v3.265h8.68v5.71Z" transform="translate(22.389 0.213)" fill="#4d4d4c"/>
    <path id="Trazado_2347" data-name="Trazado 2347" d="M109.478,27.017a30.633,30.633,0,0,0-4.368-1.4,5.77,5.77,0,0,0-6.688,7.364,5.643,5.643,0,0,0,5.231,4.007,8.289,8.289,0,0,0,5.639-1.706c.56.9,1.093,1.751,1.621,2.605s1.066,1.74,1.648,2.69a10.858,10.858,0,0,1-4.253,2.022,15.109,15.109,0,0,1-9.337-.353,10.688,10.688,0,0,1-7.26-9.71,12.247,12.247,0,0,1,1.4-7.306,10.99,10.99,0,0,1,7.963-5.483,15.106,15.106,0,0,1,11.514,2.185c-1.079,1.765-2.136,3.492-3.113,5.088" transform="translate(44.779 9.493)" fill="#4b4b4b"/>
    <path id="Trazado_2348" data-name="Trazado 2348" d="M26.136,45.79c-.889,2.714-1.691,5.158-2.489,7.6-.834,2.553-1.678,5.1-2.479,7.663-.188.6-.432.872-1.118.854-1.969-.054-3.942-.019-6.045-.019.843-2.176,1.651-4.26,2.456-6.344,2-5.167,4.006-10.329,5.972-15.508a1.224,1.224,0,0,1,1.393-.959c1.633.07,3.272-.007,4.906.048a1.172,1.172,0,0,1,.883.558q4.294,10.966,8.516,21.961a1.122,1.122,0,0,1-.042.241c-2.093,0-4.217.033-6.337-.043-.249-.009-.576-.576-.7-.941-1.529-4.647-3.026-9.307-4.533-13.962-.094-.29-.2-.579-.389-1.154" transform="translate(6.843 19.094)" fill="#4c4c4c"/>
    <path id="Trazado_2349" data-name="Trazado 2349" d="M56.136,61.809H49.974V44.824H44.3V39.139H61.789v5.67H56.136Z" transform="translate(21.647 19.123)" fill="#4d4d4c"/>
    <path id="Trazado_2350" data-name="Trazado 2350" d="M112.339,42.388V25.427h-5.57V19.818h17.384v5.564H118.6V42.388Z" transform="translate(52.168 9.683)" fill="#4e4e4d"/>
    <path id="Trazado_2351" data-name="Trazado 2351" d="M65.722,25.405H60.144v17H53.956V25.454H48.272V19.8H65.722Z" transform="translate(23.586 9.674)" fill="#4b4b4b"/>
    <rect id="Rectángulo_2264" data-name="Rectángulo 2264" width="6.084" height="22.701" transform="translate(194.93 58.254)" fill="#4f4f4e"/>
    <rect id="Rectángulo_2265" data-name="Rectángulo 2265" width="6.094" height="22.612" transform="translate(178.762 29.473)" fill="#4e4e4e"/>
  </g>
</svg>
