<svg id="Grupo_3071" data-name="Grupo 3071" xmlns="http://www.w3.org/2000/svg" xmlns:xlink="http://www.w3.org/1999/xlink" width="43.922" height="54.225" viewBox="0 0 43.922 54.225">
  <defs>
    <clipPath id="clip-path">
      <rect id="Rectángulo_2249" data-name="Rectángulo 2249" width="43.922" height="54.225" fill="#fafafa"/>
    </clipPath>
  </defs>
  <g id="Grupo_3070" data-name="Grupo 3070" clip-path="url(#clip-path)">
    <path id="Trazado_2296" data-name="Trazado 2296" d="M43.919,14.583a1.228,1.228,0,0,0-.085-.427c-.008-.019-.017-.038-.025-.057a1.156,1.156,0,0,0-.077-.145c-.011-.018-.021-.036-.033-.053a1.2,1.2,0,0,0-.14-.171L30.192.364a1.217,1.217,0,0,0-.171-.14C30,.212,29.986.2,29.968.19a1.218,1.218,0,0,0-.143-.076C29.806.1,29.787.1,29.767.088a1.221,1.221,0,0,0-.206-.063h0A1.213,1.213,0,0,0,29.341,0l-.024,0H10.949A5.232,5.232,0,0,0,5.723,5.227V34.663a10.321,10.321,0,1,0,13.8,13.907H38.7a5.231,5.231,0,0,0,5.226-5.226V14.607c0-.008,0-.016,0-.024M30.555,4.231,35.124,8.8l4.568,4.569H33.3a2.751,2.751,0,0,1-2.747-2.748ZM10.324,51.747A7.846,7.846,0,1,1,18.17,43.9a7.855,7.855,0,0,1-7.846,7.846M38.7,46.093H20.412A10.324,10.324,0,0,0,8.2,33.8V5.227a2.751,2.751,0,0,1,2.748-2.748H28.078V10.62A5.231,5.231,0,0,0,33.3,15.845h8.141v27.5A2.751,2.751,0,0,1,38.7,46.093" transform="translate(0 -0.001)" fill="#fafafa"/>
    <path id="Trazado_2297" data-name="Trazado 2297" d="M54.034,52.018H33.567a1.239,1.239,0,0,0,0,2.478H54.034a1.239,1.239,0,0,0,0-2.478" transform="translate(-18.978 -30.537)" fill="#fafafa"/>
    <path id="Trazado_2298" data-name="Trazado 2298" d="M54.034,67.018H33.567a1.239,1.239,0,1,0,0,2.478H54.034a1.239,1.239,0,1,0,0-2.478" transform="translate(-18.978 -39.342)" fill="#fafafa"/>
    <path id="Trazado_2299" data-name="Trazado 2299" d="M21.772,96.42a1.238,1.238,0,0,0-1.752,0l-5.548,5.547-1.735-1.735a1.239,1.239,0,0,0-1.752,1.753L13.6,104.6a1.238,1.238,0,0,0,1.752,0l6.424-6.424a1.238,1.238,0,0,0,0-1.752" transform="translate(-6.236 -56.389)" fill="#fafafa"/>
  </g>
</svg>
