<svg xmlns="http://www.w3.org/2000/svg" xmlns:xlink="http://www.w3.org/1999/xlink" width="67" height="67" viewBox="0 0 67 67">
  <defs>
    <clipPath id="clip-path">
      <rect id="Rect치ngulo_2255" data-name="Rect치ngulo 2255" width="67" height="67" transform="translate(0 -0.132)" fill="#fafafa"/>
    </clipPath>
  </defs>
  <g id="Grupo_3120" data-name="Grupo 3120" transform="translate(-347 -2764)">
    <path id="Rect치ngulo_2218" data-name="Rect치ngulo 2218" d="M19.525,0h.284c.157,0,.314.006.47.012h0l.047,0h.106l.275.015A1.775,1.775,0,0,1,20.5,3.579c-.321-.019-.648-.029-.971-.029a1.784,1.784,0,0,1-.334-.031,1.784,1.784,0,0,1-.332.045c-.322.013-.648.036-.967.069A1.775,1.775,0,0,1,17.532.1l.182-.018h.008a.3.3,0,0,0,.03,0h.077l.018,0h.019q.408-.034.821-.052h.026l.076,0a1.775,1.775,0,0,1,.332.031,1.78,1.78,0,0,1,.4-.046ZM27.8,2.041a1.768,1.768,0,0,1,.827.206h0q.438.231.863.484h0l.023.014.007,0,.007,0,.007,0,.007,0,.007,0,.008,0h0l.1.061a1.775,1.775,0,0,1-1.846,3.033c-.275-.167-.558-.328-.842-.478a1.775,1.775,0,0,1,.83-3.345Zm6.366,5.67a1.773,1.773,0,0,1,1.465.77q.335.487.64,1a1.775,1.775,0,1,1-3.042,1.83c-.166-.275-.342-.549-.524-.814a1.775,1.775,0,0,1,1.461-2.781Zm3,7.976a1.775,1.775,0,0,1,1.761,1.571q.068.584.1,1.179a1.775,1.775,0,1,1-3.545.2c-.018-.322-.045-.647-.082-.966a1.777,1.777,0,0,1,1.766-1.979Zm-.713,8.628a1.777,1.777,0,0,1,1.693,2.309c-.02.062-.04.124-.06.186h0l0,.006v0l0,.006v0l0,.005,0,.007v0l0,0v0l0,.006v0q-.116.351-.246.7h0l-.01.026h0l0,.007v0l0,.007v0l0,.006v0l0,.007v0l0,0v.008l0,0v0l0,.01v0l0,.006h0l0,.006h0l-.031.082a1.775,1.775,0,0,1-3.312-1.28c.116-.3.223-.606.321-.912A1.776,1.776,0,0,1,36.447,24.315Zm-4.46,7.263a1.775,1.775,0,0,1,1.247,3.039l-.01.01h0l0,0h0l-.014.014,0,0,0,0,0,0,0,0,0,0,0,0,0,0,0,0,0,0,0,0,0,0h0l-.013.012h0l-.006.006h0l-.02.019h0q-.371.361-.761.7a1.775,1.775,0,1,1-2.336-2.674c.242-.212.481-.434.711-.66A1.769,1.769,0,0,1,31.987,31.577Zm-7.324,4.355a1.775,1.775,0,0,1,.514,3.475l-.059.018-.007,0-.008,0-.01,0-.009,0-.008,0-.008,0-.008,0-.017.005h0l-.008,0h0q-.327.1-.658.181h0l-.009,0-.009,0h0l-.019,0h0l-.3.075a1.775,1.775,0,0,1-.811-3.456c.312-.074.626-.158.933-.251A1.775,1.775,0,0,1,24.663,35.932Zm-9.567.2a1.779,1.779,0,0,1,.443.056c.311.08.628.151.943.212a1.775,1.775,0,0,1-.669,3.487l-.088-.017-.008,0H15.71l-.01,0-.008,0-.008,0h0q-.327-.065-.65-.141l-.008,0-.008,0-.008,0-.011,0-.008,0-.007,0q-.167-.04-.332-.082A1.775,1.775,0,0,1,15.1,36.13ZM7.6,32.084a1.769,1.769,0,0,1,1.193.461c.238.216.486.428.737.63a1.775,1.775,0,0,1-2.22,2.771c-.1-.08-.2-.16-.294-.241h0l0,0h0l0,0H7l-.009-.007-.005,0-.006-.005-.006-.005,0,0h0l-.006-.005-.007-.006,0,0,0,0h0l-.013-.011h0l-.006,0h0l-.007-.006h0l-.014-.012h0L6.9,35.607h0l-.021-.017h0l-.006-.006h0l-.021-.018h0l-.006-.005h0l-.021-.018h0L6.8,35.522h0l-.006-.005h0l-.007-.006h0L6.773,35.5h0l-.006,0h0l-.006,0h0l-.007-.006h0l-.006-.005h0l0,0-.007-.006,0,0-.006-.005-.006-.005-.006-.005,0,0,0,0-.014-.012h0l-.005,0h0Q6.543,35.3,6.4,35.17a1.775,1.775,0,0,1,1.2-3.087ZM2.84,25.011a1.776,1.776,0,0,1,1.668,1.168c.11.3.23.6.358.9a1.775,1.775,0,0,1-3.255,1.417q-.229-.527-.428-1.069h0l-.011-.031A1.776,1.776,0,0,1,2.84,25.011ZM1.821,16.421q.066,0,.133,0a1.775,1.775,0,0,1,1.639,1.9c-.024.321-.038.647-.043.97A1.775,1.775,0,0,1,0,19.251c.006-.4.023-.8.052-1.191A1.775,1.775,0,0,1,1.821,16.421Zm2.66-8.094a1.776,1.776,0,0,1,1.5,2.719c-.171.272-.336.553-.49.835a1.775,1.775,0,0,1-3.117-1.7c.043-.078.085-.155.129-.233h0l0-.005h0l.009-.016,0-.007,0,0,0,0,0-.006v0l0-.007v0l0-.006v0l0-.006h0l.009-.016h0l0-.008h0q.2-.353.418-.7A1.774,1.774,0,0,1,4.481,8.327ZM10.607,2.4a1.775,1.775,0,0,1,.895,3.31c-.278.162-.554.334-.822.512A1.775,1.775,0,0,1,8.71,3.266l.007,0,.007,0,.008,0,.008-.005,0,0,.006,0h0l.006,0h0l.006,0h0l.023-.015h0q.455-.3.927-.575A1.767,1.767,0,0,1,10.607,2.4Z" transform="translate(360 2817.421) rotate(-90)" fill="#fbbc30"/>
    <g id="Grupo_3083" data-name="Grupo 3083" transform="translate(347 2764.132)">
      <g id="Grupo_3082" data-name="Grupo 3082" clip-path="url(#clip-path)">
        <path id="Trazado_2316" data-name="Trazado 2316" d="M32.206,11A21.206,21.206,0,1,1,11,32.206,21.229,21.229,0,0,1,32.206,11M30.423,50.293l-2.205-2.205A1.262,1.262,0,0,1,30,46.3l3.99,3.99a18,18,0,0,0,3.349-.655l-9.123-9.123A1.262,1.262,0,0,1,30,38.729l9.7,9.705a1.26,1.26,0,0,1,.183.238,18.15,18.15,0,0,0,2.582-1.478l-.006,0L31.106,35.83a1.262,1.262,0,1,1,1.785-1.785L44.251,45.4a1.251,1.251,0,0,1,.182.237,18.284,18.284,0,0,0,2.081-2.248,1.252,1.252,0,0,1-.6-.332L34.893,32.042a1.262,1.262,0,0,1,1.785-1.785L47.7,41.276a1.256,1.256,0,0,1,.146.179A18.07,18.07,0,0,0,49.2,38.634a1.257,1.257,0,0,1-.426-.28L35.4,24.974a1.262,1.262,0,0,1,1.785-1.785l12.8,12.8a18.163,18.163,0,0,0,.395-3.625c-.028-.024-.059-.043-.085-.07L35.9,17.905a1.262,1.262,0,1,1,1.785-1.785L49.981,28.414A18.176,18.176,0,1,0,30.423,50.293" transform="translate(7.748 -5.506)" fill="#fafafa"/>
        <path id="Trazado_2317" data-name="Trazado 2317" d="M.444,64.06,19.5,45a27.052,27.052,0,1,1,2.142,2.142L2.586,66.2A1.514,1.514,0,1,1,.444,64.06M63.617,27.012A23.982,23.982,0,1,0,39.634,50.994,24.01,24.01,0,0,0,63.617,27.012" transform="translate(0.067 -0.06)" fill="#fafafa"/>
      </g>
    </g>
  </g>
</svg>
