<svg xmlns="http://www.w3.org/2000/svg" xmlns:xlink="http://www.w3.org/1999/xlink" width="64.851" height="66.646" viewBox="0 0 64.851 66.646">
  <defs>
    <clipPath id="clip-path">
      <rect id="Rect치ngulo_2253" data-name="Rect치ngulo 2253" width="64.851" height="66.646" fill="#fafafa"/>
    </clipPath>
  </defs>
  <g id="Grupo_3122" data-name="Grupo 3122" transform="translate(-867 -2764.586)">
    <path id="Rect치ngulo_2218" data-name="Rect치ngulo 2218" d="M19.527,0h.284c.157,0,.314.006.47.012h0l.047,0h.106l.275.015A1.775,1.775,0,0,1,20.5,3.579c-.321-.019-.648-.029-.971-.029a1.784,1.784,0,0,1-.334-.031,1.784,1.784,0,0,1-.332.045c-.322.013-.648.036-.967.069A1.775,1.775,0,0,1,17.533.1l.182-.018h.008a.3.3,0,0,0,.03,0h.077l.018,0h.019q.408-.034.821-.052h.026l.076,0a1.775,1.775,0,0,1,.332.031,1.78,1.78,0,0,1,.4-.046ZM27.8,2.041a1.768,1.768,0,0,1,.827.206h0q.438.231.863.484h0l.023.014.007,0,.007,0,.007,0,.007,0,.007,0,.008,0h0l.1.061a1.775,1.775,0,0,1-1.846,3.033c-.275-.167-.558-.328-.842-.478a1.775,1.775,0,0,1,.83-3.345Zm6.366,5.67a1.773,1.773,0,0,1,1.465.77q.335.487.64,1a1.775,1.775,0,1,1-3.042,1.83c-.166-.275-.342-.549-.524-.814a1.775,1.775,0,0,1,1.461-2.781Zm3,7.976a1.775,1.775,0,0,1,1.761,1.571q.068.584.1,1.179a1.775,1.775,0,1,1-3.545.2c-.018-.322-.045-.647-.082-.966A1.775,1.775,0,0,1,36.956,15.7,1.793,1.793,0,0,1,37.162,15.687Zm-.713,8.628a1.777,1.777,0,0,1,1.693,2.309c-.02.062-.04.124-.06.186h0l0,.006v0l0,.006v0l0,.005,0,.007v0l0,0v0l0,.006v0q-.116.351-.246.7h0l-.01.026h0l0,.007v0l0,.007v0l0,.006v0l0,.007v0l0,0v.008l0,0v0l0,.01v0l0,.006h0l0,.006h0l-.031.082a1.775,1.775,0,0,1-3.312-1.28c.116-.3.223-.606.321-.912A1.776,1.776,0,0,1,36.449,24.315Zm-4.46,7.263a1.775,1.775,0,0,1,1.247,3.039l-.01.01h0l0,0h0l-.014.014,0,0,0,0,0,0,0,0,0,0,0,0,0,0,0,0,0,0,0,0,0,0h0l-.013.012h0l-.006.006h0l-.02.019h0q-.371.361-.761.7a1.775,1.775,0,0,1-2.336-2.674c.242-.212.481-.434.711-.66A1.769,1.769,0,0,1,31.989,31.577Zm-7.324,4.355a1.775,1.775,0,0,1,.514,3.475l-.059.018-.007,0-.008,0-.01,0-.009,0-.008,0-.008,0-.008,0-.017.005h0l-.008,0h0q-.327.1-.658.181h0l-.009,0-.009,0h0l-.019,0h0l-.3.075a1.775,1.775,0,0,1-.811-3.456c.312-.074.626-.158.933-.251A1.774,1.774,0,0,1,24.664,35.932Zm-9.567.2a1.779,1.779,0,0,1,.443.056c.311.08.628.151.943.212a1.775,1.775,0,0,1-.669,3.487l-.088-.017-.008,0h-.008l-.01,0-.008,0-.008,0h0q-.327-.065-.65-.141l-.008,0-.008,0-.008,0-.011,0-.008,0-.007,0q-.167-.04-.332-.082A1.775,1.775,0,0,1,15.1,36.13ZM7.6,32.084a1.769,1.769,0,0,1,1.193.461c.238.216.486.428.737.63a1.775,1.775,0,0,1-2.22,2.771c-.1-.08-.2-.16-.294-.241h0l0,0h0l0,0H7l-.009-.007-.005,0-.006-.005-.006-.005,0,0h0l-.006-.005-.007-.006,0,0,0,0h0l-.013-.011h0l-.006,0h0l-.007-.006h0l-.014-.012h0L6.9,35.607h0l-.021-.017h0l-.006-.006h0l-.021-.018h0l-.006-.005h0l-.021-.018h0L6.8,35.522h0L6.8,35.517h0l-.007-.006h0L6.774,35.5h0l-.006,0h0l-.006,0h0l-.007-.006h0l-.006-.005h0l0,0-.007-.006,0,0-.006-.005-.006-.005-.006-.005,0,0,0,0-.014-.012h0l-.005,0h0Q6.544,35.3,6.4,35.17a1.775,1.775,0,0,1,1.2-3.087ZM2.841,25.011A1.776,1.776,0,0,1,4.51,26.179c.11.3.23.6.358.9a1.775,1.775,0,0,1-3.255,1.417q-.229-.527-.428-1.069h0l-.011-.031a1.776,1.776,0,0,1,1.668-2.382ZM1.822,16.421q.066,0,.133,0a1.775,1.775,0,0,1,1.639,1.9c-.024.321-.038.647-.043.97A1.775,1.775,0,0,1,0,19.251c.006-.4.023-.8.052-1.191A1.775,1.775,0,0,1,1.822,16.421Zm2.66-8.094a1.776,1.776,0,0,1,1.5,2.719c-.171.272-.336.553-.49.835a1.775,1.775,0,0,1-3.117-1.7c.043-.078.085-.155.129-.233h0l0-.005h0l.009-.016,0-.007,0,0,0,0,0-.006v0l0-.007v0l0-.006v0l0-.006h0l.009-.016h0l0-.008h0q.2-.353.418-.7A1.774,1.774,0,0,1,4.482,8.327ZM10.608,2.4a1.775,1.775,0,0,1,.895,3.31c-.278.162-.554.334-.822.512A1.775,1.775,0,0,1,8.712,3.266l.007,0,.007,0,.008,0,.008-.005,0,0,.006,0h0l.006,0h0l.006,0h0l.023-.015h0q.455-.3.927-.575A1.767,1.767,0,0,1,10.608,2.4Z" transform="translate(879.999 2777.79)" fill="#fbbc30"/>
    <g id="Grupo_3079" data-name="Grupo 3079" transform="translate(867 2764.586)">
      <g id="Grupo_3078" data-name="Grupo 3078" clip-path="url(#clip-path)">
        <path id="Trazado_2311" data-name="Trazado 2311" d="M103.69,100a7.69,7.69,0,1,0,7.69,7.69,7.7,7.7,0,0,0-7.69-7.69m0,12.3a4.614,4.614,0,1,1,4.614-4.614,4.619,4.619,0,0,1-4.614,4.614" transform="translate(-46.785 -48.734)" fill="#fafafa"/>
        <path id="Trazado_2312" data-name="Trazado 2312" d="M51.34,39.549a1.539,1.539,0,0,0,0-2.175l-2-2h.9a14.611,14.611,0,0,0,0-29.222H15.225a7.69,7.69,0,1,0,0,3.076H50.241a11.535,11.535,0,0,1,0,23.07h-.9l1.948-1.948a1.538,1.538,0,1,0-2.175-2.175l-4.573,4.573a1.53,1.53,0,0,0-.176.216c-.016.024-.03.048-.045.072a1.472,1.472,0,0,0-.091.173c-.011.026-.024.05-.034.076a1.559,1.559,0,0,0-.075.253c0,.007,0,.014,0,.022a1.5,1.5,0,0,0-.024.245c0,.027,0,.053,0,.079a1.54,1.54,0,0,0,.018.193c0,.028.009.055.014.083a1.646,1.646,0,0,0,.064.216c.006.015.009.03.015.045v0a1.521,1.521,0,0,0,.124.234c.014.022.03.042.045.063a1.588,1.588,0,0,0,.136.167c.011.011.017.024.029.035l4.625,4.626a1.539,1.539,0,0,0,2.175,0M7.69,12.3A4.614,4.614,0,1,1,12.3,7.69,4.619,4.619,0,0,1,7.69,12.3" fill="#fafafa"/>
        <path id="Trazado_2313" data-name="Trazado 2313" d="M46.1,84.16c.006-.027.01-.055.014-.083a1.541,1.541,0,0,0,.018-.193c0-.027,0-.053,0-.079a1.5,1.5,0,0,0-.024-.245c0-.007,0-.014,0-.022a1.56,1.56,0,0,0-.075-.253c-.01-.026-.023-.051-.034-.076a1.473,1.473,0,0,0-.091-.173c-.015-.024-.029-.048-.045-.072a1.53,1.53,0,0,0-.176-.216l-4.573-4.573a1.538,1.538,0,0,0-2.175,2.175L40.889,82.3h-.9a1.568,1.568,0,0,0-.256.026,1.568,1.568,0,0,0-.256-.026H14.611a11.535,11.535,0,0,1,0-23.07H25.788a7.69,7.69,0,1,0,0-3.076H14.611a14.611,14.611,0,0,0,0,29.222H39.475a1.567,1.567,0,0,0,.256-.026,1.568,1.568,0,0,0,.256.026h.9l-2,2a1.538,1.538,0,0,0,2.175,2.175l4.625-4.626c.011-.011.018-.024.029-.035a1.589,1.589,0,0,0,.136-.167c.015-.021.031-.041.045-.063a1.522,1.522,0,0,0,.124-.234v0c.007-.014.01-.03.015-.045a1.647,1.647,0,0,0,.064-.216M33.323,53.076a4.614,4.614,0,1,1-4.614,4.614,4.619,4.619,0,0,1,4.614-4.614" transform="translate(0 -24.367)" fill="#fafafa"/>
      </g>
    </g>
  </g>
</svg>
